# Blender v2.82 (sub 7) OBJ File: ''
# www.blender.org
mtllib default.mtl
o shellModel
v 0.527353 0.146055 0.143565
v 0.750996 0.102488 0.099998
v 0.750996 0.102488 -0.103315
v 0.527353 0.146055 -0.146882
v 0.527353 -0.144391 -0.146882
v 0.750996 -0.100824 -0.103315
v 0.750996 -0.100824 0.099998
v 0.527353 -0.144391 0.143565
v -0.692521 0.146055 0.143565
v 0.527353 0.146055 0.143565
v 0.527353 0.146055 -0.146882
v -0.692521 0.146055 -0.146882
v -0.692521 -0.144391 -0.146882
v 0.527353 -0.144391 -0.146882
v 0.527353 -0.144391 0.143565
v -0.692521 -0.144391 0.143565
vt 0.687401 0.937638
vt 0.624901 1.000139
vt 0.624901 0.937638
vt 0.749901 0.937638
vt 0.687401 1.000139
vt 0.687401 0.937638
vt 0.687401 0.875138
vt 0.749901 0.937638
vt 0.812401 0.875138
vt 0.812401 0.937638
vt 0.749901 0.875138
vt 0.562401 0.937638
vt 0.624901 0.875138
vt 0.249901 0.937638
vt 0.062401 1.000139
vt 0.062401 0.937638
vt 0.437401 0.937638
vt 0.249901 1.000139
vt 0.249901 0.937638
vt 0.249901 0.875138
vt 0.312401 0.937638
vt 0.499901 0.875138
vt 0.499901 0.937638
vt 0.312401 0.875138
vt -0.000099 0.937638
vt 0.062401 0.875138
vt 0.687401 1.000139
vt 0.749901 1.000139
vt 0.562401 0.875138
vt 0.249901 1.000139
vt 0.437401 1.000139
vt -0.000099 0.875138
vn 0.1912 0.9815 0.0000
vn 0.1912 -0.9815 -0.0000
vn 0.1912 -0.0000 0.9815
vn 0.1912 0.0000 -0.9815
vn 1.0000 0.0000 0.0000
vn -1.0000 0.0000 0.0000
vn 0.0000 1.0000 0.0000
vn 0.0000 -1.0000 -0.0000
vn 0.0000 -0.0000 1.0000
vn 0.0000 0.0000 -1.0000
usemtl (null)
s off
f 2/1/1 4/2/1 1/3/1
f 6/4/2 8/5/2 5/6/2
f 1/3/3 7/7/3 2/1/3
f 3/8/4 5/9/4 4/10/4
f 2/1/5 6/11/5 3/8/5
f 4/12/6 8/13/6 1/3/6
f 10/14/7 12/15/7 9/16/7
f 14/17/8 16/18/8 13/19/8
f 9/16/9 15/20/9 10/14/9
f 11/21/10 13/22/10 12/23/10
f 10/14/5 14/24/5 11/21/5
f 12/25/6 16/26/6 9/16/6
f 2/1/1 3/27/1 4/2/1
f 6/4/2 7/28/2 8/5/2
f 1/3/3 8/13/3 7/7/3
f 3/8/4 6/11/4 5/9/4
f 2/1/5 7/7/5 6/11/5
f 4/12/6 5/29/6 8/13/6
f 10/14/7 11/30/7 12/15/7
f 14/17/8 15/31/8 16/18/8
f 9/16/9 16/26/9 15/20/9
f 11/21/10 14/24/10 13/22/10
f 10/14/5 15/20/5 14/24/5
f 12/25/6 13/32/6 16/26/6
