{"asset":{"version":"2.0","generator":"Blockbench 4.4.1 glTF exporter"},"scenes":[{"nodes":[13],"name":"blockbench_export"}],"scene":0,"nodes":[{"rotation":[0,0.7071067811865475,0,0.7071067811865476],"translation":[0.007453883495146751,-0.17332949029126643,-0.03434617611650559],"name":"knife.obj","mesh":0},{"translation":[-0.06944177593287709,0.31872341283308936,-0.6774502297725893],"name":"knife","children":[0]},{"rotation":[0,0.7071067811865475,0,0.7071067811865476],"translation":[-0.455929645298077,0.0025029786923076516,0.0004826648076915324],"name":"rightArmSlimModel","mesh":1},{"rotation":[0,0.7071067811865475,0,0.7071067811865476],"translation":[-0.455929645298077,0.0025029786923076516,0.0004826648076915324],"name":"rightArmModel","mesh":2},{"rotation":[0,0.7071067811865475,0,0.7071067811865476],"translation":[-0.455929645298077,0.0025029786923076516,0.0004826648076915324],"name":"rightArmLayerModel","mesh":3},{"rotation":[0,0.7071067811865475,0,0.7071067811865476],"translation":[-0.455929645298077,0.0025029786923076516,0.0004826648076915324],"name":"rightArmLayerSlimModel","mesh":4},{"translation":[0.455929692245193,-0.0025031421826922917,-0.00048273117307618546],"name":"rightarm","children":[1,2,3,4,5]},{"rotation":[0,0.7071067811865475,0,0.7071067811865476],"translation":[0.4559295125673074,-0.0025033056730769734,-0.0004827587019236926],"name":"leftArmSlimModel","mesh":5},{"rotation":[0,0.7071067811865475,0,0.7071067811865476],"translation":[0.4559295125673074,-0.0025033056730769734,-0.0004827587019236926],"name":"leftArmModel","mesh":6},{"rotation":[0,0.7071067811865475,0,0.7071067811865476],"translation":[0.4559295125673074,-0.0025033056730769734,-0.0004827587019236926],"name":"leftArmLayerModel","mesh":7},{"rotation":[0,0.7071067811865475,0,0.7071067811865476],"translation":[0.4559295125673074,-0.0025033056730769734,-0.0004827587019236926],"name":"leftArmLayerSlimModel","mesh":8},{"translation":[-0.45592946562019143,0.0025031421826923334,0.00048269233653903953],"name":"leftarm","children":[7,8,9,10]},{"translation":[-0.031791132331733196,-0.03325789200961549,0.02477932259615328],"name":"root","children":[6,11]},{"children":[12]}],"bufferViews":[{"buffer":0,"byteOffset":0,"byteLength":29664,"target":34962,"byteStride":12},{"buffer":0,"byteOffset":29664,"byteLength":29664,"target":34962,"byteStride":12},{"buffer":0,"byteOffset":59328,"byteLength":19776,"target":34962,"byteStride":8},{"buffer":0,"byteOffset":79104,"byteLength":7416,"target":34963},{"buffer":0,"byteOffset":86520,"byteLength":288,"target":34962,"byteStride":12},{"buffer":0,"byteOffset":86808,"byteLength":288,"target":34962,"byteStride":12},{"buffer":0,"byteOffset":87096,"byteLength":192,"target":34962,"byteStride":8},{"buffer":0,"byteOffset":87288,"byteLength":72,"target":34963},{"buffer":0,"byteOffset":87360,"byteLength":6144,"target":34962,"byteStride":12},{"buffer":0,"byteOffset":93504,"byteLength":6144,"target":34962,"byteStride":12},{"buffer":0,"byteOffset":99648,"byteLength":4096,"target":34962,"byteStride":8},{"buffer":0,"byteOffset":103744,"byteLength":1536,"target":34963},{"buffer":0,"byteOffset":105280,"byteLength":6144,"target":34962,"byteStride":12},{"buffer":0,"byteOffset":111424,"byteLength":6144,"target":34962,"byteStride":12},{"buffer":0,"byteOffset":117568,"byteLength":4096,"target":34962,"byteStride":8},{"buffer":0,"byteOffset":121664,"byteLength":1536,"target":34963},{"buffer":0,"byteOffset":123200,"byteLength":288,"target":34962,"byteStride":12},{"buffer":0,"byteOffset":123488,"byteLength":288,"target":34962,"byteStride":12},{"buffer":0,"byteOffset":123776,"byteLength":192,"target":34962,"byteStride":8},{"buffer":0,"byteOffset":123968,"byteLength":72,"target":34963},{"buffer":0,"byteOffset":124040,"byteLength":288,"target":34962,"byteStride":12},{"buffer":0,"byteOffset":124328,"byteLength":288,"target":34962,"byteStride":12},{"buffer":0,"byteOffset":124616,"byteLength":192,"target":34962,"byteStride":8},{"buffer":0,"byteOffset":124808,"byteLength":72,"target":34963},{"buffer":0,"byteOffset":124880,"byteLength":6144,"target":34962,"byteStride":12},{"buffer":0,"byteOffset":131024,"byteLength":6144,"target":34962,"byteStride":12},{"buffer":0,"byteOffset":137168,"byteLength":4096,"target":34962,"byteStride":8},{"buffer":0,"byteOffset":141264,"byteLength":1536,"target":34963},{"buffer":0,"byteOffset":142800,"byteLength":6144,"target":34962,"byteStride":12},{"buffer":0,"byteOffset":148944,"byteLength":6144,"target":34962,"byteStride":12},{"buffer":0,"byteOffset":155088,"byteLength":4096,"target":34962,"byteStride":8},{"buffer":0,"byteOffset":159184,"byteLength":1536,"target":34963},{"buffer":0,"byteOffset":160720,"byteLength":288,"target":34962,"byteStride":12},{"buffer":0,"byteOffset":161008,"byteLength":288,"target":34962,"byteStride":12},{"buffer":0,"byteOffset":161296,"byteLength":192,"target":34962,"byteStride":8},{"buffer":0,"byteOffset":161488,"byteLength":72,"target":34963},{"buffer":0,"byteOffset":161560,"byteLength":48},{"buffer":0,"byteOffset":161608,"byteLength":192},{"buffer":0,"byteOffset":161800,"byteLength":36},{"buffer":0,"byteOffset":161836,"byteLength":108},{"buffer":0,"byteOffset":161944,"byteLength":44},{"buffer":0,"byteOffset":161988,"byteLength":176},{"buffer":0,"byteOffset":162164,"byteLength":544},{"buffer":0,"byteOffset":162708,"byteLength":1632},{"buffer":0,"byteOffset":164340,"byteLength":532},{"buffer":0,"byteOffset":164872,"byteLength":2128},{"buffer":0,"byteOffset":167000,"byteLength":388},{"buffer":0,"byteOffset":167388,"byteLength":1164}],"buffers":[{"byteLength":168552,"uri":"data:application/octet-stream;base64,"}],"accessors":[{"bufferView":0,"componentType":5126,"count":2472,"max":[0.3096039295196533,1.2607057094573975,0.10243729501962662],"min":[-0.2461460530757904,-0.5561692714691162,-0.08993770182132721],"type":"VEC3"},{"bufferView":1,"componentType":5126,"count":2472,"max":[1,1,1],"min":[-1,-1,-1],"type":"VEC3"},{"bufferView":2,"componentType":5126,"count":2472,"max":[0.9960939884185791,0.9921879768371582],"min":[0.0039059999398887157,0.1796880066394806],"type":"VEC2"},{"bufferView":3,"componentType":5123,"count":3708,"max":[2471],"min":[0],"type":"SCALAR"},{"bufferView":4,"componentType":5126,"count":24,"max":[0.8264828324317932,0.19349703192710876,0.5765923261642456],"min":[-0.8535177111625671,-0.1985042244195938,0.2825920879840851],"type":"VEC3"},{"bufferView":5,"componentType":5126,"count":24,"max":[1,1,1],"min":[-1,-1,-1],"type":"VEC3"},{"bufferView":6,"componentType":5126,"count":24,"max":[0.84375,0.75],"min":[0.625,0.5],"type":"VEC2"},{"bufferView":7,"componentType":5123,"count":36,"max":[23],"min":[0],"type":"SCALAR"},{"bufferView":8,"componentType":5126,"count":512,"max":[0.8264827132225037,0.19349788129329681,0.6745921969413757],"min":[-0.8535172939300537,-0.19850310683250427,0.2825920879840851],"type":"VEC3"},{"bufferView":9,"componentType":5126,"count":512,"max":[1,1,1],"min":[-1,-1,-1],"type":"VEC3"},{"bufferView":10,"componentType":5126,"count":512,"max":[0.875,0.75],"min":[0.625,0.5],"type":"VEC2"},{"bufferView":11,"componentType":5123,"count":768,"max":[511],"min":[0],"type":"SCALAR"},{"bufferView":12,"componentType":5126,"count":512,"max":[0.8964825868606567,0.20329801738262177,0.6892920732498169],"min":[-0.8675172924995422,-0.2083028256893158,0.2776920795440674],"type":"VEC3"},{"bufferView":13,"componentType":5126,"count":512,"max":[1,1,1],"min":[-1,-1,-1],"type":"VEC3"},{"bufferView":14,"componentType":5126,"count":512,"max":[0.875,0.5],"min":[0.625,0.25],"type":"VEC2"},{"bufferView":15,"componentType":5123,"count":768,"max":[511],"min":[0],"type":"SCALAR"},{"bufferView":16,"componentType":5126,"count":24,"max":[0.8964827060699463,0.20329760015010834,0.586392343044281],"min":[-0.8675174117088318,-0.20830409228801727,0.2776920795440674],"type":"VEC3"},{"bufferView":17,"componentType":5126,"count":24,"max":[1,1,1],"min":[-1,-1,-1],"type":"VEC3"},{"bufferView":18,"componentType":5126,"count":24,"max":[0.84375,0.5],"min":[0.625,0.25],"type":"VEC2"},{"bufferView":19,"componentType":5123,"count":36,"max":[23],"min":[0],"type":"SCALAR"},{"bufferView":20,"componentType":5126,"count":24,"max":[0.8255175352096558,0.19850371778011322,-0.282591849565506],"min":[-0.8544830083847046,-0.1934976875782013,-0.576591968536377],"type":"VEC3"},{"bufferView":21,"componentType":5126,"count":24,"max":[1,1,1],"min":[-1,-1,-1],"type":"VEC3"},{"bufferView":22,"componentType":5126,"count":24,"max":[0.71875,0.25],"min":[0.5,0],"type":"VEC2"},{"bufferView":23,"componentType":5123,"count":36,"max":[23],"min":[0],"type":"SCALAR"},{"bufferView":24,"componentType":5126,"count":512,"max":[0.8255174160003662,0.1985040009021759,-0.2825919985771179],"min":[-0.8544827103614807,-0.19349698722362518,-0.6745922565460205],"type":"VEC3"},{"bufferView":25,"componentType":5126,"count":512,"max":[1,1,1],"min":[-1,-1,-1],"type":"VEC3"},{"bufferView":26,"componentType":5126,"count":512,"max":[0.75,0.25],"min":[0.5,0],"type":"VEC2"},{"bufferView":27,"componentType":5123,"count":768,"max":[511],"min":[0],"type":"SCALAR"},{"bufferView":28,"componentType":5126,"count":512,"max":[0.8955174088478088,0.20830413699150085,-0.2776918411254883],"min":[-0.8684827089309692,-0.2032969892024994,-0.6892924308776855],"type":"VEC3"},{"bufferView":29,"componentType":5126,"count":512,"max":[1,1,1],"min":[-1,-1,-1],"type":"VEC3"},{"bufferView":30,"componentType":5126,"count":512,"max":[1,0.25],"min":[0.75,0],"type":"VEC2"},{"bufferView":31,"componentType":5123,"count":768,"max":[511],"min":[0],"type":"SCALAR"},{"bufferView":32,"componentType":5126,"count":24,"max":[0.8955175280570984,0.20830398797988892,-0.27769169211387634],"min":[-0.8684830069541931,-0.20329782366752625,-0.5863922834396362],"type":"VEC3"},{"bufferView":33,"componentType":5126,"count":24,"max":[1,1,1],"min":[-1,-1,-1],"type":"VEC3"},{"bufferView":34,"componentType":5126,"count":24,"max":[0.96875,0.25],"min":[0.75,0],"type":"VEC2"},{"bufferView":35,"componentType":5123,"count":36,"max":[23],"min":[0],"type":"SCALAR"},{"bufferView":36,"componentType":5126,"count":12,"max":[7.375],"min":[0],"type":"SCALAR"},{"bufferView":37,"componentType":5126,"count":12,"max":[1,0,0,1],"min":[-1,0,0,-0.8767267465591431],"type":"VEC4"},{"bufferView":38,"componentType":5126,"count":9,"max":[7.375],"min":[0],"type":"SCALAR"},{"bufferView":39,"componentType":5126,"count":9,"max":[-0.06319177895784378,2.724973440170288,-0.6774502396583557],"min":[-0.0694417729973793,-0.3437765836715698,-0.6774502396583557],"type":"VEC3"},{"bufferView":40,"componentType":5126,"count":11,"max":[7.375],"min":[0],"type":"SCALAR"},{"bufferView":41,"componentType":5126,"count":11,"max":[0.07042819261550903,-0.10058187693357468,-0.16484840214252472,0.9786460995674133],"min":[0.07042819261550903,-0.10058187693357468,-0.16484840214252472,0.9786460995674133],"type":"VEC4"},{"bufferView":42,"componentType":5126,"count":136,"max":[8.208333015441895],"min":[0],"type":"SCALAR"},{"bufferView":43,"componentType":5126,"count":136,"max":[-0.6309294700622559,-0.07249686121940613,0.019232692196965218],"min":[-0.8413886427879333,-1.9474968910217285,-0.06201730668544769],"type":"VEC3"},{"bufferView":44,"componentType":5126,"count":133,"max":[8.208333015441895],"min":[0],"type":"SCALAR"},{"bufferView":45,"componentType":5126,"count":133,"max":[0.5028306841850281,0.3622962534427643,0.6279696822166443,1],"min":[-0.2718096971511841,-0.28999900817871094,-0.7142318487167358,0.4738413095474243],"type":"VEC4"},{"bufferView":46,"componentType":5126,"count":97,"max":[8.208333015441895],"min":[0],"type":"SCALAR"},{"bufferView":47,"componentType":5126,"count":97,"max":[0.8063926696777344,0.31918638944625854,0.005767268594354391],"min":[0.08393894881010056,-1.2462531328201294,-0.5173808932304382],"type":"VEC3"}],"materials":[{"pbrMetallicRoughness":{"metallicFactor":0,"roughnessFactor":1,"baseColorTexture":{"index":0}},"alphaMode":"MASK","alphaCutoff":0.05,"doubleSided":true},{"pbrMetallicRoughness":{"metallicFactor":0,"roughnessFactor":1},"alphaMode":"MASK","alphaCutoff":0.05,"doubleSided":true}],"textures":[{"sampler":0,"source":0,"name":"knife.obj.png"}],"samplers":[{"magFilter":9728,"minFilter":9728,"wrapS":33071,"wrapT":33071}],"images":[{"mimeType":"image/png","uri":"data:image/png;base64,"}],"meshes":[{"primitives":[{"mode":4,"attributes":{"POSITION":0,"NORMAL":1,"TEXCOORD_0":2},"indices":3,"material":0}]},{"primitives":[{"mode":4,"attributes":{"POSITION":4,"NORMAL":5,"TEXCOORD_0":6},"indices":7,"material":1}]},{"primitives":[{"mode":4,"attributes":{"POSITION":8,"NORMAL":9,"TEXCOORD_0":10},"indices":11,"material":1}]},{"primitives":[{"mode":4,"attributes":{"POSITION":12,"NORMAL":13,"TEXCOORD_0":14},"indices":15,"material":1}]},{"primitives":[{"mode":4,"attributes":{"POSITION":16,"NORMAL":17,"TEXCOORD_0":18},"indices":19,"material":1}]},{"primitives":[{"mode":4,"attributes":{"POSITION":20,"NORMAL":21,"TEXCOORD_0":22},"indices":23,"material":1}]},{"primitives":[{"mode":4,"attributes":{"POSITION":24,"NORMAL":25,"TEXCOORD_0":26},"indices":27,"material":1}]},{"primitives":[{"mode":4,"attributes":{"POSITION":28,"NORMAL":29,"TEXCOORD_0":30},"indices":31,"material":1}]},{"primitives":[{"mode":4,"attributes":{"POSITION":32,"NORMAL":33,"TEXCOORD_0":34},"indices":35,"material":1}]}],"animations":[{"name":"animation.animations","samplers":[{"input":36,"output":37,"interpolation":"LINEAR"},{"input":38,"output":39,"interpolation":"LINEAR"},{"input":40,"output":41,"interpolation":"LINEAR"},{"input":42,"output":43,"interpolation":"LINEAR"},{"input":44,"output":45,"interpolation":"LINEAR"},{"input":46,"output":47,"interpolation":"LINEAR"}],"channels":[{"sampler":0,"target":{"node":1,"path":"rotation"}},{"sampler":1,"target":{"node":1,"path":"translation"}},{"sampler":2,"target":{"node":11,"path":"rotation"}},{"sampler":3,"target":{"node":11,"path":"translation"}},{"sampler":4,"target":{"node":6,"path":"rotation"}},{"sampler":5,"target":{"node":6,"path":"translation"}}]}]}