# Blender v2.91.0 OBJ File: ''
# www.blender.org
mtllib ak47_suppressor.mtl
o attachmentModel
v 8.997574 0.456967 1.204393
v 8.161444 0.393760 0.808478
v 8.161444 0.557750 1.204393
v 8.997574 0.322495 0.879743
v 8.997574 0.456967 1.204393
v 8.997574 0.292509 0.909729
v 8.997574 0.322495 0.879743
v 8.997574 0.414563 1.204393
v 8.997574 0.292506 1.499057
v 8.997574 0.322492 1.529043
v 8.997574 -0.002158 1.621111
v 8.997574 -0.002158 1.663517
v 8.997574 0.322492 1.529043
v 8.161444 -0.002158 1.764300
v 8.997574 -0.002158 1.663517
v 8.997574 0.322492 1.529043
v 8.161444 0.557750 1.204393
v 8.161444 0.393757 1.600307
v 8.997574 0.456967 1.204393
v 5.917178 0.557750 1.204392
v 8.161444 0.393757 1.600307
v 8.161444 0.557750 1.204393
v 5.917178 0.393757 1.600306
v 5.917178 0.341978 1.548527
v 5.917178 0.393757 1.600306
v 5.917178 0.557750 1.204392
v 5.917178 -0.002158 1.691073
v 5.917178 -0.002158 1.764300
v 5.917178 -0.398072 1.600306
v 5.917178 -0.346293 1.548527
v 5.917178 -0.002158 1.691073
v 5.751823 -0.346293 1.548527
v 5.917178 -0.346293 1.548527
v 5.751823 -0.002158 1.691073
v 5.917178 0.341978 1.548527
v 5.751823 -0.002158 1.691073
v 5.917178 -0.002158 1.691073
v 5.751823 0.341978 1.548527
v 5.917178 0.341978 1.548527
v 5.751823 0.484523 1.204392
v 5.751823 0.341978 1.548527
v 5.917178 0.484523 1.204392
v 5.917178 0.484523 1.204392
v 5.917178 0.393760 0.808478
v 8.161444 0.557750 1.204393
v 5.917178 0.393760 0.808478
v 5.917178 0.557750 1.204392
v 8.161444 0.393760 0.808478
v 8.161444 0.557750 1.204393
v 8.161444 -0.398069 0.808478
v 8.161444 0.393760 0.808478
v 8.161444 -0.562065 1.204393
v 8.161444 0.393757 1.600307
v 8.161444 -0.398072 1.600307
v 8.161444 -0.002158 1.764300
v 5.917178 -0.398072 1.600306
v 8.161444 -0.562065 1.204393
v 8.161444 -0.398072 1.600307
v 5.917178 -0.562065 1.204392
v 5.917178 -0.562065 1.204392
v 5.917178 -0.488837 1.204392
v 5.751823 -0.346293 1.548527
v 5.917178 -0.488837 1.204392
v 5.917178 -0.346293 1.548527
v 5.751823 -0.488837 1.204392
v 5.751823 -0.346293 1.548527
v 5.751823 -0.562065 1.204392
v 5.751823 -0.488837 1.204392
v 5.751823 -0.398072 1.600306
v 5.751823 -0.002158 1.691073
v 5.751823 -0.002158 1.764300
v 5.751823 0.393757 1.600306
v 5.751823 0.341978 1.548527
v 5.751823 0.557750 1.204392
v 5.751823 0.484523 1.204392
v 5.751823 0.341981 0.860257
v 5.917178 0.484523 1.204392
v 5.751823 0.341981 0.860257
v 5.751823 0.484523 1.204392
v 5.917178 0.341981 0.860257
v 5.917178 0.341981 0.860257
v 5.917178 -0.002155 0.717711
v 5.917178 -0.002155 0.644485
v 5.917178 0.393760 0.808478
v 8.161444 -0.002155 0.644485
v 5.917178 -0.002155 0.644485
v 8.161444 0.393760 0.808478
v 8.997574 0.322495 0.879743
v 8.161444 -0.002155 0.644485
v 8.161444 0.393760 0.808478
v 8.997574 -0.002155 0.745269
v 8.997574 -0.002155 0.787675
v 8.997574 -0.002155 0.745269
v 10.251251 0.292509 0.909729
v 8.997574 -0.002155 0.787675
v 8.997574 0.292509 0.909729
v 9.751545 -0.002155 0.787675
v 10.251251 0.292509 0.909729
v 10.251251 -0.296819 0.909729
v 9.751545 -0.002155 0.787675
v 10.251251 0.292509 0.909729
v 10.251251 -0.002155 1.115456
v 10.251251 -0.296819 0.909729
v 10.251251 0.060734 1.141505
v 10.251251 0.414563 1.204393
v 10.251251 0.179234 1.204393
v 10.251251 0.086780 1.204393
v 10.251251 0.179234 1.204393
v 10.432652 0.086780 1.204393
v 10.251251 0.086780 1.204393
v 10.251251 0.179234 1.204393
v 10.432652 0.060731 1.267281
v 10.432652 0.086780 1.204393
v 10.251251 0.126106 1.332656
v 10.251251 0.126106 1.332656
v 10.251251 0.292506 1.499057
v 10.251251 -0.002158 1.385785
v 10.251251 -0.296822 1.499057
v 10.251251 -0.002158 1.621111
v 10.251251 0.292506 1.499057
v 8.997574 -0.002158 1.621111
v 10.251251 -0.002158 1.621111
v 8.997574 0.292506 1.499057
v 10.251251 0.292506 1.499057
v 8.997574 0.414563 1.204393
v 8.997574 0.292506 1.499057
v 10.251251 0.414563 1.204393
v 10.251251 0.414563 1.204393
v 8.997574 0.292509 0.909729
v 8.997574 0.414563 1.204393
v 10.251251 0.292509 0.909729
v 8.997574 -0.296822 1.499057
v 10.251251 -0.002158 1.621111
v 8.997574 -0.002158 1.621111
v 10.251251 -0.296822 1.499057
v 8.997574 -0.296822 1.499057
v 10.251251 -0.418875 1.204393
v 10.251251 -0.296822 1.499057
v 8.997574 -0.418875 1.204393
v 8.997574 -0.296822 1.499057
v 8.997574 -0.461281 1.204393
v 8.997574 -0.418875 1.204393
v 8.997574 -0.326807 1.529043
v 8.161444 -0.002158 1.764300
v 8.997574 -0.326807 1.529043
v 8.997574 -0.002158 1.663517
v 8.161444 -0.398072 1.600307
v 8.997574 -0.461281 1.204393
v 8.997574 -0.326807 1.529043
v 8.161444 -0.562065 1.204393
v 8.161444 -0.562065 1.204393
v 8.997574 -0.326804 0.879743
v 8.997574 -0.461281 1.204393
v 8.161444 -0.398069 0.808478
v 5.917178 -0.562065 1.204392
v 8.161444 -0.398069 0.808478
v 8.161444 -0.562065 1.204393
v 5.917178 -0.398069 0.808478
v 5.917178 -0.346290 0.860257
v 5.917178 -0.398069 0.808478
v 5.751823 -0.488837 1.204392
v 5.917178 -0.346290 0.860257
v 5.917178 -0.488837 1.204392
v 5.751823 -0.346290 0.860257
v 5.751823 -0.398069 0.808478
v 5.751823 -0.346290 0.860257
v 4.978507 -0.562065 1.204392
v 5.751823 -0.398069 0.808478
v 5.751823 -0.562065 1.204392
v 4.978507 -0.398069 0.808478
v 4.905227 -0.517272 1.204392
v 4.978507 -0.398069 0.808478
v 4.978507 -0.562065 1.204392
v 4.905227 -0.366396 0.840151
v 4.905227 -0.517272 1.204392
v 4.905227 -0.065043 1.141504
v 4.905227 -0.366396 0.840151
v 4.905227 -0.091094 1.204392
v 4.905227 -0.065046 1.267280
v 4.905227 -0.002158 1.293329
v 4.905227 -0.366399 1.568633
v 4.978507 -0.562065 1.204392
v 4.905227 -0.366399 1.568633
v 4.905227 -0.517272 1.204392
v 4.978507 -0.398072 1.600306
v 5.751823 -0.562065 1.204392
v 4.978507 -0.398072 1.600306
v 4.978507 -0.562065 1.204392
v 5.751823 -0.398072 1.600306
v 5.751823 0.393757 1.600306
v 4.978507 0.557750 1.204392
v 4.978507 0.393757 1.600306
v 5.751823 0.557750 1.204392
v 5.751823 0.557750 1.204392
v 4.978507 0.393760 0.808478
v 4.978507 0.557750 1.204392
v 5.751823 0.393760 0.808478
v 5.751823 0.393760 0.808478
v 5.751823 -0.002155 0.717711
v 5.751823 0.341981 0.860257
v 5.917178 -0.002155 0.717711
v 5.751823 -0.002155 0.717711
v 5.917178 0.341981 0.860257
v 5.917178 -0.346290 0.860257
v 5.751823 -0.002155 0.717711
v 5.917178 -0.002155 0.717711
v 5.751823 -0.346290 0.860257
v 5.751823 -0.002155 0.644485
v 5.751823 -0.398069 0.808478
v 4.978507 -0.002155 0.644484
v 5.751823 -0.002155 0.644485
v 4.978507 -0.398069 0.808478
v 4.905227 -0.366396 0.840151
v 4.978507 -0.002155 0.644484
v 4.978507 -0.398069 0.808478
v 4.905227 -0.002155 0.689277
v 4.905227 0.362087 0.840151
v 4.905227 -0.002155 0.689277
v 4.905227 -0.002155 1.115454
v 4.905227 -0.065043 1.141504
v 10.251251 -0.002155 1.115456
v 4.905227 -0.002155 1.115454
v 10.251251 -0.065043 1.141505
v 4.905227 -0.065043 1.141504
v 10.251251 -0.091094 1.204393
v 10.251251 -0.065043 1.141505
v 4.905227 -0.091094 1.204392
v 4.905227 -0.091094 1.204392
v 10.432652 -0.065046 1.267281
v 10.251251 -0.091094 1.204393
v 4.905227 -0.065046 1.267280
v 4.905227 -0.002158 1.293329
v 10.432652 -0.065046 1.267281
v 4.905227 -0.065046 1.267280
v 10.432652 -0.002158 1.293331
v 4.905227 0.060731 1.267280
v 10.432652 -0.002158 1.293331
v 4.905227 -0.002158 1.293329
v 10.432652 0.060731 1.267281
v 4.905227 0.060731 1.267280
v 10.251251 0.086780 1.204393
v 10.432652 0.060731 1.267281
v 4.905227 0.086780 1.204392
v 4.905227 0.060731 1.267280
v 4.905227 0.512959 1.204392
v 4.905227 0.086780 1.204392
v 4.905227 0.362084 1.568633
v 4.905227 -0.002158 1.719507
v 4.905227 -0.366399 1.568633
v 4.978507 -0.002158 1.764300
v 4.905227 -0.002158 1.719507
v 4.978507 -0.398072 1.600306
v 4.978507 0.393757 1.600306
v 4.905227 -0.002158 1.719507
v 4.978507 -0.002158 1.764300
v 4.905227 0.362084 1.568633
v 4.978507 0.393757 1.600306
v 4.905227 0.512959 1.204392
v 4.905227 0.362084 1.568633
v 4.978507 0.557750 1.204392
v 4.978507 0.557750 1.204392
v 4.905227 0.362087 0.840151
v 4.905227 0.512959 1.204392
v 4.978507 0.393760 0.808478
v 4.978507 -0.002155 0.644484
v 4.905227 0.362087 0.840151
v 4.978507 0.393760 0.808478
v 4.905227 -0.002155 0.689277
v 4.978507 0.393760 0.808478
v 5.751823 -0.002155 0.644485
v 4.978507 -0.002155 0.644484
v 5.751823 0.393760 0.808478
v 4.905227 0.060734 1.141504
v 4.905227 -0.002155 1.115454
v 10.251251 0.060734 1.141505
v 4.905227 0.060734 1.141504
v 10.251251 -0.002155 1.115456
v 10.251251 0.060734 1.141505
v 4.905227 0.086780 1.204392
v 4.905227 0.060734 1.141504
v 10.251251 0.086780 1.204393
v 10.432652 0.086780 1.204393
v 10.432652 0.060731 1.267281
v 10.251251 -0.002158 1.385785
v 10.432652 -0.002158 1.293331
v 10.251251 0.126106 1.332656
v 10.251251 -0.002158 1.385785
v 10.432652 -0.065046 1.267281
v 10.432652 -0.002158 1.293331
v 10.251251 -0.130421 1.332656
v 10.251251 -0.130421 1.332656
v 10.251251 -0.418875 1.204393
v 10.251251 -0.183549 1.204393
v 8.997574 -0.418875 1.204393
v 10.251251 -0.296819 0.909729
v 10.251251 -0.418875 1.204393
v 8.997574 -0.296819 0.909729
v 8.997574 -0.326804 0.879743
v 8.997574 -0.296819 0.909729
v 8.997574 -0.326804 0.879743
v 8.161444 -0.002155 0.644485
v 8.997574 -0.002155 0.745269
v 8.161444 -0.398069 0.808478
v 8.161444 -0.002155 0.644485
v 8.161444 -0.398069 0.808478
v 5.917178 -0.002155 0.644485
v 8.161444 -0.002155 0.644485
v 5.917178 -0.398069 0.808478
v 8.997574 -0.002155 0.787675
v 10.251251 -0.296819 0.909729
v 8.997574 -0.296819 0.909729
v 9.751545 -0.002155 0.787675
v 10.251251 -0.091094 1.204393
v 10.251251 -0.065043 1.141505
v 10.432652 -0.091094 1.204393
v 10.251251 -0.183549 1.204393
v 10.251251 -0.091094 1.204393
v 10.432652 -0.091094 1.204393
v 10.251251 -0.130421 1.332656
v 10.251251 -0.183549 1.204393
v 10.432652 -0.065046 1.267281
v 10.432652 -0.091094 1.204393
v 8.161444 0.393757 1.600307
v 8.161444 0.393757 1.600307
v 5.917178 -0.002158 1.764300
v 8.161444 -0.002158 1.764300
v 5.917178 0.393757 1.600306
v 5.917178 -0.398072 1.600306
v 8.161444 -0.398072 1.600307
v 8.161444 -0.398072 1.600307
v 5.751823 -0.002158 1.764300
v 4.978507 -0.398072 1.600306
v 5.751823 -0.398072 1.600306
v 4.978507 -0.002158 1.764300
v 5.751823 0.393757 1.600306
v 4.978507 0.393757 1.600306
vt 0.677689 0.792842
vt 0.826406 0.737572
vt 0.826406 0.798308
vt 0.677689 0.743038
vt 0.434540 0.642183
vt 0.482044 0.636630
vt 0.484344 0.642183
vt 0.436840 0.636630
vt 0.404876 0.604666
vt 0.399324 0.606966
vt 0.404876 0.559463
vt 0.399324 0.557163
vt 0.062461 0.687056
vt 0.211178 0.742326
vt 0.062461 0.736860
vt 0.212328 0.736860
vt 0.361046 0.681590
vt 0.361046 0.742326
vt 0.212328 0.687056
vt 0.461210 0.000575
vt 0.521946 0.398174
vt 0.461210 0.398174
vt 0.521946 0.000575
vt 0.199503 0.494461
vt 0.209091 0.498433
vt 0.166144 0.541380
vt 0.199503 0.441668
vt 0.209091 0.437696
vt 0.166144 0.394749
vt 0.162172 0.404338
vt 0.567920 0.482561
vt 0.620713 0.453267
vt 0.620713 0.482561
vt 0.567920 0.453267
vt 0.660630 0.777075
vt 0.631335 0.724282
vt 0.660630 0.724282
vt 0.631335 0.777075
vt 0.760781 0.568377
vt 0.790075 0.515584
vt 0.790075 0.568377
vt 0.760781 0.515584
vt 0.162172 0.531791
vt 0.105408 0.541380
vt 0.460060 0.398174
vt 0.399324 0.000575
vt 0.460060 0.000575
vt 0.399324 0.398174
vt 0.210241 0.350653
vt 0.356871 0.350653
vt 0.253188 0.393600
vt 0.356871 0.289916
vt 0.210241 0.289916
vt 0.313924 0.246969
vt 0.253188 0.246969
vt 0.000575 0.246969
vt 0.061311 0.644568
vt 0.000575 0.644568
vt 0.061311 0.246969
vt 0.105408 0.394749
vt 0.109379 0.404338
vt 0.567920 0.483711
vt 0.620713 0.513006
vt 0.567920 0.513006
vt 0.620713 0.483711
vt 0.199503 0.346681
vt 0.166144 0.393600
vt 0.162172 0.384011
vt 0.209091 0.350653
vt 0.199503 0.293888
vt 0.209091 0.289916
vt 0.166144 0.246969
vt 0.162172 0.256558
vt 0.105408 0.246969
vt 0.109379 0.256558
vt 0.072049 0.293888
vt 0.537476 0.452117
vt 0.566771 0.399324
vt 0.566771 0.452117
vt 0.537476 0.399324
vt 0.109379 0.531791
vt 0.072049 0.494461
vt 0.062461 0.498433
vt 0.398174 0.245820
vt 0.000575 0.185083
vt 0.398174 0.185083
vt 0.000575 0.245820
vt 0.399324 0.698603
vt 0.548041 0.643332
vt 0.548041 0.704069
vt 0.399324 0.648799
vt 0.514008 0.604666
vt 0.519560 0.606966
vt 0.062461 0.587733
vt 0.284566 0.542529
vt 0.284566 0.587733
vt 0.150990 0.542529
vt 0.836577 0.514434
vt 0.760781 0.479342
vt 0.836577 0.415032
vt 0.520710 0.553910
vt 0.563630 0.581335
vt 0.552674 0.631077
vt 0.563630 0.571688
vt 0.552674 0.521946
vt 0.565438 0.552760
vt 0.570452 0.564866
vt 0.370154 0.282825
vt 0.370154 0.317532
vt 0.358021 0.287773
vt 0.795123 0.673065
vt 0.760781 0.687727
vt 0.760781 0.678079
vt 0.795123 0.692742
vt 0.585114 0.552760
vt 0.597878 0.521946
vt 0.599028 0.566673
vt 0.629842 0.599114
vt 0.629842 0.553910
vt 0.631335 0.445935
vt 0.676539 0.223830
vt 0.676539 0.445935
vt 0.631335 0.223830
vt 0.630185 0.222680
vt 0.584982 0.000575
vt 0.630185 0.000575
vt 0.584982 0.222680
vt 0.676539 0.669189
vt 0.631335 0.447084
vt 0.676539 0.447085
vt 0.631335 0.669189
vt 0.284566 0.680440
vt 0.062461 0.635236
vt 0.284566 0.635236
vt 0.062461 0.680440
vt 0.584982 0.223830
vt 0.630185 0.445935
vt 0.584982 0.445935
vt 0.630185 0.223830
vt 0.436840 0.527499
vt 0.484344 0.521946
vt 0.482044 0.527499
vt 0.434540 0.521946
vt 0.548041 0.767104
vt 0.399324 0.822375
vt 0.399324 0.772571
vt 0.361046 0.743475
vt 0.212328 0.798746
vt 0.212328 0.748942
vt 0.361046 0.804212
vt 0.548041 0.705218
vt 0.399324 0.760489
vt 0.399324 0.710685
vt 0.548041 0.765955
vt 0.523096 0.000575
vt 0.583832 0.398174
vt 0.523096 0.398174
vt 0.583832 0.000575
vt 0.072049 0.441668
vt 0.062461 0.437696
vt 0.621898 0.799674
vt 0.569105 0.770380
vt 0.621898 0.770380
vt 0.569105 0.799674
vt 0.105408 0.393600
vt 0.109379 0.384011
vt 0.821517 0.413882
vt 0.760781 0.276880
vt 0.821517 0.276880
vt 0.760781 0.413882
vt 0.346290 0.514942
vt 0.360536 0.456635
vt 0.360537 0.517372
vt 0.346290 0.459065
vt 0.305630 0.394750
vt 0.272867 0.450554
vt 0.249752 0.394749
vt 0.282515 0.450554
vt 0.289336 0.457376
vt 0.289336 0.467023
vt 0.345141 0.434261
vt 0.775027 0.569527
vt 0.760781 0.627833
vt 0.760781 0.571956
vt 0.775027 0.630263
vt 0.821517 0.137578
vt 0.760781 0.000575
vt 0.821517 0.000575
vt 0.760781 0.137578
vt 0.061311 0.782721
vt 0.000575 0.645718
vt 0.061311 0.645718
vt 0.000575 0.782721
vt 0.629842 0.769230
vt 0.569105 0.632227
vt 0.629842 0.632227
vt 0.569105 0.769230
vt 0.062461 0.289916
vt 0.072049 0.346681
vt 0.566771 0.506060
vt 0.537476 0.453267
vt 0.566771 0.453267
vt 0.537476 0.506060
vt 0.631335 0.670339
vt 0.660630 0.723132
vt 0.631335 0.723132
vt 0.660630 0.670339
vt 0.062461 0.350653
vt 0.821517 0.138727
vt 0.760781 0.275730
vt 0.760781 0.138727
vt 0.821517 0.275730
vt 0.661780 0.728646
vt 0.676026 0.670339
vt 0.676026 0.731075
vt 0.661780 0.672769
vt 0.210241 0.490138
vt 0.210241 0.434261
vt 0.266045 0.457375
vt 0.719447 0.724147
vt 0.732075 0.000667
vt 0.732075 0.724239
vt 0.719447 0.000575
vt 0.733224 0.000648
vt 0.745853 0.724129
vt 0.733224 0.724201
vt 0.745853 0.000575
vt 0.371447 0.247046
vt 0.384324 0.984752
vt 0.371447 0.960618
vt 0.384324 0.246969
vt 0.704519 0.000672
vt 0.691679 0.736324
vt 0.691679 0.000575
vt 0.704519 0.736422
vt 0.690529 0.000672
vt 0.677689 0.736324
vt 0.677689 0.000575
vt 0.690529 0.736422
vt 0.385476 0.247046
vt 0.398174 0.957117
vt 0.385473 0.999425
vt 0.397871 0.246969
vt 0.282515 0.473845
vt 0.249752 0.529649
vt 0.272867 0.473845
vt 0.305629 0.529649
vt 0.345141 0.490138
vt 0.553710 0.634656
vt 0.567956 0.692963
vt 0.553710 0.690534
vt 0.567956 0.632227
vt 0.361847 0.603266
vt 0.347601 0.544959
vt 0.361847 0.542529
vt 0.347601 0.600836
vt 0.346290 0.455486
vt 0.360537 0.397179
vt 0.360537 0.453056
vt 0.346290 0.394749
vt 0.567956 0.694113
vt 0.553710 0.752420
vt 0.553710 0.696542
vt 0.567956 0.754849
vt 0.361847 0.665152
vt 0.347601 0.606845
vt 0.361847 0.604415
vt 0.347601 0.662722
vt 0.285715 0.679532
vt 0.346452 0.542529
vt 0.346452 0.679532
vt 0.285715 0.542529
vt 0.266045 0.467023
vt 0.718297 0.000667
vt 0.705669 0.724148
vt 0.705669 0.000575
vt 0.718297 0.724239
vt 0.747003 0.000648
vt 0.759631 0.724128
vt 0.747003 0.724201
vt 0.759631 0.000575
vt 0.398174 0.999425
vt 0.760781 0.636427
vt 0.795123 0.651089
vt 0.760781 0.646074
vt 0.795123 0.631413
vt 0.795123 0.693891
vt 0.760781 0.708553
vt 0.760781 0.698906
vt 0.795123 0.713568
vt 0.599028 0.586350
vt 0.597878 0.631077
vt 0.585114 0.600263
vt 0.631335 0.000575
vt 0.676539 0.222680
vt 0.631335 0.222680
vt 0.676539 0.000575
vt 0.519560 0.557163
vt 0.514008 0.559463
vt 0.062461 0.748942
vt 0.211178 0.804212
vt 0.062461 0.798745
vt 0.211178 0.743475
vt 0.313924 0.393600
vt 0.000575 0.123197
vt 0.398174 0.183934
vt 0.000575 0.183934
vt 0.398174 0.123197
vt 0.284566 0.634086
vt 0.062461 0.588883
vt 0.284566 0.588883
vt 0.150990 0.634086
vt 0.580100 0.588157
vt 0.570452 0.588157
vt 0.370154 0.246969
vt 0.370154 0.281676
vt 0.358021 0.276728
vt 0.760781 0.666901
vt 0.795123 0.652239
vt 0.795123 0.671915
vt 0.760781 0.657253
vt 0.376613 0.986303
vt 0.211178 0.681590
vt 0.000575 0.000575
vt 0.398174 0.061311
vt 0.000575 0.061311
vt 0.398174 0.000575
vt 0.398174 0.122048
vt 0.000575 0.122048
vt 0.548041 0.827841
vt 0.399324 0.460060
vt 0.536326 0.520796
vt 0.399324 0.520796
vt 0.536326 0.460060
vt 0.399324 0.399324
vt 0.536326 0.399324
vn 0.1107 0.9182 -0.3803
vn 1.0000 -0.0000 0.0000
vn 0.1107 0.3803 0.9182
vn 0.1107 0.9182 0.3803
vn -0.0000 0.9239 0.3827
vn -1.0000 0.0000 0.0000
vn 0.0000 -0.3827 0.9239
vn 0.0000 0.3827 0.9239
vn 0.0000 0.9239 -0.3827
vn -0.0000 -0.9239 0.3827
vn 0.0000 0.3827 -0.9239
vn 0.1107 0.3803 -0.9182
vn 0.2373 0.0000 -0.9714
vn 0.0000 0.0000 -1.0000
vn 0.4260 0.8359 0.3462
vn 0.1107 -0.3803 0.9182
vn 0.1107 -0.9182 0.3803
vn 0.1107 -0.9182 -0.3803
vn 0.0000 -0.9239 -0.3827
vn -0.4917 -0.8045 -0.3332
vn -0.4917 -0.8045 0.3332
vn 0.0000 -0.3827 -0.9239
vn -0.4917 -0.3332 -0.8045
vn -0.4917 -0.3332 0.8045
vn -0.4917 0.3332 0.8045
vn -0.4917 0.8045 0.3332
vn -0.4917 0.8045 -0.3332
vn -0.4917 0.3332 -0.8045
vn -0.0000 -0.9239 0.3826
vn 0.4260 0.3462 0.8358
vn 0.4260 0.3462 0.8359
vn 0.4260 -0.3462 0.8358
vn 0.1107 -0.3803 -0.9182
vn 0.4260 -0.8359 0.3462
vn -0.0000 0.1370 0.9906
vn -0.0000 -0.1370 0.9906
vn -0.0001 -0.1373 0.9905
vn -0.0000 0.1373 0.9905
usemtl (null).009
s off
f 1/1/1 2/2/1 3/3/1
f 2/2/1 1/1/1 4/4/1
f 5/5/2 6/6/2 7/7/2
f 5/5/2 8/8/2 6/6/2
f 5/5/2 9/9/2 8/8/2
f 10/10/2 9/9/2 5/5/2
f 10/10/2 11/11/2 9/9/2
f 11/11/2 10/10/2 12/12/2
f 13/13/3 14/14/3 15/15/3
f 16/16/4 17/17/4 18/18/4
f 17/17/4 16/16/4 19/19/4
f 20/20/5 21/21/5 22/22/5
f 21/21/5 20/20/5 23/23/5
f 24/24/6 25/25/6 26/26/6
f 27/27/6 25/25/6 24/24/6
f 25/25/6 27/27/6 28/28/6
f 27/27/6 29/29/6 28/28/6
f 29/29/6 27/27/6 30/30/6
f 31/31/7 32/32/7 33/33/7
f 32/32/7 31/31/7 34/34/7
f 35/35/8 36/36/8 37/37/8
f 36/36/8 35/35/8 38/38/8
f 39/39/5 40/40/5 41/41/5
f 40/40/5 39/39/5 42/42/5
f 24/24/6 26/26/6 43/43/6
f 43/43/6 26/26/6 44/44/6
f 45/45/9 46/46/9 47/47/9
f 46/46/9 45/45/9 48/48/9
f 49/49/2 50/50/2 51/51/2
f 49/49/2 52/52/2 50/50/2
f 53/53/2 52/52/2 49/49/2
f 53/53/2 54/54/2 52/52/2
f 54/54/2 53/53/2 55/55/2
f 56/56/10 57/57/10 58/58/10
f 57/57/10 56/56/10 59/59/10
f 29/29/6 30/30/6 60/60/6
f 60/60/6 30/30/6 61/61/6
f 62/62/10 63/63/10 64/64/10
f 63/63/10 62/62/10 65/65/10
f 66/66/2 67/67/2 68/68/2
f 66/66/2 69/69/2 67/67/2
f 70/70/2 69/69/2 66/66/2
f 69/69/2 70/70/2 71/71/2
f 70/70/2 72/72/2 71/71/2
f 72/72/2 70/70/2 73/73/2
f 72/72/2 73/73/2 74/74/2
f 74/74/2 73/73/2 75/75/2
f 74/74/2 75/75/2 76/76/2
f 77/77/9 78/78/9 79/79/9
f 78/78/9 77/77/9 80/80/9
f 43/43/6 44/44/6 81/81/6
f 81/81/6 44/44/6 82/82/6
f 82/82/6 44/44/6 83/83/6
f 84/84/11 85/85/11 86/86/11
f 85/85/11 84/84/11 87/87/11
f 88/88/12 89/89/12 90/90/12
f 89/89/12 88/88/12 91/91/12
f 7/7/2 92/92/2 93/93/2
f 7/7/2 6/6/2 92/92/2
f 94/94/11 95/95/11 96/96/11
f 95/95/11 94/94/11 97/97/11
f 98/98/13 99/99/13 100/100/13
f 101/101/2 102/102/2 103/103/2
f 101/101/2 104/104/2 102/102/2
f 105/105/2 104/104/2 101/101/2
f 106/106/2 104/104/2 105/105/2
f 104/104/2 106/106/2 107/107/2
f 108/108/14 109/109/14 110/110/14
f 111/111/15 112/112/15 113/113/15
f 112/112/15 111/111/15 114/114/15
f 105/105/2 115/115/2 106/106/2
f 116/116/2 115/115/2 105/105/2
f 115/115/2 116/116/2 117/117/2
f 116/116/2 118/118/2 117/117/2
f 118/118/2 116/116/2 119/119/2
f 120/120/8 121/121/8 122/122/8
f 121/121/8 120/120/8 123/123/8
f 124/124/5 125/125/5 126/126/5
f 125/125/5 124/124/5 127/127/5
f 128/128/9 129/129/9 130/130/9
f 129/129/9 128/128/9 131/131/9
f 132/132/7 133/133/7 134/134/7
f 133/133/7 132/132/7 135/135/7
f 136/136/10 137/137/10 138/138/10
f 137/137/10 136/136/10 139/139/10
f 140/140/2 141/141/2 142/142/2
f 140/140/2 143/143/2 141/141/2
f 11/11/2 143/143/2 140/140/2
f 143/143/2 11/11/2 12/12/2
f 144/144/16 145/145/16 146/146/16
f 147/147/17 148/148/17 149/149/17
f 148/148/17 147/147/17 150/150/17
f 151/151/18 152/152/18 153/153/18
f 152/152/18 151/151/18 154/154/18
f 155/155/19 156/156/19 157/157/19
f 156/156/19 155/155/19 158/158/19
f 60/60/6 159/159/6 160/160/6
f 60/60/6 61/61/6 159/159/6
f 161/161/19 162/162/19 163/163/19
f 162/162/19 161/161/19 164/164/19
f 68/68/2 165/165/2 166/166/2
f 68/68/2 67/67/2 165/165/2
f 167/167/19 168/168/19 169/169/19
f 168/168/19 167/167/19 170/170/19
f 171/171/20 172/172/20 173/173/20
f 172/172/20 171/171/20 174/174/20
f 175/175/6 176/176/6 177/177/6
f 175/175/6 178/178/6 176/176/6
f 175/175/6 179/179/6 178/178/6
f 175/175/6 180/180/6 179/179/6
f 180/180/6 175/175/6 181/181/6
f 182/182/21 183/183/21 184/184/21
f 183/183/21 182/182/21 185/185/21
f 186/186/10 187/187/10 188/188/10
f 187/187/10 186/186/10 189/189/10
f 190/190/5 191/191/5 192/192/5
f 191/191/5 190/190/5 193/193/5
f 194/194/9 195/195/9 196/196/9
f 195/195/9 194/194/9 197/197/9
f 74/74/2 76/76/2 198/198/2
f 198/198/2 76/76/2 199/199/2
f 200/200/11 201/201/11 202/202/11
f 201/201/11 200/200/11 203/203/11
f 204/204/22 205/205/22 206/206/22
f 205/205/22 204/204/22 207/207/22
f 166/166/2 165/165/2 199/199/2
f 199/199/2 165/165/2 208/208/2
f 209/209/22 210/210/22 211/211/22
f 210/210/22 209/209/22 212/212/22
f 213/213/23 214/214/23 215/215/23
f 214/214/23 213/213/23 216/216/23
f 177/177/6 217/217/6 218/218/6
f 177/177/6 219/219/6 217/217/6
f 177/177/6 176/176/6 219/219/6
f 220/220/8 221/221/8 222/222/8
f 221/221/8 220/220/8 223/223/8
f 224/224/5 225/225/5 226/226/5
f 225/225/5 224/224/5 227/227/5
f 228/228/9 229/229/9 230/230/9
f 229/229/9 228/228/9 231/231/9
f 232/232/11 233/233/11 234/234/11
f 233/233/11 232/232/11 235/235/11
f 236/236/22 237/237/22 238/238/22
f 237/237/22 236/236/22 239/239/22
f 240/240/19 241/241/19 242/242/19
f 241/241/19 240/240/19 243/243/19
f 244/244/6 245/245/6 246/246/6
f 180/180/6 245/245/6 244/244/6
f 181/181/6 245/245/6 180/180/6
f 181/181/6 247/247/6 245/245/6
f 247/247/6 181/181/6 248/248/6
f 249/249/24 250/250/24 251/251/24
f 250/250/24 249/249/24 252/252/24
f 253/253/25 254/254/25 255/255/25
f 254/254/25 253/253/25 256/256/25
f 257/257/26 258/258/26 259/259/26
f 258/258/26 257/257/26 260/260/26
f 261/261/27 262/262/27 263/263/27
f 262/262/27 261/261/27 264/264/27
f 265/265/28 266/266/28 267/267/28
f 266/266/28 265/265/28 268/268/28
f 269/269/11 270/270/11 271/271/11
f 270/270/11 269/269/11 272/272/11
f 198/198/2 199/199/2 208/208/2
f 246/246/6 245/245/6 217/217/6
f 246/246/6 217/217/6 273/273/6
f 273/273/6 217/217/6 219/219/6
f 274/274/7 275/275/7 276/276/7
f 275/275/7 274/274/7 277/277/7
f 278/278/29 279/279/29 280/280/29
f 279/279/29 278/278/29 281/281/29
f 242/242/19 241/241/19 282/282/19
f 283/283/30 284/284/30 285/285/30
f 284/284/31 283/283/31 286/286/31
f 287/287/32 288/288/32 289/289/32
f 288/288/32 287/287/32 290/290/32
f 117/117/2 118/118/2 291/291/2
f 291/291/2 118/118/2 292/292/2
f 291/291/2 292/292/2 293/293/2
f 293/293/2 292/292/2 103/103/2
f 294/294/19 295/295/19 296/296/19
f 295/295/19 294/294/19 297/297/19
f 142/142/2 298/298/2 299/299/2
f 142/142/2 141/141/2 298/298/2
f 299/299/2 298/298/2 92/92/2
f 92/92/2 298/298/2 93/93/2
f 300/300/33 301/301/33 302/302/33
f 301/301/33 300/300/33 303/303/33
f 51/51/2 50/50/2 304/304/2
f 305/305/22 306/306/22 307/307/22
f 306/306/22 305/305/22 308/308/22
f 160/160/6 82/82/6 83/83/6
f 160/160/6 159/159/6 82/82/6
f 309/309/22 310/310/22 311/311/22
f 310/310/22 309/309/22 312/312/22
f 293/293/2 103/103/2 313/313/2
f 313/313/2 103/103/2 314/314/2
f 314/314/2 103/103/2 102/102/2
f 315/315/14 316/316/14 317/317/14
f 318/318/34 319/319/34 320/320/34
f 319/319/34 318/318/34 321/321/34
f 230/230/9 229/229/9 322/322/9
s 1
f 14/14/3 13/13/3 323/323/3
f 324/324/8 325/325/35 326/326/36
f 325/325/35 324/324/8 327/327/8
f 328/328/7 326/326/36 325/325/35
f 326/326/36 328/328/7 329/329/7
f 145/145/16 144/144/16 330/330/16
f 331/331/37 332/332/7 333/333/7
f 332/332/7 331/331/37 334/334/38
f 335/335/8 334/334/38 331/331/37
f 334/334/38 335/335/8 336/336/8
