# Blender v3.2.2 OBJ File: ''
# www.blender.org
mtllib tcp._45_shell.mtl
o shellModel
v 0.805551 0.086694 -0.150160
v 0.116250 -0.086695 -0.150159
v 0.116250 0.086694 -0.150159
v 0.805551 -0.086695 -0.150160
v 0.116250 -0.173389 -0.000000
v 0.805552 -0.173389 -0.000000
v 0.116250 -0.086695 0.150160
v 0.805552 -0.086695 0.150159
v 0.116251 0.086694 0.150160
v 0.805551 0.086694 0.150159
v 0.805551 0.077535 -0.134295
v 0.805551 -0.077536 -0.134295
v 0.805551 -0.155071 -0.000000
v 0.805552 -0.077536 0.134295
v 0.805551 0.155071 0.000000
v 0.805551 0.077535 0.134295
v 0.805551 0.173389 0.000000
v 0.116250 0.173389 0.000000
v 0.084124 0.135829 0.000000
v 0.084124 0.067914 0.117631
v 0.084123 -0.135829 -0.000000
v 0.038404 -0.067915 0.117631
v 0.038404 -0.135829 -0.000000
v 0.084124 -0.067915 0.117631
v 0.084123 0.067914 -0.117631
v 0.084123 -0.067915 -0.117631
v 0.038405 -0.067915 -0.117631
v 0.038404 -0.180678 -0.000000
v 0.038405 -0.090339 -0.156471
v 0.038405 0.135829 0.000000
v 0.038405 0.090338 0.156471
v 0.038405 0.067914 0.117631
v 0.038404 -0.090339 0.156471
v 0.038405 0.090338 -0.156471
v 0.038405 0.067914 -0.117631
v 0.038405 0.180677 0.000000
v 0.018634 0.090338 -0.156471
v 0.018634 -0.090339 -0.156471
v 0.018634 0.180677 0.000000
v 0.000099 0.073756 0.127750
v 0.018634 0.090338 0.156471
v 0.000099 0.147513 0.000000
v 0.018634 -0.090339 0.156471
v 0.018634 -0.180678 -0.000000
v 0.000099 0.038202 -0.066169
v 0.000099 0.076405 0.000000
v 0.000099 -0.038203 0.066169
v 0.000099 -0.073757 0.127750
v 0.000099 -0.147513 -0.000000
v 0.000099 -0.038203 -0.066169
v 0.000099 -0.073757 -0.127750
v 0.000099 0.038202 0.066169
v 0.000099 -0.076405 -0.000000
v 0.000099 0.073756 -0.127750
v 0.017978 0.038202 0.066169
v 0.017978 0.076405 0.000000
v 0.017978 0.038202 -0.066169
v 0.017978 0.069528 0.000000
v 0.017978 -0.034764 0.060213
v 0.017978 -0.038203 0.066169
v 0.017978 -0.076405 -0.000000
v 0.017978 -0.034764 -0.060213
v 0.017978 -0.038203 -0.066169
v 0.017978 0.034764 0.060213
v 0.017978 -0.069528 -0.000000
v 0.017978 0.034764 -0.060213
v 0.296138 0.155071 0.000000
v 0.296138 0.077535 -0.134295
v 0.296138 -0.077536 0.134295
v 0.296138 0.077535 0.134295
v 0.296138 -0.077536 -0.134295
v 0.296138 -0.155071 -0.000000
v -0.000198 0.034764 0.060213
v -0.000198 0.069528 0.000000
v -0.000198 -0.034764 -0.060213
v -0.000198 0.034764 -0.060213
v -0.000198 -0.069528 -0.000000
v -0.000198 -0.034764 0.060213
vt 0.897675 0.657531
vt 0.905521 0.720321
vt 0.897675 0.719873
vt 0.905521 0.657979
vt 0.921211 0.720321
vt 0.921211 0.657979
vt 0.929056 0.719873
vt 0.929056 0.657531
vt 0.357765 0.930855
vt 0.420555 0.923010
vt 0.420107 0.930855
vt 0.358213 0.923010
vt 0.439373 0.955885
vt 0.445555 0.969475
vt 0.438544 0.957320
vt 0.415832 0.969464
vt 0.424511 0.957315
vt 0.417490 0.969465
vt 0.447213 0.969476
vt 0.438534 0.981625
vt 0.423672 0.983055
vt 0.424502 0.981620
vt 0.423683 0.955879
vt 0.439363 0.983061
vt 0.358213 0.907319
vt 0.420555 0.907319
vt 0.420107 0.899474
vt 0.357765 0.899474
vt 0.695957 0.969471
vt 0.705497 0.958823
vt 0.699356 0.969470
vt 0.703797 0.955880
vt 0.892770 0.607709
vt 0.888986 0.613854
vt 0.888635 0.607709
vt 0.893121 0.613854
vt 0.727337 0.969460
vt 0.717789 0.958818
vt 0.719487 0.955874
vt 0.723938 0.969461
vt 0.719497 0.983051
vt 0.705505 0.980112
vt 0.717797 0.980108
vt 0.703807 0.983057
vt 0.952930 0.965332
vt 0.957044 0.979492
vt 0.948871 0.965331
vt 0.971369 0.954690
vt 0.981571 0.965337
vt 0.977513 0.965336
vt 0.959074 0.975978
vt 0.973394 0.979495
vt 0.957049 0.951173
vt 0.959078 0.954688
vt 0.973399 0.951176
vt 0.971365 0.975980
vt 0.892770 0.595417
vt 0.888986 0.589271
vt 0.893121 0.589271
vt 0.888635 0.595417
vt 0.957895 0.391500
vt 0.954111 0.397646
vt 0.953760 0.391500
vt 0.958246 0.397646
vt 0.957895 0.379209
vt 0.954111 0.373063
vt 0.958246 0.373063
vt 0.953760 0.379209
vt 0.140938 0.265993
vt 0.142259 0.274168
vt 0.140471 0.274168
vt 0.142726 0.265993
vt 0.246116 0.951175
vt 0.231267 0.953772
vt 0.229767 0.951172
vt 0.244615 0.953774
vt 0.763757 0.204888
vt 0.762436 0.213063
vt 0.761969 0.204888
vt 0.764224 0.213063
vt 0.763757 0.188538
vt 0.762436 0.180363
vt 0.764224 0.180363
vt 0.761969 0.188538
vt 0.142726 0.249643
vt 0.140938 0.249643
vt 0.140471 0.241468
vt 0.142259 0.241468
vt 0.244853 0.965334
vt 0.241397 0.959346
vt 0.231025 0.965332
vt 0.224590 0.965331
vt 0.231262 0.976892
vt 0.241395 0.971321
vt 0.244611 0.976895
vt 0.234483 0.959345
vt 0.234481 0.971320
vt 0.251288 0.965336
vt 0.221589 0.965330
vt 0.229761 0.979491
vt 0.246111 0.979494
vt 0.254289 0.965336
vt 0.024065 0.489325
vt 0.025682 0.496239
vt 0.024065 0.496239
vt 0.025682 0.489325
vt 0.301731 0.608351
vt 0.296283 0.612119
vt 0.295744 0.611808
vt 0.295744 0.618722
vt 0.301731 0.621557
vt 0.301731 0.622179
vt 0.307719 0.618722
vt 0.307180 0.612119
vt 0.307719 0.611808
vt 0.296283 0.618411
vt 0.307180 0.618411
vt 0.301731 0.608973
vt 0.037061 0.528476
vt 0.040518 0.529896
vt 0.037061 0.530093
vt 0.040518 0.528279
vt 0.030147 0.528476
vt 0.026690 0.529896
vt 0.026690 0.528279
vt 0.030147 0.530093
vt 0.023868 0.485868
vt 0.025485 0.485868
vt 0.023868 0.499696
vt 0.025485 0.499696
vt 0.768106 0.953387
vt 0.813778 0.946371
vt 0.814179 0.953387
vt 0.767705 0.946371
vt 0.767705 0.932338
vt 0.814179 0.925322
vt 0.813778 0.932338
vt 0.768106 0.925322
vt 0.913977 0.932342
vt 0.867904 0.946375
vt 0.867904 0.932342
vt 0.913977 0.946375
vt 0.867503 0.925326
vt 0.913576 0.925326
vt 0.913576 0.953391
vt 0.719659 0.586960
vt 0.718015 0.580668
vt 0.719659 0.580668
vt 0.718015 0.586960
vt 0.556989 0.951177
vt 0.560141 0.956622
vt 0.550709 0.962082
vt 0.557001 0.962075
vt 0.547557 0.956636
vt 0.550697 0.951184
vt 0.536036 0.499445
vt 0.539182 0.497621
vt 0.539182 0.499265
vt 0.536036 0.497801
vt 0.548620 0.499445
vt 0.545474 0.497621
vt 0.548620 0.497801
vt 0.545474 0.499265
vt 0.718195 0.590106
vt 0.719839 0.590106
vt 0.718195 0.577522
vt 0.719839 0.577522
vt 0.867503 0.953391
vn -0.0000 0.0000 -1.0000
vn -0.0000 -0.8660 -0.5000
vn 0.0000 -0.8660 0.5000
vn 0.0000 -0.0000 1.0000
vn 1.0000 0.0000 -0.0000
vn 1.0000 0.0001 0.0000
vn 0.0000 0.8660 0.5000
vn -0.0000 0.8660 -0.5000
vn -0.7115 0.6086 0.3514
vn -0.7115 0.0000 -0.7027
vn -0.7115 -0.6086 0.3514
vn -0.7115 -0.6086 0.3513
vn -0.7115 0.6086 -0.3514
vn -0.7115 0.0000 0.7027
vn -0.7115 -0.6086 -0.3514
vn -0.8402 0.4696 0.2711
vn -1.0000 -0.0000 0.0000
vn -0.8402 -0.4696 0.2711
vn -0.8402 0.0000 -0.5422
vn -0.8402 0.4696 -0.2711
vn -0.8402 -0.0000 0.5422
vn -0.8402 -0.4696 -0.2711
usemtl main
s 1
f 1/1/1 2/2/1 3/3/1
f 1/1/1 4/4/1 2/2/1
s 2
f 4/4/2 5/5/2 2/2/2
f 4/4/2 6/6/2 5/5/2
s 3
f 6/6/3 7/7/3 5/5/3
f 6/6/3 8/8/3 7/7/3
s 4
f 8/9/4 9/10/4 7/11/4
f 8/9/4 10/12/4 9/10/4
s 5
f 4/13/5 11/14/5 12/15/5
f 8/16/5 13/17/6 14/18/5
f 1/19/5 15/20/5 11/14/5
f 10/21/5 14/18/5 16/22/5
f 6/23/6 12/15/5 13/17/6
f 10/21/5 15/20/5 17/24/5
f 4/13/5 1/19/5 11/14/5
f 8/16/5 6/23/6 13/17/6
f 1/19/5 17/24/5 15/20/5
f 10/21/5 8/16/5 14/18/5
f 6/23/6 4/13/5 12/15/5
f 10/21/5 16/22/5 15/20/5
s 6
f 9/10/7 17/25/7 18/26/7
f 9/10/7 10/12/7 17/25/7
s 7
f 17/25/8 3/27/8 18/26/8
f 17/25/8 1/28/8 3/27/8
s 8
f 9/29/9 19/30/9 20/31/9
f 9/29/9 18/32/9 19/30/9
s 9
f 21/33/3 22/34/3 23/35/3
f 21/33/3 24/36/3 22/34/3
s 10
f 2/37/10 25/38/10 3/39/10
f 2/37/10 26/40/10 25/38/10
s 11
f 5/41/11 24/42/12 21/43/11
f 5/41/11 7/44/12 24/42/12
s 12
f 3/39/13 19/30/13 18/32/13
f 3/39/13 25/38/13 19/30/13
s 13
f 9/29/14 24/42/14 7/44/14
f 9/29/14 20/31/14 24/42/14
s 14
f 5/41/15 26/40/15 2/37/15
f 5/41/15 21/43/15 26/40/15
s 15
f 27/45/5 28/46/5 29/47/5
f 30/48/5 31/49/5 32/50/5
f 23/51/5 33/52/5 28/46/5
f 27/45/5 34/53/5 35/54/5
f 35/54/5 36/55/5 30/48/5
f 32/50/5 33/52/5 22/56/5
f 27/45/5 23/51/5 28/46/5
f 30/48/5 36/55/5 31/49/5
f 23/51/5 22/56/5 33/52/5
f 27/45/5 29/47/5 34/53/5
f 35/54/5 34/53/5 36/55/5
f 32/50/5 31/49/5 33/52/5
s 16
f 26/57/1 35/58/1 25/59/1
f 26/57/1 27/60/1 35/58/1
s 17
f 19/61/8 35/62/8 30/63/8
f 19/61/8 25/64/8 35/62/8
s 18
f 20/65/4 22/66/4 24/67/4
f 20/65/4 32/68/4 22/66/4
s 19
f 21/33/2 27/60/2 26/57/2
f 21/33/2 23/35/2 27/60/2
s 20
f 20/65/7 30/63/7 32/68/7
f 20/65/7 19/61/7 30/63/7
s 21
f 29/69/1 37/70/1 34/71/1
f 29/69/1 38/72/1 37/70/1
s 22
f 39/73/16 40/74/16 41/75/16
f 39/73/16 42/76/16 40/74/16
s 23
f 36/77/8 37/78/8 39/79/8
f 36/77/8 34/80/8 37/78/8
s 24
f 31/81/4 43/82/4 33/83/4
f 31/81/4 41/84/4 43/82/4
s 25
f 29/69/2 44/85/2 38/72/2
f 29/69/2 28/86/2 44/85/2
s 26
f 36/77/7 41/84/7 31/81/7
f 36/77/7 39/79/7 41/84/7
s 27
f 33/87/3 44/85/3 28/86/3
f 33/87/3 43/88/3 44/85/3
s 28
f 42/76/17 45/89/17 46/90/17
f 40/74/17 47/91/17 48/92/17
f 49/93/17 50/94/17 51/95/17
f 40/74/17 46/90/17 52/96/17
f 49/93/17 47/91/17 53/97/17
f 51/95/17 45/89/17 54/98/17
f 42/76/17 54/98/17 45/89/17
f 40/74/17 52/96/17 47/91/17
f 49/93/17 53/97/17 50/94/17
f 40/74/17 42/76/17 46/90/17
f 49/93/17 48/92/17 47/91/17
f 51/95/17 50/94/17 45/89/17
s 29
f 43/99/18 49/93/18 44/100/18
f 43/99/18 48/92/18 49/93/18
s 30
f 38/101/19 54/98/19 37/102/19
f 38/101/19 51/95/19 54/98/19
s 31
f 37/102/20 42/76/20 39/73/20
f 37/102/20 54/98/20 42/76/20
s 32
f 41/75/21 48/92/21 43/99/21
f 41/75/21 40/74/21 48/92/21
s 33
f 38/101/22 49/93/22 51/95/22
f 38/101/22 44/100/22 49/93/22
s 34
f 46/103/2 55/104/2 52/105/2
f 46/103/2 56/106/2 55/104/2
s 35
f 57/107/17 58/108/17 56/109/17
f 55/110/17 59/111/17 60/112/17
f 61/113/17 62/114/17 63/115/17
f 55/110/17 58/108/17 64/116/17
f 60/112/17 65/117/17 61/113/17
f 63/115/17 66/118/17 57/107/17
f 57/107/17 66/118/17 58/108/17
f 55/110/17 64/116/17 59/111/17
f 61/113/17 65/117/17 62/114/17
f 55/110/17 56/109/17 58/108/17
f 60/112/17 59/111/17 65/117/17
f 63/115/17 62/114/17 66/118/17
s 36
f 53/119/8 60/120/8 61/121/8
f 53/119/8 47/122/8 60/120/8
s 37
f 50/123/4 57/124/4 45/125/4
f 50/123/4 63/126/4 57/124/4
s 38
f 45/127/3 56/106/3 46/103/3
f 45/127/3 57/128/3 56/106/3
s 39
f 47/129/1 55/104/1 60/130/1
f 47/129/1 52/105/1 55/104/1
s 40
f 53/119/7 63/126/7 50/123/7
f 53/119/7 61/121/7 63/126/7
s 41
f 11/131/3 67/132/3 68/133/3
f 11/131/3 15/134/3 67/132/3
s 42
f 16/135/1 69/136/1 70/137/1
f 16/135/1 14/138/1 69/136/1
s 43
f 13/139/7 71/140/7 72/141/7
f 13/139/7 12/142/7 71/140/7
s 44
f 16/135/2 67/132/2 15/134/2
s 45
f 13/139/8 69/143/8 14/144/8
s 46
f 11/145/4 71/140/4 12/142/4
s 47
f 58/146/7 73/147/7 64/148/7
f 58/146/7 74/149/7 73/147/7
s 48
f 73/150/17 74/151/17 75/152/17
f 74/151/17 76/153/17 75/152/17
f 75/152/17 77/154/17 78/155/17
f 78/155/17 73/150/17 75/152/17
s 49
f 59/156/3 77/157/3 65/158/3
f 59/156/3 78/159/3 77/157/3
s 50
f 66/160/1 75/161/1 76/162/1
f 66/160/1 62/163/1 75/161/1
s 51
f 58/146/8 76/164/8 74/149/8
f 58/146/8 66/165/8 76/164/8
s 52
f 64/148/4 78/166/4 59/167/4
f 64/148/4 73/147/4 78/166/4
s 53
f 62/163/2 77/157/2 75/161/2
f 62/163/2 65/158/2 77/157/2
s 54
f 16/135/2 70/137/2 67/132/2
s 55
f 13/139/8 72/141/8 69/143/8
s 56
f 11/145/4 68/168/4 71/140/4
