# Blender v3.2.1 OBJ File: ''
# www.blender.org
mtllib tcp.12g_shell.mtl
o shellModel
v 0.002449 0.000003 -0.060896
v 0.024987 0.052737 -0.030451
v 0.024988 0.000003 -0.060896
v 0.002449 0.052737 -0.030451
v 0.024987 0.058691 -0.033883
v 0.024987 0.052737 0.030446
v 0.024987 0.058691 0.033885
v -0.001225 0.058691 0.033885
v -0.001225 0.058691 -0.033883
v 0.002449 0.052737 0.030446
v 0.002449 0.000002 0.060898
v 0.002449 -0.052740 0.030446
v 0.002449 -0.052739 -0.030451
v 0.024988 0.000002 -0.067767
v 0.024988 0.000002 0.060898
v 0.024988 0.000002 0.067769
v 0.024988 -0.058691 0.033886
v 0.024988 -0.052739 -0.030451
v 0.024988 -0.058691 -0.033883
v 0.024988 -0.052740 0.030446
v 0.300562 0.000002 -0.200706
v 1.040107 -0.173815 -0.100353
v 0.300562 -0.173815 -0.100353
v 1.040107 0.000003 -0.200707
v 0.302820 0.177032 0.102206
v 0.031043 0.177032 -0.102209
v 0.031043 0.177032 0.102206
v 0.302820 0.177032 -0.102209
v 1.057314 0.000003 -0.146238
v 1.057321 -0.159439 -0.092053
v 1.057314 0.000003 -0.184106
v 1.057321 0.000002 0.184102
v 1.057314 0.126645 0.073121
v 1.057314 0.159438 0.092048
v 1.057314 0.126645 -0.073118
v 1.057314 0.159438 -0.092053
v 1.057321 -0.126647 0.073121
v 1.057321 0.000002 0.146240
v 1.057321 -0.126647 -0.073119
v 1.057321 -0.159440 0.092048
v 1.057315 0.000002 0.146234
v 1.057315 -0.126644 0.073120
v 1.057315 0.000002 -0.146238
v 0.300562 -0.126644 -0.073119
v 1.057315 -0.126644 -0.073119
v 0.300562 0.000001 -0.146237
v 1.040107 -0.173816 0.100355
v 1.040107 0.000002 0.200702
v 0.031044 0.000002 0.204418
v 0.302820 0.000002 0.204418
v 0.031044 0.000002 -0.204414
v 0.302820 -0.177034 -0.102210
v 0.031044 -0.177035 -0.102210
v 0.302820 0.000002 -0.204414
v 0.302820 -0.177034 0.102205
v 0.031044 -0.177035 0.102205
v -0.001224 0.000002 0.220652
v 0.031044 -0.191094 0.110326
v 0.031044 0.000002 0.220652
v -0.001224 -0.191094 0.110326
v 1.040106 0.173816 -0.100352
v 1.040106 0.173814 0.100355
v 0.302820 -0.173816 0.100355
v 0.302820 0.000002 0.200709
v 0.302820 -0.173815 -0.100353
v 0.302820 0.173814 0.100355
v 0.302820 0.173814 -0.100353
v 0.302820 0.000002 -0.200706
v 0.031043 0.191091 -0.110324
v 0.031043 0.191091 0.110326
v 0.031044 -0.191094 -0.110324
v 0.031044 0.000003 -0.220656
v -0.001224 -0.191094 -0.110324
v -0.001224 0.000002 -0.067767
v -0.001225 0.191091 -0.110324
v -0.001224 0.000003 -0.220656
v -0.001225 0.191091 0.110326
v -0.001224 0.000002 0.067769
v -0.001224 -0.058691 0.033886
v -0.001224 -0.058691 -0.033883
v 0.300562 -0.173816 0.100355
v 0.300562 0.173814 -0.100353
v 0.300562 0.173814 0.100355
v 0.300562 0.000002 0.200709
v 0.300562 0.126645 -0.073118
v 0.300562 0.000002 0.146240
v 0.300562 0.000003 -0.146238
v 0.300562 -0.126647 -0.073119
v 0.300562 -0.126647 0.073121
v 0.300562 0.126645 0.073121
v 1.057314 0.126645 -0.073118
v 1.057314 0.126643 0.073120
v 0.300562 -0.126644 0.073120
v 0.300562 0.126644 -0.073118
v 0.300562 0.126643 0.073120
v 0.300562 0.000001 0.146240
vt 0.715717 0.128638
vt 0.714288 0.130569
vt 0.714287 0.128638
vt 0.715717 0.130569
vt 0.088000 0.015074
vt 0.088377 0.019154
vt 0.088000 0.019372
vt 0.468713 0.307954
vt 0.467051 0.310102
vt 0.467051 0.307954
vt 0.088377 0.015292
vt 0.468713 0.310102
vt 0.344598 0.380751
vt 0.338806 0.377407
vt 0.346529 0.377407
vt 0.344598 0.374063
vt 0.340736 0.374063
vt 0.340736 0.380751
vt 0.996877 0.234142
vt 0.998306 0.232211
vt 0.998306 0.234142
vt 0.996877 0.232211
vt 0.091721 0.012926
vt 0.091721 0.021085
vt 0.091721 0.021521
vt 0.095443 0.019372
vt 0.095066 0.015292
vt 0.091721 0.013361
vt 0.095443 0.015074
vt 0.095066 0.019154
vt 0.996877 0.228349
vt 0.998306 0.228349
vt 0.715717 0.122846
vt 0.714287 0.124776
vt 0.714287 0.122846
vt 0.996877 0.226418
vt 0.998306 0.226418
vt 0.715717 0.124776
vt 0.158416 0.931318
vt 0.205313 0.944046
vt 0.158416 0.944046
vt 0.205313 0.931318
vt 0.490156 0.942196
vt 0.483675 0.924961
vt 0.490156 0.924961
vt 0.483675 0.942196
vt 0.491142 0.602773
vt 0.483113 0.595732
vt 0.493222 0.601572
vt 0.472998 0.613242
vt 0.483107 0.616681
vt 0.483107 0.619082
vt 0.491139 0.612046
vt 0.493219 0.613247
vt 0.475080 0.602768
vt 0.475077 0.612042
vt 0.483112 0.598134
vt 0.473001 0.601567
vt 0.008018 0.971858
vt 0.001655 0.924961
vt 0.001655 0.971858
vt 0.008018 0.924961
vt 0.020746 0.924961
vt 0.020746 0.971858
vt 0.205313 0.924955
vt 0.158416 0.924955
vt 0.158416 0.931318
vt 0.205313 0.931318
vt 0.158416 0.944046
vt 0.205313 0.944046
vt 0.027109 0.924961
vt 0.027109 0.971858
vt 0.472089 0.601040
vt 0.472086 0.613768
vt 0.503119 0.924961
vt 0.503119 0.942196
vt 0.550134 0.942196
vt 0.563097 0.924961
vt 0.563097 0.942196
vt 0.550134 0.924961
vt 0.569578 0.924961
vt 0.569578 0.942196
vt 0.543652 0.924961
vt 0.543652 0.942196
vt 0.351219 0.216560
vt 0.349173 0.223557
vt 0.349173 0.216560
vt 0.351219 0.223557
vt 0.494130 0.613774
vt 0.483106 0.620134
vt 0.206404 0.931845
vt 0.206405 0.943520
vt 0.494134 0.601046
vt 0.020219 0.972950
vt 0.008018 0.971858
vt 0.020746 0.971858
vt 0.008545 0.972950
vt 0.907556 0.325840
vt 0.918579 0.332439
vt 0.907556 0.326075
vt 0.907556 0.351766
vt 0.918579 0.345167
vt 0.918783 0.345285
vt 0.896534 0.332439
vt 0.896330 0.332322
vt 0.896534 0.345167
vt 0.907556 0.351531
vt 0.918783 0.332322
vt 0.896330 0.345285
vt 0.483113 0.594680
vt 0.452201 0.062310
vt 0.463427 0.054798
vt 0.463428 0.055828
vt 0.463427 0.082783
vt 0.452201 0.075272
vt 0.463427 0.081754
vt 0.451310 0.075787
vt 0.475545 0.061794
vt 0.474654 0.062309
vt 0.475545 0.075787
vt 0.474653 0.075272
vt 0.451310 0.061795
vt 0.938608 0.225753
vt 0.940654 0.218757
vt 0.940654 0.225753
vt 0.938608 0.218757
vt 0.631113 0.095987
vt 0.619269 0.099708
vt 0.626265 0.087590
vt 0.628964 0.099708
vt 0.626265 0.111826
vt 0.635410 0.103430
vt 0.640258 0.111826
vt 0.637559 0.099708
vt 0.640258 0.087591
vt 0.647254 0.099708
vt 0.635411 0.095987
vt 0.631113 0.103430
vt 0.938608 0.204764
vt 0.940654 0.197768
vt 0.940654 0.204764
vt 0.938608 0.197768
vt 0.468713 0.314400
vt 0.467051 0.316549
vt 0.467051 0.314400
vt 0.468713 0.316549
vt 0.343694 0.325412
vt 0.345356 0.327561
vt 0.343694 0.327561
vt 0.345356 0.325412
vt 0.158416 0.950410
vt 0.205313 0.950410
vt 0.205313 0.924955
vt 0.158416 0.924955
vt 0.001655 0.924961
vt 0.008018 0.924961
vt 0.001655 0.971858
vt 0.020746 0.924961
vt 0.027109 0.924961
vt 0.027109 0.971858
vt 0.351219 0.195572
vt 0.349173 0.202568
vt 0.349173 0.195572
vt 0.351219 0.202568
vt 0.343694 0.321115
vt 0.345356 0.321115
vt 0.345356 0.318966
vt 0.343694 0.318966
vt 0.509601 0.942196
vt 0.509601 0.924961
vt 0.158416 0.950410
vt 0.205313 0.950410
vt 0.668852 0.773850
vt 0.676883 0.759940
vt 0.676883 0.778487
vt 0.684914 0.773850
vt 0.684914 0.764576
vt 0.668852 0.764576
vn 0.0000 0.4197 -0.9077
vn 0.0000 0.4193 -0.9079
vn -0.0002 0.4193 -0.9079
vn -0.5550 -0.8319 0.0000
vn -1.0000 0.0000 0.0000
vn -0.5546 -0.8321 0.0000
vn 0.0000 -1.0000 0.0000
vn 0.0000 1.0000 -0.0000
vn -1.0000 0.0014 -0.0005
vn -1.0000 -0.0011 -0.0000
vn -1.0000 -0.0018 -0.0000
vn -1.0000 -0.0000 0.0020
vn -1.0000 -0.0017 0.0005
vn -1.0000 0.0007 -0.0000
vn -1.0000 0.0007 0.0002
vn -1.0000 -0.0001 -0.0019
vn -1.0000 0.0004 -0.0003
vn -1.0000 0.0020 0.0000
vn 0.0000 0.4197 0.9076
vn -0.0001 0.4193 0.9078
vn -0.0000 0.4194 0.9078
vn 0.0569 -0.8646 0.4992
vn -0.0563 -0.8646 -0.4992
vn 0.0000 -0.8369 0.5473
vn 0.0001 -0.4193 0.9079
vn 0.0000 -0.8365 -0.5480
vn 0.0005 -0.4192 -0.9079
vn 0.0000 -0.4197 0.9077
vn 0.0000 -0.4195 -0.9078
vn 0.0321 -0.5273 -0.8491
vn 0.0000 -0.4603 -0.8878
vn -0.0036 0.9997 -0.0226
vn 0.0320 0.9990 0.0320
vn 0.0453 0.9990 0.0000
vn -0.0178 0.9998 -0.0043
vn 0.9990 -0.0117 -0.0439
vn 0.9997 -0.0056 -0.0236
vn 0.9993 0.0315 -0.0182
vn 0.9993 -0.0040 0.0362
vn 0.9997 0.0020 -0.0226
vn 0.9989 0.0394 0.0239
vn 0.9997 -0.0198 -0.0114
vn 0.9990 0.0314 0.0334
vn 0.9998 0.0151 0.0087
vn 0.9990 0.0394 -0.0227
vn 0.9997 0.0000 0.0225
vn 0.9997 -0.0028 -0.0241
vn 0.0314 -0.9977 0.0593
vn -0.0321 -0.9990 -0.0320
vn 0.0074 -0.9977 0.0667
vn -0.0453 -0.9990 -0.0000
vn -0.0000 -0.4196 -0.9077
vn 0.0000 -0.4602 -0.8878
vn 0.0593 -0.4717 -0.8798
vn -0.0667 -0.4925 0.8677
vn -0.0321 -0.4718 0.8811
vn 0.0000 -0.4195 0.9077
vn 0.0000 0.4195 0.9078
vn 0.0000 0.4603 0.8878
vn -0.0321 0.5273 0.8491
vn 0.0320 0.5272 -0.8492
vn -0.0000 0.4194 -0.9078
vn -0.0000 0.4603 -0.8878
vn -0.0000 0.4195 -0.9078
vn 0.6589 -0.3156 0.6828
vn 0.6616 -0.3538 0.6612
vn 0.6587 -0.3156 0.6830
vn 0.6432 -0.3617 0.6749
vn -0.0226 0.4968 0.8676
vn 0.0304 0.4998 0.8656
vn 0.0000 0.4602 0.8878
vn -0.0036 -0.5194 -0.8545
vn 0.0303 -0.4998 -0.8656
vn 0.0453 -0.9990 0.0000
vn -0.0139 -0.9998 0.0119
vn 0.0321 -0.9990 -0.0320
vn 0.0226 -0.9997 0.0036
vn 0.0043 0.4845 -0.8748
vn 0.0320 0.4718 -0.8811
vn -0.0000 0.4734 -0.8808
vn 0.0000 -0.4194 0.9078
vn 0.0000 -0.4196 0.9077
vn 0.6700 0.7420 0.0255
vn 0.5882 0.8087 0.0000
vn 0.6780 0.7337 -0.0448
vn 0.6258 0.7789 -0.0417
vn 0.6655 -0.3876 -0.6378
vn 0.6584 -0.3158 -0.6832
vn 0.6589 -0.3155 -0.6829
vn 0.6430 -0.4035 -0.6509
vn 0.6585 0.3156 -0.6832
vn 0.6372 0.3537 -0.6848
vn 0.6654 0.3448 -0.6621
vn 0.6653 0.3583 0.6550
vn 0.6590 0.3154 0.6828
vn 0.6585 0.3159 0.6831
vn 0.6692 0.3949 0.6295
vn 0.9995 -0.0196 0.0233
vn 1.0000 -0.0000 0.0000
vn 0.9995 0.0195 -0.0233
vn 0.9997 -0.0048 -0.0223
vn 0.9997 -0.0219 0.0071
vn 0.9998 -0.0106 -0.0149
vn 0.9998 0.0038 0.0179
vn 0.7219 -0.6920 0.0000
vn 0.7220 -0.6919 0.0000
vn 1.0000 0.0004 0.0003
vn 1.0000 0.0005 -0.0000
vn -0.0320 0.5273 -0.8491
vn 0.0000 0.4195 -0.9077
vn 0.0004 0.4195 -0.9077
vn -0.0004 0.4195 -0.9078
vn 0.0004 0.4194 -0.9078
vn 0.0004 -0.4195 0.9078
vn -0.0000 -0.4195 0.9078
vn -0.0320 -0.9990 0.0320
vn 0.0667 0.4925 -0.8677
vn 0.0321 0.4718 -0.8811
vn -0.0314 0.9977 -0.0593
vn 0.0321 0.9990 0.0320
vn -0.0074 0.9977 -0.0667
vn 0.0000 0.4196 0.9077
vn -0.0593 0.4717 0.8798
vn -0.0320 -0.5272 0.8492
vn 0.0000 -0.4603 0.8878
vn -0.0320 0.9990 -0.0320
vn -0.0321 0.9990 -0.0321
vn -0.0453 0.9990 -0.0000
vn 0.0454 0.9990 -0.0000
vn 0.0000 -0.4194 -0.9078
vn -0.0001 -0.4196 -0.9077
vn -0.0321 0.4717 0.8812
vn -0.0001 0.4196 0.9077
vn 0.0001 0.4195 0.9078
vn -0.0004 0.4195 0.9078
vn 0.0119 -0.4879 0.8728
vn 0.0321 -0.4718 0.8811
vn -0.0000 -0.4734 0.8808
vn -0.0004 -0.4195 -0.9078
vn 0.0005 -0.4195 -0.9078
vn -0.0321 0.9990 0.0320
vn 0.0320 0.9990 -0.0320
vn 0.9995 0.0000 0.0304
vn 0.9990 -0.0393 -0.0227
vn 0.9990 0.0226 0.0392
vn 0.9998 0.0193 -0.0111
vn 0.9995 0.0180 -0.0244
vn 0.9995 -0.0261 0.0151
usemtl main
s 1
f 1/1/1 2/2/2 3/3/1
f 1/1/1 4/4/3 2/2/2
s 2
f 5/5/4 6/6/5 7/7/6
f 5/8/4 8/9/7 9/10/7
f 5/5/4 2/11/5 6/6/5
f 5/8/4 7/12/6 8/9/7
s 3
f 10/13/5 1/14/5 11/15/5
f 12/16/5 1/14/5 13/17/5
f 10/13/5 4/18/5 1/14/5
f 12/16/5 11/15/5 1/14/5
s 4
f 4/19/8 6/20/8 2/21/8
f 4/19/8 10/22/8 6/20/8
s 5
f 14/23/9 2/11/10 5/5/10
f 7/7/11 15/24/12 16/25/13
f 15/24/12 17/26/14 16/25/13
f 14/23/9 18/27/15 3/28/16
f 19/29/5 20/30/17 18/27/15
f 14/23/9 3/28/16 2/11/10
f 7/7/11 6/6/18 15/24/12
f 15/24/12 20/30/17 17/26/14
f 14/23/9 19/29/5 18/27/15
f 19/29/5 17/26/14 20/30/17
s 6
f 6/20/19 11/31/20 15/32/21
f 6/20/19 10/22/19 11/31/20
s 7
f 12/33/22 18/34/23 20/35/24
f 15/32/25 12/36/22 20/37/24
f 13/38/26 3/3/27 18/34/23
f 12/33/22 13/38/26 18/34/23
f 15/32/25 11/31/28 12/36/22
f 13/38/26 1/1/27 3/3/27
s 8
f 21/39/29 22/40/30 23/41/31
f 21/39/29 24/42/29 22/40/30
s 9
f 25/43/32 26/44/33 27/45/34
f 25/43/32 28/46/35 26/44/33
s 10
f 29/47/36 30/48/37 31/49/38
f 32/50/39 33/51/40 34/52/41
f 34/52/41 35/53/42 36/54/43
f 32/50/39 37/55/44 38/56/45
f 39/57/46 40/58/47 30/48/37
f 36/54/43 29/47/36 31/49/38
f 29/47/36 39/57/46 30/48/37
f 32/50/39 38/56/45 33/51/40
f 34/52/41 33/51/40 35/53/42
f 32/50/39 40/58/47 37/55/44
f 39/57/46 37/55/44 40/58/47
f 36/54/43 35/53/42 29/47/36
s 11
f 92/59/48 94/60/49 91/61/50
f 92/59/48 95/62/51 94/60/49
s 12
f 96/63/52 95/62/53 92/59/54
f 96/63/52 92/59/54 41/64/52
s 13
f 91/65/55 94/66/56 46/67/57
f 91/65/55 46/67/57 43/68/57
s 14
f 46/67/58 44/69/59 45/70/60
f 46/67/58 45/70/60 43/68/58
s 15
f 93/71/61 41/64/62 42/72/63
f 93/71/61 96/63/64 41/64/62
s 16
f 47/73/65 32/50/66 48/74/67
f 47/73/65 40/58/68 32/50/66
s 17
f 25/43/69 49/75/58 50/76/70
f 25/43/69 27/45/71 49/75/58
s 18
f 51/77/29 52/78/72 53/79/53
f 51/77/29 54/80/73 52/78/72
s 19
f 53/79/74 55/81/75 56/82/76
f 53/79/74 52/78/77 55/81/75
s 20
f 28/83/78 51/77/64 26/84/79
f 28/83/78 54/80/80 51/77/64
s 21
f 57/85/81 58/86/82 59/87/81
f 57/85/81 60/88/82 58/86/82
s 22
f 34/52/83 61/89/84 62/90/85
f 34/52/83 36/54/86 61/89/84
s 23
f 31/91/87 22/40/88 24/42/89
f 31/91/87 30/92/90 22/40/88
s 24
f 61/89/91 31/49/92 24/93/91
f 61/89/91 36/54/93 31/49/92
s 25
f 32/94/94 62/95/95 48/96/96
f 32/94/94 34/97/97 62/95/95
s 26
f 50/98/98 63/99/99 64/100/99
f 54/101/100 65/102/99 52/103/101
f 50/98/98 66/104/99 25/105/102
f 54/101/100 67/106/99 68/107/99
f 55/108/103 65/102/99 63/99/99
f 28/109/104 66/104/99 67/106/99
f 50/98/98 55/108/103 63/99/99
f 54/101/100 68/107/99 65/102/99
f 50/98/98 64/100/99 66/104/99
f 54/101/100 28/109/104 67/106/99
f 55/108/103 52/103/101 65/102/99
f 28/109/104 25/105/102 66/104/99
s 27
f 22/110/105 40/58/106 47/73/105
f 22/110/105 30/48/106 40/58/106
s 28
f 49/111/99 58/112/99 56/113/99
f 69/114/107 27/115/99 26/116/99
f 70/117/99 49/111/99 27/115/99
f 56/113/99 71/118/108 53/119/99
f 26/116/99 72/120/99 69/114/107
f 53/119/99 72/120/99 51/121/99
f 49/111/99 59/122/99 58/112/99
f 69/114/107 70/117/99 27/115/99
f 70/117/99 59/122/99 49/111/99
f 56/113/99 58/112/99 71/118/108
f 26/116/99 51/121/99 72/120/99
f 53/119/99 71/118/108 72/120/99
s 29
f 60/123/7 71/124/7 58/125/7
f 60/123/7 73/126/7 71/124/7
s 30
f 74/127/5 75/128/5 76/129/5
f 9/130/5 77/131/5 75/128/5
f 77/131/5 78/132/5 57/133/5
f 79/134/5 73/135/5 60/136/5
f 57/133/5 79/134/5 60/136/5
f 76/129/5 80/137/5 74/127/5
f 74/127/5 9/130/5 75/128/5
f 9/130/5 8/138/5 77/131/5
f 77/131/5 8/138/5 78/132/5
f 79/134/5 80/137/5 73/135/5
f 57/133/5 78/132/5 79/134/5
f 76/129/5 73/135/5 80/137/5
s 31
f 76/139/62 69/140/63 72/141/62
f 76/139/62 75/142/109 69/140/63
s 32
f 16/143/110 79/144/111 78/145/112
f 16/143/110 17/146/113 79/144/111
s 33
f 74/147/114 5/148/115 9/149/115
f 74/147/114 14/150/115 5/148/115
s 34
f 22/40/76 81/151/116 23/41/74
f 22/40/76 47/152/51 81/151/116
s 35
f 61/153/117 21/39/110 82/154/118
f 61/153/117 24/42/110 21/39/110
s 36
f 62/95/119 82/155/120 83/156/34
f 62/95/119 61/157/121 82/155/120
s 37
f 84/158/122 62/95/123 83/156/71
f 84/158/122 48/96/122 62/95/123
s 38
f 81/159/124 48/96/81 84/158/115
f 81/159/124 47/160/125 48/96/81
s 39
f 75/161/126 70/162/127 69/163/128
f 75/161/126 77/164/129 70/162/127
s 40
f 73/126/130 72/141/131 71/124/130
f 73/126/130 76/139/131 72/141/131
s 41
f 70/162/132 57/85/133 59/87/133
f 70/162/132 77/164/71 57/85/133
s 42
f 80/165/134 14/150/135 74/147/58
f 80/165/134 19/166/135 14/150/135
s 43
f 17/167/8 80/165/8 79/168/8
f 17/167/8 19/166/8 80/165/8
s 44
f 55/169/136 49/75/115 56/170/137
f 55/169/136 50/76/138 49/75/115
s 45
f 7/12/139 78/145/29 8/9/139
f 7/12/139 16/143/140 78/145/29
s 46
f 45/70/141 44/69/128 93/171/142
f 45/70/141 93/171/142 42/172/34
s 47
f 85/173/143 86/174/144 87/175/145
f 88/176/146 86/174/144 89/177/147
f 85/173/143 90/178/148 86/174/144
f 88/176/146 87/175/145 86/174/144
