# Blender v3.2.1 OBJ File: ''
# www.blender.org
mtllib tcp.7_62_shell.mtl
o shellModel
v 1.018741 -0.041372 -0.075628
v 0.875862 -0.085357 -0.000000
v 0.875763 -0.041694 -0.075628
v 1.018839 -0.085036 -0.000001
v 0.875763 -0.041694 0.075627
v 1.018741 -0.041372 0.075627
v 0.875567 0.045633 0.075627
v 1.018545 0.045955 0.075627
v 0.875469 0.089296 0.000000
v 1.018447 0.089618 -0.000001
v 1.018804 -0.069410 -0.000001
v 1.018562 0.038142 0.062095
v 1.018545 0.045955 -0.075628
v 1.018724 -0.033560 -0.062096
v 1.018482 0.073993 -0.000001
v 1.018724 -0.033560 0.062095
v 1.018562 0.038142 -0.062096
v 0.875567 0.045633 -0.075628
v 0.770053 -0.067937 0.120669
v 0.770209 -0.137605 -0.000000
v 0.769739 0.071400 -0.120670
v 0.095919 0.139553 0.000000
v 0.769582 0.141069 0.000000
v 0.096075 0.069885 -0.120670
v 0.770052 -0.067937 -0.120670
v 0.769739 0.071400 0.120669
v 0.096389 -0.069452 -0.120670
v 0.079741 0.057451 -0.099198
v 0.079999 -0.057092 -0.099198
v 0.096389 -0.069452 0.120669
v 0.096075 0.069885 0.120669
v 0.096545 -0.139121 -0.000000
v 0.042526 0.114640 0.000000
v 0.079613 0.114723 0.000000
v 0.042655 0.057368 -0.099198
v 0.079741 0.057451 0.099198
v 0.080128 -0.114364 -0.000000
v 0.079999 -0.057092 0.099198
v 0.042913 -0.057176 0.099198
v 0.042655 0.057368 0.099198
v 0.042913 -0.057176 -0.099198
v 0.043042 -0.114447 -0.000000
v 0.042623 0.071502 -0.123678
v 0.042463 0.142907 0.000000
v 0.042944 -0.071309 0.123678
v 0.042944 -0.071309 -0.123678
v 0.042623 0.071502 0.123678
v 0.043105 -0.142715 -0.000000
v -0.002099 0.071401 0.123678
v -0.002259 0.142806 0.000000
v -0.002099 0.071401 -0.123678
v -0.001846 -0.040778 -0.070622
v -0.002030 0.040769 -0.070622
v -0.002121 0.081543 0.000000
v -0.002030 0.040769 0.070622
v -0.001777 -0.071410 0.123678
v -0.001754 -0.081552 -0.000000
v -0.001617 -0.142816 -0.000000
v -0.001846 -0.040778 0.070622
v -0.001777 -0.071410 -0.123678
v 0.023165 0.040826 -0.070622
v 0.023348 -0.040721 -0.070622
v 0.023094 0.072225 0.000000
v 0.023073 0.081599 0.000000
v 0.023165 0.040826 0.070622
v 0.023338 -0.036034 0.062504
v 0.023348 -0.040721 0.070622
v 0.023419 -0.072121 -0.000000
v 0.023338 -0.036034 -0.062504
v 0.023175 0.036139 -0.062504
v 0.023176 0.036139 0.062504
v 0.023440 -0.081495 -0.000000
v 0.003795 0.036095 0.062504
v 0.003714 0.072182 0.000000
v 0.003795 0.036095 -0.062504
v 0.003957 -0.036078 -0.062504
v 0.004039 -0.072164 -0.000000
v 0.003957 -0.036078 0.062504
vt 0.938878 0.639681
vt 0.942965 0.631961
vt 0.938878 0.631955
vt 0.942965 0.639686
vt 0.947051 0.631955
vt 0.947051 0.639681
vt 0.876242 0.957561
vt 0.883966 0.952841
vt 0.883967 0.957559
vt 0.876240 0.952842
vt 0.286136 0.587671
vt 0.282050 0.579939
vt 0.286136 0.579945
vt 0.282050 0.587665
vt 0.601993 0.657845
vt 0.603508 0.653759
vt 0.604352 0.653759
vt 0.601993 0.649673
vt 0.597697 0.650404
vt 0.597274 0.649673
vt 0.597274 0.657845
vt 0.601571 0.657114
vt 0.595759 0.653759
vt 0.594915 0.653759
vt 0.601571 0.650404
vt 0.597697 0.657114
vt 0.277963 0.579945
vt 0.277963 0.587671
vt 0.051801 0.962743
vt 0.044074 0.958027
vt 0.044075 0.962745
vt 0.051800 0.958025
vt 0.949485 0.626243
vt 0.942965 0.626252
vt 0.275529 0.574226
vt 0.282050 0.537817
vt 0.282050 0.574218
vt 0.275530 0.537825
vt 0.936444 0.626243
vt 0.889683 0.958963
vt 0.889681 0.951434
vt 0.038360 0.964152
vt 0.038358 0.956623
vt 0.288570 0.574226
vt 0.491175 0.990475
vt 0.484318 0.989315
vt 0.483646 0.990475
vt 0.490507 0.989315
vt 0.926084 0.958954
vt 0.926082 0.951425
vt 0.942965 0.589851
vt 0.936445 0.589842
vt 0.001957 0.956632
vt 0.001959 0.964161
vt 0.288570 0.537825
vt 0.949485 0.589842
vt 0.865862 0.678603
vt 0.863851 0.673243
vt 0.865855 0.673243
vt 0.863858 0.678603
vt 0.483646 0.977435
vt 0.481223 0.983955
vt 0.484318 0.978595
vt 0.479882 0.983955
vt 0.491175 0.977435
vt 0.493602 0.983955
vt 0.494940 0.983955
vt 0.490507 0.978595
vt 0.155333 0.368736
vt 0.157336 0.374926
vt 0.155332 0.374926
vt 0.157337 0.368737
vt 0.166752 0.896203
vt 0.161392 0.894192
vt 0.161392 0.896196
vt 0.166752 0.894199
vt 0.057057 0.442560
vt 0.059062 0.436371
vt 0.057058 0.436370
vt 0.059061 0.442560
vt 0.863858 0.667883
vt 0.865862 0.667883
vt 0.172112 0.896196
vt 0.172112 0.894192
vt 0.643323 0.986877
vt 0.650275 0.988202
vt 0.642559 0.988200
vt 0.640230 0.981516
vt 0.642563 0.974834
vt 0.643327 0.976157
vt 0.649516 0.976159
vt 0.654136 0.981521
vt 0.652609 0.981520
vt 0.649512 0.986879
vt 0.638703 0.981515
vt 0.650280 0.974837
vt 0.819365 0.773419
vt 0.816957 0.766736
vt 0.819374 0.766736
vt 0.816949 0.773419
vt 0.536554 0.981522
vt 0.531039 0.977708
vt 0.533243 0.981523
vt 0.524981 0.988209
vt 0.531042 0.985340
vt 0.526635 0.985341
vt 0.521120 0.981527
vt 0.526633 0.977709
vt 0.524976 0.974843
vt 0.532698 0.988206
vt 0.524431 0.981526
vt 0.532693 0.974840
vt 0.725104 0.751487
vt 0.727512 0.744805
vt 0.725095 0.744805
vt 0.727520 0.751487
vt 0.819374 0.780102
vt 0.816957 0.780102
vt 0.420427 0.808181
vt 0.428141 0.805756
vt 0.428144 0.808172
vt 0.420425 0.805764
vt 0.727520 0.738122
vt 0.725104 0.738122
vt 0.176018 0.896625
vt 0.183733 0.894200
vt 0.176016 0.894208
vt 0.183735 0.896616
vt 0.492025 0.444196
vt 0.493377 0.448606
vt 0.492015 0.448603
vt 0.493387 0.444199
vt 0.961908 0.992137
vt 0.962356 0.987985
vt 0.961918 0.987731
vt 0.965739 0.985536
vt 0.969111 0.988000
vt 0.969550 0.987747
vt 0.965720 0.994349
vt 0.969102 0.991899
vt 0.965721 0.993842
vt 0.962348 0.991885
vt 0.965738 0.986042
vt 0.969540 0.992154
vt 0.149240 0.458388
vt 0.147874 0.462204
vt 0.149235 0.462204
vt 0.147879 0.458388
vt 0.314351 0.480413
vt 0.312985 0.476597
vt 0.314346 0.476597
vt 0.312990 0.480413
vt 0.149235 0.454572
vt 0.147874 0.454572
vt 0.353265 0.576066
vt 0.354636 0.571663
vt 0.353275 0.571660
vt 0.354626 0.576069
vt 0.312990 0.472781
vt 0.314351 0.472781
vt 0.239018 0.057623
vt 0.242395 0.056580
vt 0.242395 0.057627
vt 0.239018 0.056575
vt 0.849171 0.688349
vt 0.845794 0.686399
vt 0.842416 0.688349
vt 0.842416 0.692248
vt 0.845794 0.694198
vt 0.849171 0.692248
vt 0.619000 0.068028
vt 0.615623 0.066985
vt 0.615623 0.068032
vt 0.619000 0.066981
vt 0.235641 0.057627
vt 0.235641 0.056580
vt 0.140462 0.013656
vt 0.139423 0.009754
vt 0.140471 0.009756
vt 0.139415 0.013654
vt 0.612246 0.066981
vt 0.612246 0.068028
vt 0.764788 0.017560
vt 0.763732 0.021458
vt 0.764779 0.021460
vt 0.763741 0.017558
vn 0.0019 -0.8660 -0.5000
vn 0.0020 -0.8660 -0.5000
vn 0.0019 -0.8660 0.5000
vn 0.0020 -0.8660 0.5000
vn -0.0000 -0.0000 1.0000
vn -0.0019 0.8660 0.5000
vn -0.0020 0.8660 0.5000
vn 1.0000 0.0022 -0.0000
vn 1.0000 0.0023 0.0000
vn -0.0020 0.8660 -0.5000
vn 0.0000 0.0000 -1.0000
vn 0.3936 -0.7959 0.4600
vn -0.0019 0.8660 -0.5000
vn 0.3900 0.7977 -0.4600
vn 0.3936 -0.7959 -0.4600
vn 0.3918 0.0009 0.9200
vn 0.3918 0.0009 -0.9200
vn 0.3900 0.7977 0.4600
vn -0.7954 -0.0018 -0.6061
vn -0.7966 0.5231 0.3030
vn -0.7942 -0.5267 0.3031
vn -0.7942 -0.5267 0.3030
vn -0.7966 0.5231 -0.3030
vn -0.7954 -0.0018 0.6061
vn -0.7942 -0.5267 -0.3031
vn -0.7942 -0.5267 -0.3030
vn -1.0000 -0.0023 0.0000
vn -1.0000 -0.0022 0.0000
vn -1.0000 -0.0022 0.0001
usemtl main
s 1
f 1/1/1 2/2/1 3/3/2
f 1/1/1 4/4/1 2/2/1
s 2
f 4/4/3 5/5/3 2/2/3
f 4/4/3 6/6/4 5/5/3
s 3
f 6/7/5 7/8/5 5/9/5
f 6/7/5 8/10/5 7/8/5
s 4
f 8/11/6 9/12/6 7/13/7
f 8/11/6 10/14/6 9/12/6
s 5
f 1/15/8 11/16/8 4/17/8
f 6/18/8 12/19/8 8/20/8
f 13/21/8 14/22/8 1/15/8
f 8/20/8 15/23/8 10/24/8
f 6/18/8 11/16/8 16/25/8
f 13/21/8 15/23/8 17/26/9
f 1/15/8 14/22/8 11/16/8
f 6/18/8 16/25/8 12/19/8
f 13/21/8 17/26/9 14/22/8
f 8/20/8 12/19/8 15/23/8
f 6/18/8 4/17/8 11/16/8
f 13/21/8 10/24/8 15/23/8
s 6
f 10/14/10 18/27/10 9/12/10
f 10/14/10 13/28/10 18/27/10
s 7
f 13/29/11 3/30/11 18/31/11
f 13/29/11 1/32/11 3/30/11
s 8
f 2/2/12 19/33/12 20/34/12
f 2/2/12 5/5/12 19/33/12
s 9
f 21/35/13 22/36/13 23/37/13
f 21/35/13 24/38/13 22/36/13
s 10
f 9/12/14 21/35/14 23/37/14
f 9/12/14 18/27/14 21/35/14
s 11
f 2/2/15 25/39/15 3/3/15
f 2/2/15 20/34/15 25/39/15
s 12
f 7/8/16 19/40/16 5/9/16
f 7/8/16 26/41/16 19/40/16
s 13
f 3/30/17 21/42/17 18/31/17
f 3/30/17 25/43/17 21/42/17
s 14
f 9/12/18 26/44/18 7/13/18
f 9/12/18 23/37/18 26/44/18
s 15
f 27/45/19 28/46/19 24/47/19
f 27/45/19 29/48/19 28/46/19
s 16
f 26/41/5 30/49/5 19/40/5
f 26/41/5 31/50/5 30/49/5
s 17
f 25/39/1 32/51/1 27/52/1
f 25/39/1 20/34/1 32/51/1
s 18
f 21/42/11 27/53/11 24/54/11
f 21/42/11 25/43/11 27/53/11
s 19
f 23/37/6 31/55/6 26/44/6
f 23/37/6 22/36/6 31/55/6
s 20
f 20/34/3 30/56/3 32/51/3
f 20/34/3 19/33/3 30/56/3
s 21
f 28/57/13 33/58/13 34/59/13
f 28/57/13 35/60/13 33/58/13
s 22
f 31/61/20 34/62/20 36/63/20
f 31/61/20 22/64/20 34/62/20
s 23
f 30/65/21 37/66/22 32/67/22
f 30/65/21 38/68/21 37/66/22
s 24
f 24/47/23 34/62/23 22/64/23
f 24/47/23 28/46/23 34/62/23
s 25
f 31/61/24 38/68/24 30/65/24
f 31/61/24 36/63/24 38/68/24
s 26
f 27/45/25 37/66/26 29/48/25
f 27/45/25 32/67/26 37/66/26
s 27
f 36/69/5 39/70/5 38/71/5
f 36/69/5 40/72/5 39/70/5
s 28
f 37/73/1 41/74/2 29/75/2
f 37/73/1 42/76/1 41/74/2
s 29
f 29/77/11 35/78/11 28/79/11
f 29/77/11 41/80/11 35/78/11
s 30
f 34/59/6 40/81/6 36/82/6
f 34/59/6 33/58/6 40/81/6
s 31
f 38/83/4 42/76/3 37/73/3
f 38/83/4 39/84/4 42/76/3
s 32
f 33/85/8 43/86/9 44/87/8
f 40/88/9 45/89/8 39/90/8
f 42/91/8 46/92/8 41/93/8
f 41/93/8 43/86/9 35/94/9
f 33/85/8 47/95/9 40/88/9
f 42/91/8 45/89/8 48/96/8
f 33/85/8 35/94/9 43/86/9
f 40/88/9 47/95/9 45/89/8
f 42/91/8 48/96/8 46/92/8
f 41/93/8 46/92/8 43/86/9
f 33/85/8 44/87/8 47/95/9
f 42/91/8 39/90/8 45/89/8
s 33
f 44/97/7 49/98/7 47/99/7
f 44/97/7 50/100/7 49/98/7
s 34
f 51/101/27 52/102/27 53/103/28
f 49/104/27 54/105/27 55/106/28
f 56/107/27 57/108/28 58/109/28
f 51/101/27 54/105/27 50/110/27
f 49/104/27 59/111/27 56/107/27
f 60/112/27 57/108/28 52/102/27
f 51/101/27 60/112/27 52/102/27
f 49/104/27 50/110/27 54/105/27
f 56/107/27 59/111/27 57/108/28
f 51/101/27 53/103/28 54/105/27
f 49/104/27 55/106/28 59/111/27
f 60/112/27 58/109/28 57/108/28
s 35
f 45/113/4 58/114/4 48/115/4
f 45/113/4 56/116/4 58/114/4
s 36
f 43/117/10 50/100/10 44/97/10
f 43/117/10 51/118/10 50/100/10
s 37
f 47/119/5 56/120/5 45/121/5
f 47/119/5 49/122/5 56/120/5
s 38
f 48/115/2 60/123/2 46/124/2
f 48/115/2 58/114/2 60/123/2
s 39
f 43/125/11 60/126/11 51/127/11
f 43/125/11 46/128/11 60/126/11
s 40
f 52/129/5 61/130/5 53/131/5
f 52/129/5 62/132/5 61/130/5
s 41
f 61/133/28 63/134/28 64/135/28
f 65/136/27 66/137/28 67/138/28
f 62/139/28 68/140/28 69/141/29
f 62/139/28 70/142/28 61/133/28
f 65/136/27 63/134/28 71/143/27
f 67/138/28 68/140/28 72/144/28
f 61/133/28 70/142/28 63/134/28
f 65/136/27 71/143/27 66/137/28
f 62/139/28 72/144/28 68/140/28
f 62/139/28 69/141/29 70/142/28
f 65/136/27 64/135/28 63/134/28
f 67/138/28 66/137/28 68/140/28
s 42
f 54/145/1 65/146/2 55/147/2
f 54/145/1 64/148/1 65/146/2
s 43
f 59/149/10 72/150/10 57/151/10
f 59/149/10 67/152/10 72/150/10
s 44
f 53/153/4 64/148/3 54/145/3
f 53/153/4 61/154/4 64/148/3
s 45
f 55/155/11 67/156/11 59/157/11
f 55/155/11 65/158/11 67/156/11
s 46
f 57/151/7 62/159/7 52/160/7
f 57/151/7 72/150/7 62/159/7
s 47
f 63/161/6 73/162/7 71/163/7
f 63/161/6 74/164/6 73/162/7
s 48
f 73/165/28 74/166/28 75/167/28
f 75/167/28 76/168/27 73/165/28
f 76/168/27 77/169/27 78/170/27
f 73/165/28 76/168/27 78/170/27
s 49
f 66/171/4 77/172/3 68/173/3
f 66/171/4 78/174/4 77/172/3
s 50
f 70/175/10 74/164/13 63/161/13
f 70/175/10 75/176/10 74/164/13
s 51
f 71/177/5 78/178/5 66/179/5
f 71/177/5 73/180/5 78/178/5
s 52
f 68/173/1 76/181/2 69/182/2
f 68/173/1 77/172/1 76/181/2
s 53
f 69/183/11 75/184/11 70/185/11
f 69/183/11 76/186/11 75/184/11
