# Blender v3.2.2 OBJ File: ''
# www.blender.org
mtllib tcp.5_56_bullet.mtl
o bulletModel
v 0.026789 0.030561 -0.052932
v 0.001848 0.061121 -0.000000
v 0.026789 0.061121 -0.000000
v 0.001848 0.030561 -0.052932
v 0.001848 0.030561 0.052933
v 0.001848 -0.030561 -0.052932
v 0.001848 -0.061122 -0.000000
v 0.001848 -0.030561 0.052933
v 0.026789 -0.030561 0.052933
v 0.026789 0.030561 0.052933
v 0.026789 -0.030561 -0.052932
v 0.026789 -0.061122 -0.000000
v 0.956281 -0.064230 -0.111250
v 0.085312 -0.128460 -0.000000
v 0.085312 -0.064230 -0.111250
v 0.956281 -0.128460 -0.000000
v 0.085312 -0.064230 0.111250
v 0.956281 -0.064230 0.111250
v 0.085312 0.064230 0.111250
v 0.956281 0.064230 0.111250
v 0.085312 0.128460 -0.000000
v 0.956281 0.128460 -0.000000
v 1.039730 -0.045825 0.079371
v 1.039730 -0.091650 -0.000000
v 0.085312 0.064230 -0.111250
v 0.956281 0.064230 -0.111250
v 0.058407 0.056172 -0.097293
v 0.058407 -0.056173 -0.097293
v 0.028741 0.063589 -0.110139
v 0.028741 -0.063589 -0.110139
v 0.058407 0.112345 -0.000000
v 0.058407 0.056172 0.097294
v 0.058407 -0.056173 0.097294
v 0.058407 -0.112345 -0.000000
v 0.028741 0.127178 -0.000000
v 0.028741 0.069761 -0.120830
v 0.028741 0.139523 -0.000000
v 0.028741 -0.063589 0.110140
v 0.028741 0.069761 0.120831
v 0.028741 -0.069762 0.120831
v 0.028741 -0.127178 -0.000000
v 0.028741 -0.069761 -0.120830
v 0.028741 0.063589 0.110140
v 0.028741 -0.139523 -0.000000
v -0.000924 0.069761 -0.120830
v -0.000924 -0.069761 -0.120830
v -0.000924 0.139523 -0.000000
v -0.000924 0.033482 -0.057993
v -0.000924 0.066965 -0.000000
v -0.000924 -0.069762 0.120831
v -0.000924 0.033482 0.057994
v -0.000924 -0.033483 0.057994
v -0.000924 -0.066965 -0.000000
v -0.000924 -0.033483 -0.057993
v -0.000924 0.069761 0.120831
v -0.000924 -0.139523 -0.000000
v 1.039730 0.045825 -0.079371
v 1.169671 -0.045825 -0.079371
v 1.039730 -0.045825 -0.079371
v 1.169671 0.045825 -0.079371
v 1.039730 0.091650 -0.000000
v 1.039730 0.045825 0.079371
v 1.169671 0.091650 -0.000000
v 1.169671 0.039787 -0.068914
v 1.169671 0.045825 0.079371
v 1.169671 -0.039788 0.068914
v 1.169671 0.039787 0.068914
v 1.169671 -0.091650 -0.000000
v 1.169671 -0.039788 -0.068914
v 1.169671 -0.079575 -0.000000
v 1.169671 0.079575 -0.000000
v 1.169671 -0.045825 0.079371
v 0.026789 0.066965 -0.000000
v 0.026789 0.033482 -0.057993
v 0.026789 -0.033483 -0.057993
v 0.026789 0.033482 0.057994
v 0.026789 -0.033483 0.057994
v 0.026789 -0.066965 -0.000000
v 1.296152 0.075311 -0.000000
v 1.296152 0.037656 0.065222
v 1.296152 -0.037656 0.065222
v 1.397719 0.026946 0.046672
v 1.397719 -0.026946 0.046672
v 1.296152 -0.075312 -0.000000
v 1.296152 0.037656 -0.065221
v 1.296152 -0.037656 -0.065221
v 1.397719 -0.053892 -0.000000
v 1.504557 -0.008188 0.014183
v 1.504557 -0.016377 -0.000000
v 1.397719 -0.026946 -0.046672
v 1.397719 0.026946 -0.046671
v 1.397719 0.053892 -0.000000
v 1.504557 0.008188 0.014183
v 1.504557 -0.008188 -0.014183
v 1.504557 0.008188 -0.014183
v 1.504557 0.016377 -0.000000
vt 0.001917 0.273263
vt 0.002842 0.274612
vt 0.001744 0.274612
vt 0.003015 0.273263
vt 0.748156 0.475604
vt 0.749505 0.477940
vt 0.748156 0.480276
vt 0.745458 0.480276
vt 0.744109 0.477940
vt 0.745458 0.475604
vt 0.584772 0.319611
vt 0.583674 0.322309
vt 0.583674 0.319611
vt 0.584772 0.322309
vt 0.001917 0.270565
vt 0.002842 0.269216
vt 0.003015 0.270565
vt 0.001744 0.269216
vt 0.583847 0.323657
vt 0.584945 0.323657
vt 0.583847 0.318262
vt 0.584945 0.318262
vt 0.818650 0.862883
vt 0.780676 0.865718
vt 0.780312 0.862883
vt 0.819014 0.865718
vt 0.283321 0.856410
vt 0.244620 0.859245
vt 0.244984 0.856410
vt 0.282958 0.859245
vt 0.244620 0.864915
vt 0.282958 0.864916
vt 0.244984 0.867751
vt 0.283321 0.867751
vt 0.286735 0.860058
vt 0.286995 0.858035
vt 0.819014 0.854378
vt 0.780312 0.857213
vt 0.780676 0.854378
vt 0.818650 0.857213
vt 0.779174 0.857569
vt 0.779174 0.862527
vt 0.777826 0.857241
vt 0.777826 0.862855
vt 0.648615 0.995220
vt 0.643704 0.997344
vt 0.647998 0.994864
vt 0.643704 0.998055
vt 0.417500 0.802781
vt 0.421795 0.805972
vt 0.417500 0.803493
vt 0.422411 0.805616
vt 0.638794 0.995220
vt 0.639410 0.994864
vt 0.413206 0.805972
vt 0.412590 0.805616
vt 0.243482 0.859601
vt 0.243482 0.864560
vt 0.062974 0.328947
vt 0.059622 0.333809
vt 0.062701 0.328476
vt 0.071394 0.333809
vt 0.068859 0.328476
vt 0.071939 0.333809
vt 0.068587 0.338670
vt 0.062701 0.339142
vt 0.062974 0.338670
vt 0.060167 0.333809
vt 0.068587 0.328947
vt 0.068859 0.339142
vt 0.243800 0.867039
vt 0.242134 0.864887
vt 0.242494 0.867694
vt 0.242494 0.856467
vt 0.243800 0.857122
vt 0.242134 0.859274
vt 0.778186 0.854435
vt 0.779492 0.855089
vt 0.778186 0.865661
vt 0.779492 0.865007
vt 0.455715 0.678955
vt 0.454409 0.672797
vt 0.455715 0.672797
vt 0.454409 0.678955
vt 0.980129 0.004854
vt 0.977351 0.009409
vt 0.977354 0.006453
vt 0.969462 0.004845
vt 0.974795 0.004973
vt 0.972234 0.006449
vt 0.974787 0.014087
vt 0.972232 0.009404
vt 0.974790 0.010885
vt 0.980123 0.011013
vt 0.974798 0.001771
vt 0.969457 0.011003
vt 0.417920 0.599264
vt 0.417009 0.602343
vt 0.416614 0.599264
vt 0.418315 0.602343
vt 0.418315 0.590026
vt 0.416614 0.593105
vt 0.417009 0.590026
vt 0.417920 0.593105
vt 0.454804 0.669718
vt 0.456110 0.669718
vt 0.456110 0.682034
vt 0.454804 0.682034
vt 0.822427 0.858025
vt 0.828147 0.862071
vt 0.822427 0.862071
vt 0.828147 0.858025
vt 0.822687 0.856003
vt 0.822687 0.864093
vt 0.286735 0.864103
vt 0.286995 0.866126
vt 0.375841 0.806781
vt 0.378883 0.804492
vt 0.379344 0.804758
vt 0.372337 0.804758
vt 0.372799 0.800979
vt 0.372799 0.804492
vt 0.375841 0.798690
vt 0.378883 0.800979
vt 0.375841 0.799223
vt 0.379344 0.800713
vt 0.375841 0.806248
vt 0.372337 0.800713
vt 0.292714 0.866126
vt 0.292455 0.864103
vt 0.292455 0.860058
vt 0.292714 0.858035
vt 0.828407 0.856003
vt 0.828407 0.864093
vt 0.959306 0.603764
vt 0.958275 0.602286
vt 0.959495 0.602286
vt 0.958086 0.603764
vt 0.795814 0.371900
vt 0.797417 0.374239
vt 0.797287 0.374463
vt 0.800243 0.374468
vt 0.801468 0.371911
vt 0.801726 0.371912
vt 0.800253 0.369349
vt 0.797426 0.369567
vt 0.797297 0.369343
vt 0.800114 0.374245
vt 0.800124 0.369572
vt 0.796072 0.371900
vt 0.959799 0.408520
vt 0.958579 0.405564
vt 0.959799 0.405564
vt 0.958579 0.408520
vt 0.959306 0.606719
vt 0.958275 0.608197
vt 0.958086 0.606719
vt 0.959495 0.608197
vt 0.959989 0.409998
vt 0.958769 0.409998
vt 0.959989 0.404086
vt 0.958769 0.404086
vt 0.693076 0.567318
vt 0.687283 0.565750
vt 0.692850 0.565562
vt 0.687496 0.567412
vt 0.687496 0.570736
vt 0.682965 0.567885
vt 0.682965 0.570264
vt 0.692850 0.572586
vt 0.693076 0.570830
vt 0.687283 0.572398
vt 0.786665 0.782158
vt 0.792019 0.784009
vt 0.786439 0.783915
vt 0.792232 0.782346
vt 0.786439 0.787427
vt 0.792232 0.788995
vt 0.786665 0.789183
vt 0.792019 0.787333
vt 0.682812 0.571453
vt 0.678156 0.569436
vt 0.678110 0.569797
vt 0.796703 0.788049
vt 0.796550 0.786860
vt 0.796550 0.784481
vt 0.682812 0.566695
vt 0.796703 0.783292
vt 0.951897 0.083495
vt 0.952523 0.083856
vt 0.951899 0.084941
vt 0.952524 0.084579
vt 0.951272 0.084581
vt 0.951271 0.083858
vt 0.801405 0.784948
vt 0.801359 0.785309
vt 0.678156 0.568713
vt 0.801359 0.786032
vt 0.801405 0.786394
vt 0.678110 0.568351
vn 0.0000 0.8660 -0.5000
vn -1.0000 0.0000 0.0000
vn 0.0000 -0.0000 1.0000
vn 0.0000 -0.8660 -0.5000
vn 0.0000 0.0000 -1.0000
vn 0.0000 0.8660 0.5000
vn 0.0000 -0.8660 0.5000
vn 0.3569 -0.8090 0.4671
vn -0.4605 0.0000 -0.8877
vn 0.3974 0.0000 -0.9177
vn -0.4605 0.7688 0.4438
vn -0.4605 -0.7688 0.4438
vn -0.4604 -0.7688 0.4438
vn -0.4605 0.7687 -0.4438
vn -0.4605 0.7688 -0.4438
vn -0.4605 -0.7688 -0.4438
vn -0.4605 -0.0000 0.8877
vn 1.0000 0.0000 0.0000
vn 0.3974 0.7947 0.4588
vn 0.3974 -0.7947 0.4588
vn 0.3974 0.7947 -0.4588
vn 0.3974 -0.0000 0.9177
vn 0.3974 -0.7947 -0.4588
vn 0.3569 0.8090 -0.4671
vn 0.3569 -0.8090 -0.4671
vn 0.3569 -0.0000 0.9342
vn 0.3569 0.0000 -0.9342
vn 0.3569 0.8090 0.4671
vn 0.0292 0.8657 0.4998
vn 0.1797 -0.0000 0.9837
vn 0.0292 -0.8657 0.4998
vn 0.0292 0.8657 -0.4998
vn 0.0292 -0.0000 0.9996
vn 0.0292 -0.8657 -0.4998
vn 0.0292 0.0000 -0.9996
vn 0.2909 -0.8286 0.4784
vn 0.1797 -0.8519 -0.4919
vn 0.1797 0.0000 -0.9837
vn 0.1797 0.8519 0.4919
vn 0.1797 -0.8519 0.4919
vn 0.1797 0.8519 -0.4919
vn 0.2909 0.8286 -0.4784
vn 0.2909 0.0000 0.9567
vn 0.2909 -0.8286 -0.4784
vn 0.2909 0.0000 -0.9567
vn 0.2909 0.8286 0.4784
vn 0.2909 0.8285 0.4784
usemtl main
s 1
f 1/1/1 2/2/1 3/3/1
f 1/1/1 4/4/1 2/2/1
s 2
f 5/5/2 2/6/2 4/7/2
f 4/7/2 6/8/2 7/9/2
f 7/9/2 8/10/2 4/7/2
f 8/10/2 5/5/2 4/7/2
s 3
f 9/11/3 5/12/3 8/13/3
f 9/11/3 10/14/3 5/12/3
s 4
f 11/15/4 7/16/4 6/17/4
f 11/15/4 12/18/4 7/16/4
s 5
f 11/15/5 4/4/5 1/1/5
f 11/15/5 6/17/5 4/4/5
s 6
f 10/14/6 2/19/6 5/12/6
f 10/14/6 3/20/6 2/19/6
s 7
f 9/11/7 8/13/7 7/21/7
f 9/11/7 7/21/7 12/22/7
s 8
f 13/23/4 14/24/4 15/25/4
f 13/23/4 16/26/4 14/24/4
s 9
f 16/27/7 17/28/7 14/29/7
f 16/27/7 18/30/7 17/28/7
s 10
f 18/30/3 19/31/3 17/28/3
f 18/30/3 20/32/3 19/31/3
s 11
f 20/32/6 21/33/6 19/31/6
f 20/32/6 22/34/6 21/33/6
s 12
f 16/27/8 23/35/8 18/30/8
f 16/27/8 24/36/8 23/35/8
s 13
f 22/37/1 25/38/1 21/39/1
f 22/37/1 26/40/1 25/38/1
s 14
f 26/40/5 15/25/5 25/38/5
f 26/40/5 13/23/5 15/25/5
s 15
f 15/25/9 27/41/9 25/38/9
f 15/25/9 28/42/9 27/41/9
s 16
f 28/42/10 29/43/10 27/41/10
f 28/42/10 30/44/10 29/43/10
s 17
f 19/45/11 31/46/11 32/47/11
f 19/45/11 21/48/11 31/46/11
s 18
f 14/49/12 33/50/13 34/51/12
f 14/49/12 17/52/13 33/50/13
s 19
f 25/53/14 31/46/15 21/48/15
f 25/53/14 27/54/14 31/46/15
s 20
f 14/49/16 28/55/16 15/56/16
f 14/49/16 34/51/16 28/55/16
s 21
f 19/31/17 33/57/17 17/28/17
f 19/31/17 32/58/17 33/57/17
s 22
f 35/59/18 36/60/18 37/61/18
f 38/62/18 39/63/18 40/64/18
f 41/65/18 42/66/18 30/67/18
f 29/68/18 42/66/18 36/60/18
f 35/59/18 39/63/18 43/69/18
f 38/62/18 44/70/18 41/65/18
f 35/59/18 29/68/18 36/60/18
f 38/62/18 43/69/18 39/63/18
f 41/65/18 44/70/18 42/66/18
f 29/68/18 30/67/18 42/66/18
f 35/59/18 37/61/18 39/63/18
f 38/62/18 40/64/18 44/70/18
s 23
f 31/71/19 43/72/19 32/58/19
f 31/71/19 35/73/19 43/72/19
s 24
f 33/57/20 41/74/20 34/75/20
f 33/57/20 38/76/20 41/74/20
s 25
f 27/41/21 35/77/21 31/78/21
f 27/41/21 29/43/21 35/77/21
s 26
f 33/57/22 43/72/22 38/76/22
f 33/57/22 32/58/22 43/72/22
s 27
f 28/42/23 41/79/23 30/44/23
f 28/42/23 34/80/23 41/79/23
s 28
f 42/81/5 45/82/5 36/83/5
f 42/81/5 46/84/5 45/82/5
s 29
f 47/85/2 48/86/2 49/87/2
f 50/88/2 51/89/2 52/90/2
f 46/91/2 53/92/2 54/93/2
f 45/94/2 54/93/2 48/86/2
f 47/85/2 51/89/2 55/95/2
f 56/96/2 52/90/2 53/92/2
f 47/85/2 45/94/2 48/86/2
f 50/88/2 55/95/2 51/89/2
f 46/91/2 56/96/2 53/92/2
f 45/94/2 46/91/2 54/93/2
f 47/85/2 49/87/2 51/89/2
f 56/96/2 50/88/2 52/90/2
s 30
f 39/97/6 47/98/6 55/99/6
f 39/97/6 37/100/6 47/98/6
s 31
f 44/101/7 50/102/7 56/103/7
f 44/101/7 40/104/7 50/102/7
s 32
f 36/83/1 47/105/1 37/106/1
f 36/83/1 45/82/1 47/105/1
s 33
f 39/97/3 50/102/3 40/104/3
f 39/97/3 55/99/3 50/102/3
s 34
f 44/107/4 46/84/4 42/81/4
f 44/107/4 56/108/4 46/84/4
s 35
f 57/109/5 58/110/5 59/111/5
f 57/109/5 60/112/5 58/110/5
s 36
f 26/40/24 61/113/24 57/109/24
f 26/40/24 22/37/24 61/113/24
s 37
f 13/23/25 24/114/25 16/26/25
f 13/23/25 59/111/25 24/114/25
s 38
f 20/32/26 23/35/26 62/115/26
f 20/32/26 18/30/26 23/35/26
s 39
f 26/40/27 59/111/27 13/23/27
f 26/40/27 57/109/27 59/111/27
s 40
f 20/32/28 61/116/28 22/34/28
f 20/32/28 62/115/28 61/116/28
s 41
f 63/117/18 64/118/18 60/119/18
f 65/120/18 66/121/18 67/122/18
f 68/123/18 69/124/18 70/125/18
f 58/126/18 64/118/18 69/124/18
f 65/120/18 71/127/18 63/117/18
f 68/123/18 66/121/18 72/128/18
f 63/117/18 71/127/18 64/118/18
f 65/120/18 72/128/18 66/121/18
f 68/123/18 58/126/18 69/124/18
f 58/126/18 60/119/18 64/118/18
f 65/120/18 67/122/18 71/127/18
f 68/123/18 70/125/18 66/121/18
s 42
f 62/115/6 63/129/6 61/116/6
f 62/115/6 65/130/6 63/129/6
s 43
f 24/36/7 72/131/7 23/35/7
f 24/36/7 68/132/7 72/131/7
s 44
f 61/113/1 60/112/1 57/109/1
f 61/113/1 63/133/1 60/112/1
s 45
f 23/35/3 65/130/3 62/115/3
f 23/35/3 72/131/3 65/130/3
s 46
f 59/111/4 68/134/4 24/114/4
f 59/111/4 58/110/4 68/134/4
s 47
f 48/135/7 73/136/7 49/137/7
f 48/135/7 74/138/7 73/136/7
s 48
f 75/139/2 1/140/2 74/141/2
f 73/142/2 10/143/2 76/144/2
f 77/145/2 12/146/2 78/147/2
f 74/141/2 3/148/2 73/142/2
f 77/145/2 10/143/2 9/149/2
f 78/147/2 11/150/2 75/139/2
f 75/139/2 11/150/2 1/140/2
f 73/142/2 3/148/2 10/143/2
f 77/145/2 9/149/2 12/146/2
f 74/141/2 1/140/2 3/148/2
f 77/145/2 76/144/2 10/143/2
f 78/147/2 12/146/2 11/150/2
s 49
f 51/151/5 77/152/5 52/153/5
f 51/151/5 76/154/5 77/152/5
s 50
f 54/155/6 78/156/6 75/157/6
f 54/155/6 53/158/6 78/156/6
s 51
f 48/135/3 75/157/3 74/138/3
f 48/135/3 54/155/3 75/157/3
s 52
f 49/159/4 76/154/4 51/151/4
f 49/159/4 73/160/4 76/154/4
s 53
f 53/161/1 77/152/1 78/162/1
f 53/161/1 52/153/1 77/152/1
s 54
f 67/163/29 79/164/29 71/165/29
f 67/163/29 80/166/29 79/164/29
s 55
f 81/167/30 82/168/30 80/166/30
f 81/167/30 83/169/30 82/168/30
s 56
f 70/170/31 81/167/31 66/171/31
f 70/170/31 84/172/31 81/167/31
s 57
f 71/173/32 85/174/32 64/175/32
f 71/173/32 79/176/32 85/174/32
s 58
f 66/171/33 80/166/33 67/163/33
f 66/171/33 81/167/33 80/166/33
s 59
f 69/177/34 84/178/34 70/179/34
f 69/177/34 86/180/34 84/178/34
s 60
f 64/175/35 86/180/35 69/177/35
f 64/175/35 85/174/35 86/180/35
s 61
f 87/181/36 88/182/36 83/169/36
f 87/181/36 89/183/36 88/182/36
s 62
f 86/180/37 87/184/37 84/178/37
f 86/180/37 90/185/37 87/184/37
s 63
f 85/174/38 90/185/38 86/180/38
f 85/174/38 91/186/38 90/185/38
s 64
f 80/166/39 92/187/39 79/164/39
f 80/166/39 82/168/39 92/187/39
s 65
f 81/167/40 87/181/40 83/169/40
f 81/167/40 84/172/40 87/181/40
s 66
f 85/174/41 92/188/41 91/186/41
f 85/174/41 79/176/41 92/188/41
s 67
f 93/189/18 88/190/18 94/191/18
f 88/190/18 89/192/18 94/191/18
f 94/191/18 95/193/18 96/194/18
f 96/194/18 93/189/18 94/191/18
s 68
f 91/186/42 96/195/42 95/196/42
f 91/186/42 92/188/42 96/195/42
s 69
f 83/169/43 93/197/43 82/168/43
f 83/169/43 88/182/43 93/197/43
s 70
f 87/184/44 94/198/44 89/199/44
f 87/184/44 90/185/44 94/198/44
s 71
f 91/186/45 94/198/45 90/185/45
f 91/186/45 95/196/45 94/198/45
s 72
f 82/168/46 96/200/46 92/187/46
f 82/168/46 93/197/47 96/200/46
