# Blender v2.91.0 OBJ File: ''
# www.blender.org
mtllib military_cap.mtl
o headModel
v -2.088016 -8.644925 -4.246119
v 2.088020 -8.644924 -4.246119
v -2.088017 -6.556893 -4.246119
v 2.088020 -6.556892 -4.246119
v -4.178075 -8.913111 -4.220562
v 4.178080 -8.913109 -4.220561
v 4.178079 -8.913111 4.135373
v -4.178076 -8.913112 4.135372
v 4.178078 -5.808123 4.135373
v -4.178076 -5.808124 4.135373
v 4.177859 -6.318975 -4.220561
v -4.178075 -5.808122 -4.220562
v 4.178079 -5.808121 -4.220561
v -4.178075 -6.318977 -4.220562
v -4.177855 -5.808122 -6.495923
v 4.177859 -5.808120 -6.495922
v -4.177855 -6.318976 -6.495923
v 4.177859 -6.318975 -6.495922
v 1.578074 -7.352756 4.135373
v -1.578072 -7.352757 4.135372
v 1.578074 -6.307910 4.135373
v -1.578072 -6.307910 4.135373
v 1.578075 -7.352756 1.313881
v -1.578072 -7.352756 1.313881
v 1.578074 -6.307909 1.313881
v -1.578072 -6.307910 1.313881
v 3.669939 -5.808123 3.627248
v -3.669937 -5.808124 3.627248
v -3.669936 -5.808122 -3.712437
v 3.669939 -5.808121 -3.712436
vt 0.515910 0.929450
vt 0.523360 0.804980
vt 0.515910 0.804980
vt 0.734080 0.929450
vt 0.734080 0.804980
vt 0.726020 0.804980
vt 0.687270 0.929450
vt 0.687270 0.804980
vt 0.562760 0.929450
vt 0.562760 0.804980
vt 0.687270 0.976320
vt 0.648510 0.953050
vt 0.648510 0.968820
vt 0.562760 0.976320
vt 0.601470 0.968820
vt 0.601470 0.953050
vt 0.984010 0.124640
vt 0.984010 0.016010
vt 0.765980 0.016010
vt 0.765980 0.124640
vt 0.687270 0.765920
vt 0.562760 0.765920
vt 0.562760 0.711210
vt 0.562760 0.749760
vt 0.687270 0.749760
vt 0.687270 0.711210
vt 0.687270 0.711210
vt 0.687270 0.749760
vt 0.562760 0.749760
vt 0.562760 0.711210
vt 0.624630 0.959920
vt 0.624630 0.959920
vt 0.624630 0.959920
vt 0.624630 0.959920
vt 0.624630 0.959920
vt 0.624630 0.959920
vt 0.624630 0.959920
vt 0.624630 0.959920
vt 0.648510 0.968820
vt 0.648510 0.953050
vt 0.601470 0.953050
vt 0.601470 0.968820
vt 0.562760 0.703400
vt 0.687270 0.703400
vt 0.694950 0.711210
vt 0.694950 0.749760
vt 0.555040 0.711210
vt 0.555040 0.749760
vt 0.536810 0.777670
vt 0.536810 0.777670
vt 0.536810 0.777670
vt 0.536810 0.777670
vt 0.532910 0.960750
vt 0.532910 0.960750
vt 0.532910 0.960750
vt 0.532910 0.960750
vt 0.532910 0.960750
vt 0.532910 0.960750
vt 0.532910 0.960750
vt 0.532910 0.960750
vn 1.0000 0.0000 0.0000
vn -1.0000 0.0004 -0.0000
vn -1.0000 -0.0000 0.0000
vn -1.0000 -0.0001 -0.0000
vn 0.0000 0.0000 -1.0000
vn -0.0000 -0.0000 1.0000
vn -0.0000 1.0000 0.0000
vn 0.0000 -1.0000 -0.0000
vn -1.0000 0.0004 0.0001
vn 1.0000 0.0000 0.0001
usemtl [Imported]_mat1
s off
f 10/1/1 14/2/1 12/3/1
f 9/4/2 13/5/2 11/6/2
f 7/7/3 9/4/3 11/6/3
f 7/7/4 11/6/4 6/8/4
f 8/9/1 5/10/1 14/2/1
f 8/9/1 14/2/1 10/1/1
f 9/11/5 7/7/5 19/12/5
f 9/11/5 19/12/5 21/13/5
f 10/14/5 22/15/5 20/16/5
f 10/14/5 20/16/5 8/9/5
f 2/17/6 4/18/6 3/19/6
f 2/17/6 3/19/6 1/20/6
f 7/7/7 6/8/7 5/10/7
f 7/7/7 5/10/7 8/9/7
f 5/10/6 6/8/6 11/21/6
f 5/10/6 11/21/6 14/22/6
f 17/23/7 14/24/7 11/25/7
f 17/23/7 11/25/7 18/26/7
f 16/27/8 13/28/8 12/29/8
f 16/27/8 12/29/8 15/30/8
f 19/12/5 7/7/5 8/9/5
f 19/12/5 8/9/5 20/16/5
f 10/14/5 9/11/5 21/13/5
f 10/14/5 21/13/5 22/15/5
f 26/31/7 22/32/7 21/33/7
f 26/31/7 21/33/7 25/34/7
f 25/34/1 21/33/1 19/35/1
f 25/34/1 19/35/1 23/36/1
f 23/36/8 19/35/8 20/37/8
f 23/36/8 20/37/8 24/38/8
f 24/38/3 20/37/3 22/32/3
f 24/38/3 22/32/3 26/31/3
f 25/39/5 23/40/5 24/41/5
f 25/39/5 24/41/5 26/42/5
f 15/43/6 17/23/6 18/26/6
f 15/43/6 18/26/6 16/44/6
f 16/45/3 18/26/3 11/25/3
f 16/45/9 11/25/9 13/46/9
f 14/24/10 17/23/10 15/47/10
f 14/24/10 15/47/10 12/48/10
f 30/49/8 27/50/8 28/51/8
f 30/49/8 28/51/8 29/52/8
f 10/53/8 12/54/8 29/55/8
f 10/53/8 29/55/8 28/56/8
f 9/57/8 10/53/8 28/56/8
f 9/57/8 28/56/8 27/58/8
f 30/59/8 13/60/8 9/57/8
f 30/59/8 9/57/8 27/58/8
f 30/59/8 29/55/8 12/54/8
f 30/59/8 12/54/8 13/60/8
