# Blender v2.91.0 OBJ File: ''
# www.blender.org
mtllib tactical_vest_lv1.mtl
o armorModel
v -3.917310 2.750014 -3.009380
v -3.917310 11.758429 -2.867977
v 3.940858 2.750014 -3.009380
v 3.940858 11.758429 -2.867977
v 3.940858 2.733858 -1.980108
v 3.940858 11.742271 -1.838705
v -3.917310 2.733858 -1.980108
v -3.917310 11.742271 -1.838705
v -3.917310 1.546987 2.105049
v -3.917310 11.677872 2.264071
v 3.940858 1.546987 2.105049
v 3.940858 11.677872 2.264071
v 3.940858 1.530830 3.134320
v 3.940858 11.661716 3.293342
v -3.917310 1.530830 3.134320
v -3.917310 11.661716 3.293342
v 1.640225 -0.113210 -2.552446
v 1.640225 2.855814 -2.505842
v 3.885416 -0.113210 -2.552446
v 3.885416 2.855814 -2.505842
v 3.885416 -0.193991 2.593912
v 3.885416 2.775033 2.640516
v 1.640225 -0.193991 2.593912
v 1.640225 2.775033 2.640516
v -1.616678 -0.113210 -2.552446
v -1.616678 2.855814 -2.505842
v -3.861869 -0.113210 -2.552446
v -3.861869 2.855814 -2.505842
v -3.861869 -0.193991 2.593912
v -3.861869 2.775033 2.640516
v -1.616678 -0.193991 2.593912
v -1.616678 2.775033 2.640516
v 1.640225 -0.121305 -2.036781
v 1.640225 2.847720 -1.990177
v 3.885416 -0.121305 -2.036781
v 3.885416 2.847720 -1.990177
v -1.616678 -0.121305 -2.036781
v -1.616678 2.847720 -1.990177
v -3.861869 -0.121305 -2.036781
v -3.861869 2.847720 -1.990177
v 3.885416 -0.186063 2.088855
v 3.885416 2.782961 2.135459
v 1.640225 -0.186063 2.088855
v 1.640225 2.782961 2.135459
v -3.861869 -0.186063 2.088855
v -3.861869 2.782961 2.135459
v -1.616678 -0.186063 2.088855
v -1.616678 2.782961 2.135459
v 1.640225 0.450037 -2.543605
v 3.885416 0.450037 -2.543605
v 3.885416 0.369256 2.602753
v 1.640225 0.369256 2.602753
v -1.616678 0.450037 -2.543605
v -3.861869 0.450037 -2.543605
v -3.861869 0.369256 2.602753
v -1.616678 0.369256 2.602753
v 1.640225 0.441942 -2.027940
v 3.885416 0.441942 -2.027940
v -1.616678 0.441942 -2.027940
v -3.861869 0.441942 -2.027940
v 3.885416 0.377183 2.097696
v 1.640225 0.377183 2.097696
v -3.861869 0.377183 2.097696
v -1.616678 0.377183 2.097696
v 3.913771 9.358112 -2.446560
v 3.913771 11.726095 -2.366607
v 4.536366 9.358112 -2.446560
v 4.536366 11.726095 -2.366607
v 4.536366 9.277331 2.699797
v 4.536366 11.645314 2.779751
v 3.913771 9.277331 2.699797
v 3.913771 11.645314 2.779751
v -3.890223 9.358112 -2.446560
v -3.890223 11.726095 -2.366607
v -4.512819 9.358112 -2.446560
v -4.512819 11.726095 -2.366607
v -4.512819 9.277331 2.699797
v -4.512819 11.645314 2.779751
v -3.890223 9.277331 2.699797
v -3.890223 11.645314 2.779751
v 2.600714 3.074686 -3.500116
v 2.600714 4.758338 -3.473688
v 3.723310 3.074686 -3.500116
v 3.723310 4.758338 -3.473688
v 3.723310 3.066608 -2.985480
v 3.723310 4.750260 -2.959052
v 2.600714 3.066608 -2.985480
v 2.600714 4.750260 -2.959052
v -2.228854 3.883082 -3.021899
v -2.228854 6.127935 -2.986662
v 0.016337 3.883082 -3.021899
v 0.016337 6.127935 -2.986662
v 0.134879 7.679919 -3.947407
v 0.134879 11.608442 -3.885742
v 1.818772 7.679919 -3.947407
v 1.818772 11.608442 -3.885742
v 1.818772 7.663763 -2.918135
v 1.818772 11.592286 -2.856470
v 0.134879 7.663763 -2.918135
v 0.134879 11.592286 -2.856470
v 1.818772 7.663763 -2.918135
v 1.818772 11.592286 -2.856470
v 0.134879 7.663763 -2.918135
v 0.134879 11.592286 -2.856470
v 2.093754 7.679919 -3.947407
v 2.093754 11.608442 -3.885742
v 3.777647 7.679919 -3.947407
v 3.777647 11.608442 -3.885742
v 3.777647 7.663763 -2.918135
v 3.777647 11.592286 -2.856470
v 2.093754 7.663763 -2.918135
v 2.093754 11.592286 -2.856470
v 3.777647 7.663763 -2.918135
v 3.777647 11.592286 -2.856470
v 2.093754 7.663763 -2.918135
v 2.093754 11.592286 -2.856470
v -0.111332 7.679919 -3.947407
v -0.111332 11.608442 -3.885742
v -1.795225 7.679919 -3.947407
v -1.795225 11.608442 -3.885742
v -1.795225 7.663763 -2.918135
v -1.795225 11.592286 -2.856470
v -0.111332 7.663763 -2.918135
v -0.111332 11.592286 -2.856470
v -1.795225 7.663763 -2.918135
v -1.795225 11.592286 -2.856470
v -0.111332 7.663763 -2.918135
v -0.111332 11.592286 -2.856470
v -2.070206 7.679919 -3.947407
v -2.070206 11.608442 -3.885742
v -3.754100 7.679919 -3.947407
v -3.754100 11.608442 -3.885742
v -3.754100 7.663763 -2.918135
v -3.754100 11.592286 -2.856470
v -2.070206 7.663763 -2.918135
v -2.070206 11.592286 -2.856470
v -3.754100 7.663763 -2.918135
v -3.754100 11.592286 -2.856470
v -2.070206 7.663763 -2.918135
v -2.070206 11.592286 -2.856470
v 0.088979 3.907060 -3.711902
v 0.088979 6.713112 -3.667856
v 1.211575 3.907060 -3.711902
v 1.211575 6.713112 -3.667856
v 1.211575 3.894942 -2.939948
v 1.211575 6.700995 -2.895903
v 0.088979 3.894942 -2.939948
v 0.088979 6.700995 -2.895903
v 1.211575 3.894942 -2.939948
v 1.211575 6.700995 -2.895903
v 0.088979 3.894942 -2.939948
v 0.088979 6.700995 -2.895903
v 1.377411 3.907060 -3.711902
v 1.377411 6.713112 -3.667856
v 2.500007 3.907060 -3.711902
v 2.500007 6.713112 -3.667856
v 2.500007 3.894942 -2.939948
v 2.500007 6.700995 -2.895903
v 1.377411 3.894942 -2.939948
v 1.377411 6.700995 -2.895903
v 2.500007 3.894942 -2.939948
v 2.500007 6.700995 -2.895903
v 1.377411 3.894942 -2.939948
v 1.377411 6.700995 -2.895903
vt 0.796820 0.960870
vt 0.796820 0.945250
vt 0.687550 0.945250
vt 0.687550 0.960870
vt 0.796820 0.820360
vt 0.796820 0.804760
vt 0.687550 0.804760
vt 0.687550 0.820360
vt 0.812440 0.945250
vt 0.812440 0.820360
vt 0.671940 0.820360
vt 0.671940 0.945250
vt 0.816570 0.965980
vt 0.816570 0.965980
vt 0.816570 0.965980
vt 0.816570 0.965980
vt 0.851670 0.960840
vt 0.851670 0.976400
vt 0.960770 0.976400
vt 0.960770 0.960840
vt 0.851670 0.804780
vt 0.851670 0.820400
vt 0.960770 0.820400
vt 0.960770 0.804780
vt 0.836050 0.820400
vt 0.836050 0.960840
vt 0.976300 0.960840
vt 0.976300 0.820400
vt 0.816150 0.964480
vt 0.816150 0.964480
vt 0.816150 0.964480
vt 0.816150 0.964480
vt 0.609270 0.679790
vt 0.578230 0.679790
vt 0.578230 0.687400
vt 0.609270 0.687400
vt 0.609270 0.867100
vt 0.609270 0.859480
vt 0.578230 0.859480
vt 0.578230 0.867100
vt 0.578230 0.757690
vt 0.609270 0.757690
vt 0.609270 0.750110
vt 0.578230 0.750110
vt 0.578230 0.937390
vt 0.609270 0.937390
vt 0.609270 0.929810
vt 0.578230 0.929810
vt 0.609270 0.640740
vt 0.578230 0.640740
vt 0.578230 0.664170
vt 0.609270 0.664170
vt 0.578230 0.796750
vt 0.609270 0.796750
vt 0.609270 0.773310
vt 0.578230 0.773310
vt 0.609270 0.843860
vt 0.578230 0.843860
vt 0.609270 0.820430
vt 0.578230 0.820430
vt 0.578230 0.953010
vt 0.609270 0.953010
vt 0.578230 0.976460
vt 0.609270 0.976460
vt 0.648320 0.687400
vt 0.648320 0.679790
vt 0.616950 0.679790
vt 0.616950 0.687400
vt 0.539170 0.679790
vt 0.539170 0.687400
vt 0.570450 0.687400
vt 0.570450 0.679790
vt 0.570450 0.859480
vt 0.570450 0.867100
vt 0.539170 0.859480
vt 0.539170 0.867100
vt 0.616950 0.867100
vt 0.616950 0.859480
vt 0.648320 0.867100
vt 0.648320 0.859480
vt 0.648320 0.757690
vt 0.648320 0.750110
vt 0.616950 0.750110
vt 0.616950 0.757690
vt 0.570450 0.750110
vt 0.570450 0.757690
vt 0.539170 0.750110
vt 0.539170 0.757690
vt 0.570450 0.929810
vt 0.570450 0.937390
vt 0.539170 0.929810
vt 0.539170 0.937390
vt 0.648320 0.937390
vt 0.648320 0.929810
vt 0.616950 0.929810
vt 0.616950 0.937390
vt 0.818440 0.965560
vt 0.818440 0.965560
vt 0.818440 0.965560
vt 0.818440 0.965560
vt 0.818440 0.965560
vt 0.818440 0.965560
vt 0.818440 0.965560
vt 0.818440 0.965560
vt 0.818440 0.965560
vt 0.818440 0.965560
vt 0.818440 0.965560
vt 0.818440 0.965560
vt 0.818440 0.965560
vt 0.818440 0.965560
vt 0.818440 0.965560
vt 0.818440 0.965560
vt 0.818440 0.965560
vt 0.818440 0.965560
vt 0.818440 0.965560
vt 0.818440 0.965560
vt 0.818440 0.965560
vt 0.818440 0.965560
vt 0.818440 0.965560
vt 0.818440 0.965560
vt 0.898390 0.765570
vt 0.820370 0.765570
vt 0.820370 0.781210
vt 0.898390 0.781220
vt 0.820370 0.695410
vt 0.898390 0.695410
vt 0.898390 0.679790
vt 0.820370 0.679790
vt 0.765570 0.765570
vt 0.687540 0.765570
vt 0.687540 0.781210
vt 0.765570 0.781210
vt 0.687540 0.695410
vt 0.765570 0.695410
vt 0.765570 0.679790
vt 0.687540 0.679790
vt 0.804750 0.695410
vt 0.804750 0.765570
vt 0.914000 0.765570
vt 0.914000 0.695410
vt 0.781200 0.765570
vt 0.781200 0.695410
vt 0.671960 0.765570
vt 0.671960 0.695410
vt 0.817360 0.965200
vt 0.817360 0.965200
vt 0.817360 0.965200
vt 0.817360 0.965200
vt 0.817360 0.965200
vt 0.817360 0.965200
vt 0.817360 0.965200
vt 0.817360 0.965200
vt 0.585860 0.601500
vt 0.585860 0.554750
vt 0.554750 0.554750
vt 0.554750 0.601500
vt 0.601490 0.601500
vt 0.601490 0.554750
vt 0.539160 0.554750
vt 0.539160 0.601500
vt 0.585860 0.617120
vt 0.554750 0.617120
vt 0.585860 0.539120
vt 0.554750 0.539120
vt 0.984310 0.124950
vt 0.984310 0.015680
vt 0.875050 0.015680
vt 0.875050 0.124950
vt 0.703080 0.624950
vt 0.703080 0.515680
vt 0.656290 0.515680
vt 0.656290 0.624950
vt 0.734330 0.624950
vt 0.734330 0.515680
vt 0.625040 0.515680
vt 0.625040 0.624950
vt 0.703080 0.656210
vt 0.656290 0.656210
vt 0.703080 0.484430
vt 0.656290 0.484430
vt 0.636850 0.496200
vt 0.636850 0.496200
vt 0.636850 0.496200
vt 0.636850 0.496200
vt 0.703080 0.624950
vt 0.703080 0.515680
vt 0.656290 0.515680
vt 0.656290 0.624950
vt 0.734330 0.624950
vt 0.734330 0.515680
vt 0.625040 0.515680
vt 0.625040 0.624950
vt 0.703080 0.656210
vt 0.656290 0.656210
vt 0.703080 0.484430
vt 0.656290 0.484430
vt 0.636850 0.496200
vt 0.636850 0.496200
vt 0.636850 0.496200
vt 0.636850 0.496200
vt 0.703080 0.515680
vt 0.703080 0.624950
vt 0.656290 0.624950
vt 0.656290 0.515680
vt 0.734330 0.515680
vt 0.734330 0.624950
vt 0.625040 0.624950
vt 0.625040 0.515680
vt 0.703080 0.656210
vt 0.656290 0.656210
vt 0.703080 0.484430
vt 0.656290 0.484430
vt 0.636850 0.496200
vt 0.636850 0.496200
vt 0.636850 0.496200
vt 0.636850 0.496200
vt 0.703080 0.515680
vt 0.703080 0.624950
vt 0.656290 0.624950
vt 0.656290 0.515680
vt 0.734330 0.515680
vt 0.734330 0.624950
vt 0.625040 0.624950
vt 0.625040 0.515680
vt 0.703080 0.656210
vt 0.656290 0.656210
vt 0.703080 0.484430
vt 0.656290 0.484430
vt 0.636850 0.496200
vt 0.636850 0.496200
vt 0.636850 0.496200
vt 0.636850 0.496200
vt 0.812460 0.632790
vt 0.812460 0.554730
vt 0.781280 0.554730
vt 0.781280 0.632790
vt 0.835900 0.632790
vt 0.835900 0.554730
vt 0.757850 0.554730
vt 0.757850 0.632790
vt 0.812460 0.656220
vt 0.781280 0.656220
vt 0.812460 0.531280
vt 0.781280 0.531280
vt 0.765010 0.538640
vt 0.765010 0.538640
vt 0.765010 0.538640
vt 0.765010 0.538640
vt 0.812460 0.632790
vt 0.812460 0.554730
vt 0.781280 0.554730
vt 0.781280 0.632790
vt 0.835900 0.632790
vt 0.835900 0.554730
vt 0.757850 0.554730
vt 0.757850 0.632790
vt 0.812460 0.656220
vt 0.781280 0.656220
vt 0.812460 0.531280
vt 0.781280 0.531280
vt 0.765010 0.538640
vt 0.765010 0.538640
vt 0.765010 0.538640
vt 0.765010 0.538640
vn 0.0000 0.9999 0.0157
vn 0.0000 -0.9999 -0.0157
vn 0.0000 -0.0157 0.9999
vn -1.0000 0.0000 0.0000
vn 1.0000 0.0000 0.0000
vn 0.0000 0.0157 -0.9999
vn 0.0000 -0.0337 0.9994
vn 0.0000 0.0337 -0.9994
usemtl [Imported]_mat1
s off
f 5/1/1 3/2/1 1/3/1
f 5/1/1 1/3/1 7/4/1
f 4/5/2 6/6/2 8/7/2
f 4/5/2 8/7/2 2/8/2
f 2/8/3 1/3/3 3/2/3
f 2/8/3 3/2/3 4/5/3
f 4/5/4 3/2/4 5/9/4
f 4/5/4 5/9/4 6/10/4
f 8/11/5 7/12/5 1/3/5
f 8/11/5 1/3/5 2/8/5
f 5/13/6 7/14/6 8/15/6
f 5/13/6 8/15/6 6/16/6
f 13/17/1 11/18/1 9/19/1
f 13/17/1 9/19/1 15/20/1
f 12/21/2 14/22/2 16/23/2
f 12/21/2 16/23/2 10/24/2
f 12/25/4 11/26/4 13/17/4
f 12/25/4 13/17/4 14/22/4
f 14/22/6 13/17/6 15/20/6
f 14/22/6 15/20/6 16/23/6
f 16/23/5 15/20/5 9/27/5
f 16/23/5 9/27/5 10/28/5
f 11/29/3 12/30/3 10/31/3
f 11/29/3 10/31/3 9/32/3
f 19/33/1 17/34/1 33/35/1
f 19/33/1 33/35/1 35/36/1
f 37/37/1 25/38/1 27/39/1
f 37/37/1 27/39/1 39/40/1
f 23/41/1 21/42/1 41/43/1
f 23/41/1 41/43/1 43/44/1
f 41/43/1 35/36/1 33/35/1
f 41/43/1 33/35/1 43/44/1
f 29/45/1 31/46/1 47/47/1
f 29/45/1 47/47/1 45/48/1
f 47/47/1 37/37/1 39/40/1
f 47/47/1 39/40/1 45/48/1
f 20/49/3 18/50/3 49/51/3
f 20/49/3 49/51/3 50/52/3
f 49/51/3 17/34/3 19/33/3
f 49/51/3 19/33/3 50/52/3
f 24/53/6 22/54/6 51/55/6
f 24/53/6 51/55/6 52/56/6
f 51/55/6 21/42/6 23/41/6
f 51/55/6 23/41/6 52/56/6
f 27/39/3 25/38/3 53/57/3
f 27/39/3 53/57/3 54/58/3
f 53/57/3 26/59/3 28/60/3
f 53/57/3 28/60/3 54/58/3
f 31/46/6 29/45/6 55/61/6
f 31/46/6 55/61/6 56/62/6
f 55/61/6 30/63/6 32/64/6
f 55/61/6 32/64/6 56/62/6
f 36/65/4 20/66/4 50/67/4
f 36/65/4 50/67/4 58/68/4
f 50/67/4 19/33/4 35/36/4
f 50/67/4 35/36/4 58/68/4
f 18/69/5 34/70/5 57/71/5
f 18/69/5 57/71/5 49/72/5
f 57/71/5 33/35/5 17/34/5
f 57/71/5 17/34/5 49/72/5
f 39/40/5 27/39/5 54/73/5
f 39/40/5 54/73/5 60/74/5
f 54/73/5 28/75/5 40/76/5
f 54/73/5 40/76/5 60/74/5
f 25/38/4 37/37/4 59/77/4
f 25/38/4 59/77/4 53/78/4
f 59/77/4 38/79/4 26/80/4
f 59/77/4 26/80/4 53/78/4
f 22/81/4 42/82/4 61/83/4
f 22/81/4 61/83/4 51/84/4
f 61/83/4 41/43/4 21/42/4
f 61/83/4 21/42/4 51/84/4
f 58/68/4 35/36/4 41/43/4
f 58/68/4 41/43/4 61/83/4
f 23/41/5 43/44/5 62/85/5
f 23/41/5 62/85/5 52/86/5
f 62/85/5 44/87/5 24/88/5
f 62/85/5 24/88/5 52/86/5
f 43/44/5 33/35/5 57/71/5
f 43/44/5 57/71/5 62/85/5
f 29/45/5 45/48/5 63/89/5
f 29/45/5 63/89/5 55/90/5
f 63/89/5 46/91/5 30/92/5
f 63/89/5 30/92/5 55/90/5
f 45/48/5 39/40/5 60/74/5
f 45/48/5 60/74/5 63/89/5
f 32/93/4 48/94/4 64/95/4
f 32/93/4 64/95/4 56/96/4
f 64/95/4 47/47/4 31/46/4
f 64/95/4 31/46/4 56/96/4
f 59/77/4 37/37/4 47/47/4
f 59/77/4 47/47/4 64/95/4
f 28/97/2 26/98/2 38/99/2
f 28/97/2 38/99/2 40/100/2
f 60/101/6 40/100/6 38/99/6
f 60/101/6 38/99/6 59/102/6
f 59/102/2 64/103/2 63/104/2
f 59/102/2 63/104/2 60/101/2
f 63/104/3 64/103/3 48/105/3
f 63/104/3 48/105/3 46/106/3
f 46/106/2 48/105/2 32/107/2
f 46/106/2 32/107/2 30/108/2
f 62/109/2 57/110/2 58/111/2
f 62/109/2 58/111/2 61/112/2
f 18/113/2 20/114/2 36/115/2
f 18/113/2 36/115/2 34/116/2
f 57/110/6 34/116/6 36/115/6
f 57/110/6 36/115/6 58/111/6
f 61/112/3 42/117/3 44/118/3
f 61/112/3 44/118/3 62/109/3
f 24/119/2 44/118/2 42/117/2
f 24/119/2 42/117/2 22/120/2
f 69/121/1 67/122/1 65/123/1
f 69/121/1 65/123/1 71/124/1
f 68/125/2 70/126/2 72/127/2
f 68/125/2 72/127/2 66/128/2
f 75/129/1 77/130/1 79/131/1
f 75/129/1 79/131/1 73/132/1
f 78/133/2 76/134/2 74/135/2
f 78/133/2 74/135/2 80/136/2
f 66/137/7 65/138/7 67/122/7
f 66/137/7 67/122/7 68/125/7
f 68/125/4 67/122/4 69/121/4
f 68/125/4 69/121/4 70/126/4
f 70/126/8 69/121/8 71/139/8
f 70/126/8 71/139/8 72/140/8
f 75/129/7 73/141/7 74/142/7
f 75/129/7 74/142/7 76/134/7
f 77/130/5 75/129/5 76/134/5
f 77/130/5 76/134/5 78/133/5
f 79/143/8 77/130/8 78/133/8
f 79/143/8 78/133/8 80/144/8
f 66/145/5 72/146/5 71/147/5
f 66/145/5 71/147/5 65/148/5
f 80/149/4 74/150/4 73/151/4
f 80/149/4 73/151/4 79/152/4
f 83/153/3 84/154/3 82/155/3
f 83/153/3 82/155/3 81/156/3
f 85/157/4 86/158/4 84/154/4
f 85/157/4 84/154/4 83/153/4
f 81/156/5 82/155/5 88/159/5
f 81/156/5 88/159/5 87/160/5
f 85/161/1 83/153/1 81/156/1
f 85/161/1 81/156/1 87/162/1
f 84/154/2 86/163/2 88/164/2
f 84/154/2 88/164/2 82/155/2
f 91/165/3 92/166/3 90/167/3
f 91/165/3 90/167/3 89/168/3
f 95/169/3 96/170/3 94/171/3
f 95/169/3 94/171/3 93/172/3
f 97/173/4 98/174/4 96/170/4
f 97/173/4 96/170/4 95/169/4
f 93/172/5 94/171/5 100/175/5
f 93/172/5 100/175/5 99/176/5
f 97/177/1 95/169/1 93/172/1
f 97/177/1 93/172/1 99/178/1
f 96/170/2 98/179/2 100/180/2
f 96/170/2 100/180/2 94/171/2
f 103/181/6 104/182/6 102/183/6
f 103/181/6 102/183/6 101/184/6
f 107/185/3 108/186/3 106/187/3
f 107/185/3 106/187/3 105/188/3
f 109/189/4 110/190/4 108/186/4
f 109/189/4 108/186/4 107/185/4
f 105/188/5 106/187/5 112/191/5
f 105/188/5 112/191/5 111/192/5
f 109/193/1 107/185/1 105/188/1
f 109/193/1 105/188/1 111/194/1
f 108/186/2 110/195/2 112/196/2
f 108/186/2 112/196/2 106/187/2
f 115/197/6 116/198/6 114/199/6
f 115/197/6 114/199/6 113/200/6
f 120/201/3 119/202/3 117/203/3
f 120/201/3 117/203/3 118/204/3
f 122/205/5 121/206/5 119/202/5
f 122/205/5 119/202/5 120/201/5
f 118/204/4 117/203/4 123/207/4
f 118/204/4 123/207/4 124/208/4
f 119/202/1 121/209/1 123/210/1
f 119/202/1 123/210/1 117/203/1
f 122/211/2 120/201/2 118/204/2
f 122/211/2 118/204/2 124/212/2
f 128/213/6 127/214/6 125/215/6
f 128/213/6 125/215/6 126/216/6
f 132/217/3 131/218/3 129/219/3
f 132/217/3 129/219/3 130/220/3
f 134/221/5 133/222/5 131/218/5
f 134/221/5 131/218/5 132/217/5
f 130/220/4 129/219/4 135/223/4
f 130/220/4 135/223/4 136/224/4
f 131/218/1 133/225/1 135/226/1
f 131/218/1 135/226/1 129/219/1
f 134/227/2 132/217/2 130/220/2
f 134/227/2 130/220/2 136/228/2
f 140/229/6 139/230/6 137/231/6
f 140/229/6 137/231/6 138/232/6
f 143/233/3 144/234/3 142/235/3
f 143/233/3 142/235/3 141/236/3
f 145/237/4 146/238/4 144/234/4
f 145/237/4 144/234/4 143/233/4
f 141/236/5 142/235/5 148/239/5
f 141/236/5 148/239/5 147/240/5
f 145/241/1 143/233/1 141/236/1
f 145/241/1 141/236/1 147/242/1
f 144/234/2 146/243/2 148/244/2
f 144/234/2 148/244/2 142/235/2
f 151/245/6 152/246/6 150/247/6
f 151/245/6 150/247/6 149/248/6
f 155/249/3 156/250/3 154/251/3
f 155/249/3 154/251/3 153/252/3
f 157/253/4 158/254/4 156/250/4
f 157/253/4 156/250/4 155/249/4
f 153/252/5 154/251/5 160/255/5
f 153/252/5 160/255/5 159/256/5
f 157/257/1 155/249/1 153/252/1
f 157/257/1 153/252/1 159/258/1
f 156/250/2 158/259/2 160/260/2
f 156/250/2 160/260/2 154/251/2
f 163/261/6 164/262/6 162/263/6
f 163/261/6 162/263/6 161/264/6
