# Blender v2.91.0 OBJ File: ''
# www.blender.org
mtllib uniform.mtl
o leftLegModel
v 4.115798 12.000102 -2.106770
v -0.100387 12.000102 2.109415
v -0.100387 12.000104 -2.106771
v 4.115798 22.239407 2.109422
v -0.100385 22.239408 -2.106762
v -0.100386 22.239408 2.109422
v 4.115799 22.239408 -2.106761
v 4.115798 12.000102 2.109416
vt 1.515625 0.421875
vt 1.453125 0.484375
vt 1.453125 0.421875
vt 1.578125 0.421875
vt 1.515625 0.484375
vt 1.515625 0.421875
vt 1.515625 0.265625
vt 1.578125 0.421875
vt 1.640625 0.265625
vt 1.640625 0.421875
vt 1.578125 0.265625
vt 1.390625 0.421875
vt 1.453125 0.265625
vt 1.515625 0.484375
vt 1.578125 0.484375
vt 1.390625 0.265625
vn -0.0000 -1.0000 -0.0000
vn 0.0000 1.0000 0.0000
vn 0.0000 0.0000 -1.0000
vn -0.0000 -0.0000 1.0000
vn 1.0000 -0.0000 0.0000
vn -1.0000 0.0000 -0.0000
usemtl ModelMaterial.002
s 1
f 1/1/1 2/2/1 3/3/1
f 4/4/2 5/5/2 6/6/2
f 3/3/3 7/7/3 1/1/3
f 8/8/4 6/9/4 2/10/4
f 1/1/5 4/11/5 8/8/5
f 2/12/6 5/13/6 3/3/6
f 1/1/1 8/14/1 2/2/1
f 4/4/2 7/15/2 5/5/2
f 3/3/3 5/13/3 7/7/3
f 8/8/4 4/11/4 6/9/4
f 1/1/5 7/7/5 4/11/5
f 2/12/6 6/16/6 5/13/6
o rightArmModel
v -3.900004 -0.045962 -2.098693
v -8.100004 -0.045961 2.101306
v -8.100004 -0.045960 -2.098694
v -3.900003 10.154039 2.101316
v -8.100002 10.154039 -2.098684
v -8.100003 10.154039 2.101315
v -3.900002 10.154039 -2.098684
v -3.900004 -0.045963 2.101307
vt 1.140625 0.921875
vt 1.078125 0.984375
vt 1.078125 0.921875
vt 1.203125 0.921875
vt 1.140625 0.984375
vt 1.140625 0.921875
vt 1.140625 0.765625
vt 1.203125 0.921875
vt 1.265625 0.765625
vt 1.265625 0.921875
vt 1.203125 0.765625
vt 1.015625 0.921875
vt 1.078125 0.765625
vt 1.140625 0.984375
vt 1.203125 0.984375
vt 1.015625 0.765625
vn -0.0000 -1.0000 -0.0000
vn 0.0000 1.0000 -0.0000
vn 0.0000 0.0000 -1.0000
vn -0.0000 -0.0000 1.0000
vn 1.0000 -0.0000 0.0000
vn -1.0000 0.0000 -0.0000
usemtl ModelMaterial.002
s 1
f 9/17/7 10/18/7 11/19/7
f 12/20/8 13/21/8 14/22/8
f 11/19/9 15/23/9 9/17/9
f 16/24/10 14/25/10 10/26/10
f 9/17/11 12/27/11 16/24/11
f 10/28/12 13/29/12 11/19/12
f 9/17/7 16/30/7 10/18/7
f 12/20/8 15/31/8 13/21/8
f 11/19/9 13/29/9 15/23/9
f 16/24/10 12/27/10 14/25/10
f 9/17/11 15/23/11 12/27/11
f 10/28/12 14/32/12 13/29/12
o leftArmModel
v 8.099997 -0.045964 -2.098691
v 3.899996 -0.045963 2.101308
v 3.899997 -0.045962 -2.098692
v 8.099998 10.154037 2.101318
v 3.899998 10.154037 -2.098682
v 3.899997 10.154037 2.101317
v 8.099998 10.154037 -2.098682
v 8.099997 -0.045965 2.101309
vt 1.515625 0.921875
vt 1.453125 0.984375
vt 1.453125 0.921875
vt 1.578125 0.921875
vt 1.515625 0.984375
vt 1.515625 0.921875
vt 1.515625 0.765625
vt 1.578125 0.921875
vt 1.640625 0.765625
vt 1.640625 0.921875
vt 1.578125 0.765625
vt 1.390625 0.921875
vt 1.453125 0.765625
vt 1.515625 0.984375
vt 1.578125 0.984375
vt 1.390625 0.765625
vn -0.0000 -1.0000 -0.0000
vn 0.0000 1.0000 -0.0000
vn 0.0000 0.0000 -1.0000
vn -0.0000 -0.0000 1.0000
vn 1.0000 -0.0000 -0.0000
vn -1.0000 0.0000 -0.0000
usemtl ModelMaterial.002
s 1
f 17/33/13 18/34/13 19/35/13
f 20/36/14 21/37/14 22/38/14
f 19/35/15 23/39/15 17/33/15
f 24/40/16 22/41/16 18/42/16
f 17/33/17 20/43/17 24/40/17
f 18/44/18 21/45/18 19/35/18
f 17/33/13 24/46/13 18/34/13
f 20/36/14 23/47/14 21/37/14
f 19/35/15 21/45/15 23/39/15
f 24/40/16 20/43/16 22/41/16
f 17/33/17 23/39/17 20/43/17
f 18/44/18 22/48/18 21/45/18
o bodyModel
v 4.149996 -0.095962 -2.148692
v -4.150004 -0.095963 2.151307
v -4.150004 -0.095962 -2.148693
v 4.149998 12.204037 2.151318
v -4.150002 12.204039 -2.148684
v -4.150002 12.204039 2.151316
v 4.149999 12.204037 -2.148682
v 4.149996 -0.095963 2.151308
vt 1.203125 0.671875
vt 1.078125 0.734375
vt 1.078125 0.671875
vt 1.328125 0.671875
vt 1.203125 0.734375
vt 1.203125 0.671875
vt 1.203125 0.484375
vt 1.265625 0.671875
vt 1.390625 0.484375
vt 1.390625 0.671875
vt 1.265625 0.484375
vt 1.015625 0.671875
vt 1.078125 0.484375
vt 1.203125 0.734375
vt 1.328125 0.734375
vt 1.015625 0.484375
vn 0.0000 -1.0000 -0.0000
vn 0.0000 1.0000 -0.0000
vn 0.0000 0.0000 -1.0000
vn -0.0000 -0.0000 1.0000
vn 1.0000 -0.0000 0.0000
vn -1.0000 0.0000 0.0000
usemtl ModelMaterial.002
s 1
f 25/49/19 26/50/19 27/51/19
f 28/52/20 29/53/20 30/54/20
f 27/51/21 31/55/21 25/49/21
f 32/56/22 30/57/22 26/58/22
f 25/49/23 28/59/23 32/56/23
f 26/60/24 29/61/24 27/51/24
f 25/49/19 32/62/19 26/50/19
f 28/52/20 31/63/20 29/53/20
f 27/51/21 29/61/21 31/55/21
f 32/56/22 28/59/22 30/57/22
f 25/49/23 31/55/23 28/59/23
f 26/60/24 30/64/24 29/61/24
o rightLegModel
v 0.100383 12.000104 -2.106771
v -4.115801 12.000104 2.109414
v -4.115800 12.000104 -2.106771
v 0.100384 22.239408 2.109424
v -4.115799 22.239408 -2.106762
v -4.115799 22.239408 2.109422
v 0.100385 22.239408 -2.106761
v 0.100383 12.000102 2.109415
vt 1.640625 0.671875
vt 1.578125 0.734375
vt 1.578125 0.671875
vt 1.703125 0.671875
vt 1.640625 0.734375
vt 1.640625 0.671875
vt 1.640625 0.515625
vt 1.703125 0.671875
vt 1.765625 0.515625
vt 1.765625 0.671875
vt 1.703125 0.515625
vt 1.515625 0.671875
vt 1.578125 0.515625
vt 1.640625 0.734375
vt 1.703125 0.734375
vt 1.515625 0.515625
vn -0.0000 -1.0000 -0.0000
vn 0.0000 1.0000 -0.0000
vn 0.0000 0.0000 -1.0000
vn -0.0000 -0.0000 1.0000
vn 1.0000 -0.0000 0.0000
vn -1.0000 0.0000 -0.0000
usemtl ModelMaterial.002
s 1
f 33/65/25 34/66/25 35/67/25
f 36/68/26 37/69/26 38/70/26
f 35/67/27 39/71/27 33/65/27
f 40/72/28 38/73/28 34/74/28
f 33/65/29 36/75/29 40/72/29
f 34/76/30 37/77/30 35/67/30
f 33/65/25 40/78/25 34/66/25
f 36/68/26 39/79/26 37/69/26
f 35/67/27 37/77/27 39/71/27
f 40/72/28 36/75/28 38/73/28
f 33/65/29 39/71/29 36/75/29
f 34/76/30 38/80/30 37/77/30
o rightFootModel
v 0.150578 20.984592 -2.156957
v -4.165993 20.984592 2.159614
v -4.165992 20.984592 -2.156957
v 0.150578 24.297308 2.159617
v -4.165992 24.297310 -2.156954
v -4.165993 24.297308 2.159616
v 0.150578 24.297308 -2.156953
v 0.150577 20.984592 2.159615
vt 1.640625 0.140625
vt 1.578125 0.203125
vt 1.578125 0.140625
vt 1.703125 0.140625
vt 1.640625 0.203125
vt 1.640625 0.140625
vt 1.640625 0.093750
vt 1.703125 0.140625
vt 1.765625 0.093750
vt 1.765625 0.140625
vt 1.703125 0.093750
vt 1.515625 0.140625
vt 1.578125 0.093750
vt 1.640625 0.203125
vt 1.703125 0.203125
vt 1.515625 0.093750
vn 0.0000 -1.0000 0.0000
vn 0.0000 1.0000 0.0000
vn 0.0000 0.0000 -1.0000
vn -0.0000 -0.0000 1.0000
vn 1.0000 -0.0000 0.0000
vn -1.0000 0.0000 -0.0000
usemtl ModelMaterial.002
s 1
f 41/81/31 42/82/31 43/83/31
f 44/84/32 45/85/32 46/86/32
f 43/83/33 47/87/33 41/81/33
f 48/88/34 46/89/34 42/90/34
f 41/81/35 44/91/35 48/88/35
f 42/92/36 45/93/36 43/83/36
f 41/81/31 48/94/31 42/82/31
f 44/84/32 47/95/32 45/85/32
f 43/83/33 45/93/33 47/87/33
f 48/88/34 44/91/34 46/89/34
f 41/81/35 47/87/35 44/91/35
f 42/92/36 46/96/36 45/93/36
o leftFootModel
v 4.165992 20.984592 -2.156956
v -0.150579 20.984592 2.159615
v -0.150578 20.984592 -2.156957
v 4.165992 24.297308 2.159618
v -0.150578 24.297308 -2.156953
v -0.150578 24.297308 2.159617
v 4.165993 24.297308 -2.156952
v 4.165991 20.984591 2.159615
vt 1.640625 0.140625
vt 1.578125 0.203125
vt 1.578125 0.140625
vt 1.703125 0.140625
vt 1.640625 0.203125
vt 1.640625 0.140625
vt 1.640625 0.093750
vt 1.703125 0.140625
vt 1.765625 0.093750
vt 1.765625 0.140625
vt 1.703125 0.093750
vt 1.515625 0.140625
vt 1.578125 0.093750
vt 1.640625 0.203125
vt 1.703125 0.203125
vt 1.515625 0.093750
vn -0.0000 -1.0000 0.0000
vn 0.0000 1.0000 0.0000
vn 0.0000 0.0000 -1.0000
vn -0.0000 -0.0000 1.0000
vn 1.0000 -0.0000 0.0000
vn -1.0000 0.0000 -0.0000
usemtl ModelMaterial.002
s 1
f 49/97/37 50/98/37 51/99/37
f 52/100/38 53/101/38 54/102/38
f 51/99/39 55/103/39 49/97/39
f 56/104/40 54/105/40 50/106/40
f 49/97/41 52/107/41 56/104/41
f 50/108/42 53/109/42 51/99/42
f 49/97/37 56/110/37 50/98/37
f 52/100/38 55/111/38 53/101/38
f 51/99/39 53/109/39 55/103/39
f 56/104/40 52/107/40 54/105/40
f 49/97/41 55/103/41 52/107/41
f 50/108/42 54/112/42 53/109/42
