# Blender v3.2.2 OBJ File: 'suppressor_normal.blend'
# www.blender.org
mtllib suppressor_normal.mtl
o attachmentModel
v 0.226589 0.684603 -0.000004
v 5.954970 0.484102 0.484018
v 5.954970 -0.484082 0.484018
v 0.226589 -0.684609 -0.000005
v 5.954970 -0.684594 -0.000073
v 5.954970 -0.484080 -0.484162
v 5.954970 0.000010 -0.684678
v 5.954970 0.484102 -0.484162
v 2.541370 0.161926 -0.000071
v 6.119958 -0.161890 -0.000072
v 5.954998 0.000009 0.684534
v 0.226616 -0.000005 0.684601
v 2.541370 -0.114469 -0.114552
v 0.226589 0.484090 -0.484095
v 0.226589 0.712080 -0.000004
v 0.226589 -0.484093 0.484085
v 0.226589 -0.000003 -0.684611
v 0.122022 -0.000004 -0.356200
v 0.122022 0.251868 -0.251874
v 0.122022 -0.712070 -0.000005
v 0.122022 0.712080 -0.000004
v 6.175744 -0.439097 -0.000072
v 6.175770 0.000009 0.699350
v 6.175744 -0.494545 0.494496
v 6.175744 0.000010 0.439034
v 6.175744 0.000010 -0.699480
v 6.119958 0.000010 -0.161973
v 6.119958 0.000010 -0.439178
v 6.119958 -0.310488 0.310426
v 6.119958 0.000010 0.161845
v 6.119958 0.114504 0.114421
v 6.119958 0.114506 -0.114552
v 0.226589 -0.503514 0.503508
v 0.226589 -0.484091 -0.484095
v 0.226589 -0.503513 -0.503516
v 0.226589 0.503510 -0.503516
v 0.226589 0.484088 0.484086
v 0.122022 -0.503514 0.503508
v 0.122022 0.503508 0.503508
v -0.000002 0.251868 0.251880
v 5.954970 0.684615 -0.000071
v 5.954970 0.699432 -0.000071
v 6.175744 -0.699397 -0.000073
v 6.175744 0.310508 -0.310569
v 6.175744 -0.494543 -0.494627
v 6.119958 -0.439097 -0.000072
v 6.119958 -0.114469 -0.114552
v 6.119958 0.310508 0.310427
v 0.226616 -0.000005 0.712077
v 0.226589 0.503508 0.503508
v 0.226589 -0.000003 -0.712073
v 0.122022 0.356206 -0.000004
v 0.122022 -0.251872 -0.251874
v 0.122022 -0.356197 -0.000004
v -0.000002 -0.000004 0.356205
v 0.122022 -0.251874 0.251880
v 5.954970 0.000010 -0.699480
v 5.954970 -0.494545 0.494496
v 5.954970 0.494580 -0.494626
v 5.954970 -0.494543 -0.494627
v 5.954970 -0.699397 -0.000073
v 6.119958 0.000010 0.439034
v 6.175744 0.000010 -0.439178
v 6.175744 -0.310486 -0.310570
v 6.175744 -0.310488 0.310426
v 6.175744 0.310508 0.310427
v 0.122022 -0.000003 -0.712073
v 0.122022 0.503510 -0.503516
v 0.122049 -0.000005 0.712077
v 0.122022 -0.503513 -0.503516
v 0.226589 -0.712070 -0.000005
v -0.000002 0.356206 -0.000004
v -0.000002 -0.251872 -0.251874
v -0.000002 -0.000004 -0.356200
v -0.000002 -0.251874 0.251880
v 0.122022 0.251868 0.251880
v -0.000002 0.251868 -0.251874
v -0.000002 -0.356197 -0.000004
v 0.122022 -0.000004 0.356205
v 6.175744 0.494580 -0.494626
v 5.954998 0.000009 0.699350
v 5.954970 0.494579 0.494497
v 6.175744 0.494579 0.494497
v 6.175744 0.699432 -0.000071
v 6.119958 -0.310486 -0.310570
v 6.175744 0.439118 -0.000071
v 6.119958 0.439118 -0.000071
v 6.119958 0.310508 -0.310569
v 2.541370 0.114506 -0.114552
v 6.119958 0.161926 -0.000071
v 6.119958 -0.114469 0.114421
v 2.541370 0.114504 0.114421
v 2.541370 0.000010 0.161845
v 2.541370 0.000010 -0.161973
v 2.541370 -0.161890 -0.000072
v 2.541370 0.000010 -0.000071
v 2.541370 -0.114469 0.114421
v 6.110957 0.161913 -0.000004
v -0.000002 -0.000004 -0.000004
vt 0.001532 0.001535
vt 0.974363 0.064457
vt 0.001531 0.064458
vt 0.974364 0.001535
vt 0.787266 0.786692
vt 0.852713 0.768937
vt 0.852714 0.786695
vt 0.787266 0.768934
vt 0.742330 0.839135
vt 0.677085 0.777178
vt 0.679408 0.776214
vt 0.677085 0.686267
vt 0.679408 0.687229
vt 0.741367 0.621985
vt 0.742329 0.624306
vt 0.894236 0.776212
vt 0.832278 0.841460
vt 0.831315 0.839135
vt 0.894236 0.687227
vt 0.832275 0.621984
vt 0.896560 0.686266
vt 0.741368 0.841460
vt 0.896561 0.777175
vt 0.831313 0.624306
vt 0.974362 0.153442
vt 0.001531 0.153442
vt 0.250598 0.636860
vt 0.225194 0.647381
vt 0.235715 0.621978
vt 0.235717 0.672785
vt 0.214671 0.672785
vt 0.214672 0.621979
vt 0.199791 0.636859
vt 0.199791 0.657905
vt 0.250598 0.657903
vt 0.974362 0.156642
vt 0.001531 0.219565
vt 0.001530 0.156643
vt 0.974362 0.219564
vt 0.001532 0.466867
vt 0.974363 0.529788
vt 0.001532 0.529788
vt 0.974363 0.466867
vt 0.001532 0.308549
vt 0.974363 0.308549
vt 0.609266 0.959334
vt 0.001527 0.944454
vt 0.609266 0.944454
vt 0.001527 0.959334
vt 0.001527 0.863409
vt 0.609266 0.884452
vt 0.001527 0.884452
vt 0.609266 0.863409
vt 0.001527 0.848528
vt 0.609266 0.848528
vt 0.001527 0.924677
vt 0.609266 0.939559
vt 0.001527 0.939559
vt 0.609266 0.924677
vt 0.977428 0.609266
vt 0.998474 0.001527
vt 0.998474 0.609266
vt 0.977427 0.001527
vt 0.001527 0.903633
vt 0.609266 0.903633
vt 0.609266 0.899334
vt 0.001527 0.899334
vt 0.609266 0.980379
vt 0.001527 0.980380
vt 0.157750 0.626293
vt 0.224981 0.687429
vt 0.220673 0.689214
vt 0.220674 0.778199
vt 0.159539 0.845433
vt 0.157753 0.841121
vt 0.005844 0.689217
vt 0.066980 0.621986
vt 0.068765 0.626294
vt 0.224983 0.779984
vt 0.005845 0.778202
vt 0.066983 0.845432
vt 0.001535 0.779987
vt 0.068768 0.841123
vt 0.159535 0.621984
vt 0.001534 0.687432
vt 0.674029 0.777177
vt 0.633186 0.703186
vt 0.674030 0.686268
vt 0.454554 0.777176
vt 0.535752 0.800618
vt 0.518836 0.841458
vt 0.535754 0.662827
vt 0.454554 0.686265
vt 0.518836 0.621984
vt 0.592829 0.662827
vt 0.609747 0.621984
vt 0.609744 0.841460
vt 0.592828 0.800618
vt 0.633187 0.760261
vt 0.495395 0.703185
vt 0.495395 0.760260
vt 0.781940 0.671593
vt 0.742882 0.628101
vt 0.799957 0.628101
vt 0.746014 0.686474
vt 0.702523 0.668458
vt 0.840314 0.725536
vt 0.796821 0.686475
vt 0.840315 0.668460
vt 0.781941 0.722399
vt 0.796821 0.707519
vt 0.760894 0.722400
vt 0.799956 0.765893
vt 0.742880 0.765893
vt 0.702523 0.725534
vt 0.746014 0.707519
vt 0.760896 0.671592
vt 0.283879 0.756859
vt 0.293491 0.845432
vt 0.228042 0.779987
vt 0.386047 0.845432
vt 0.395656 0.756859
vt 0.451491 0.779984
vt 0.228043 0.687432
vt 0.451489 0.687429
vt 0.395653 0.710558
vt 0.293489 0.621985
vt 0.283880 0.710559
vt 0.362916 0.677820
vt 0.386043 0.621984
vt 0.316619 0.789598
vt 0.362918 0.789596
vt 0.316617 0.677821
vt 0.092407 0.686029
vt 0.115559 0.741917
vt 0.069257 0.741918
vt 0.148296 0.662880
vt 0.148296 0.709178
vt 0.069257 0.630142
vt 0.036520 0.662880
vt 0.036520 0.709179
vt 0.115555 0.630142
vt 0.001532 0.400744
vt 0.974359 0.463666
vt 0.001528 0.463667
vt 0.974363 0.400744
vt 0.456981 0.621985
vt 0.410683 0.642707
vt 0.410683 0.621985
vt 0.456981 0.642707
vt 0.835777 0.866292
vt 0.770331 0.848533
vt 0.835777 0.848533
vt 0.770331 0.866292
vt 0.940175 0.777176
vt 0.977664 0.686267
vt 0.977668 0.777176
vt 0.940171 0.686267
vt 0.586933 0.666888
vt 0.577459 0.723963
vt 0.577459 0.666888
vt 0.586933 0.723963
vt 0.173338 0.701664
vt 0.194061 0.668925
vt 0.194061 0.701664
vt 0.173338 0.668925
vt 0.899630 0.686264
vt 0.937123 0.621980
vt 0.937123 0.686264
vt 0.899630 0.621980
vt 0.677776 0.848533
vt 0.677776 0.866292
vt 0.940175 0.621983
vt 0.977668 0.621983
vt 0.990211 0.613823
vt 0.980737 0.670898
vt 0.980737 0.613823
vt 0.990211 0.670898
vt 0.589994 0.715411
vt 0.599467 0.675052
vt 0.599467 0.715411
vt 0.589994 0.675052
vt 0.173338 0.747963
vt 0.194061 0.747963
vt 0.667124 0.621985
vt 0.713422 0.642708
vt 0.667124 0.642708
vt 0.713422 0.621985
vt 0.899630 0.777173
vt 0.937123 0.777173
vt 0.612329 0.848533
vt 0.612329 0.866292
vt 0.173338 0.780701
vt 0.194061 0.780701
vt 0.589994 0.772486
vt 0.599467 0.772486
vt 0.864099 0.709099
vt 0.843376 0.662798
vt 0.864099 0.662798
vt 0.843376 0.709099
vt 0.634385 0.642708
vt 0.634385 0.621985
vt 0.940179 0.781181
vt 0.957937 0.846628
vt 0.940179 0.846628
vt 0.957937 0.781181
vt 0.169121 0.644438
vt 0.151363 0.736993
vt 0.151363 0.644437
vt 0.169121 0.736993
vt 0.867152 0.772486
vt 0.876626 0.715411
vt 0.876626 0.772486
vt 0.867153 0.715411
vt 0.079363 0.746485
vt 0.170274 0.783979
vt 0.079363 0.783979
vt 0.170274 0.746485
vt 0.974359 0.311759
vt 0.001528 0.311759
vt 0.536906 0.757791
vt 0.574399 0.666880
vt 0.574399 0.757791
vt 0.536906 0.666880
vt 0.876626 0.675052
vt 0.867153 0.675052
vt 0.694710 0.768937
vt 0.694710 0.786695
vt 0.001532 0.618774
vt 0.974364 0.618774
vt 0.899630 0.841455
vt 0.937123 0.841455
vt 0.980737 0.711257
vt 0.990211 0.711257
vt 0.940179 0.939183
vt 0.957937 0.939183
vt 0.577459 0.764322
vt 0.586933 0.764322
vt 0.489722 0.642707
vt 0.489722 0.621985
vt 0.015081 0.746485
vt 0.015081 0.783979
vn 0.0000 -0.9239 0.3827
vn 0.0000 0.3827 0.9239
vn -1.0000 0.0000 0.0000
vn -0.0000 -0.9239 -0.3827
vn 1.0000 0.0000 0.0000
vn -0.0000 0.9239 -0.3827
vn -0.0000 -0.3827 -0.9239
vn 0.0000 0.9239 0.3827
vn 0.0000 -0.3827 0.9239
vn 0.0000 0.3827 -0.9239
vn 1.0000 -0.0000 -0.0001
vn -1.0000 0.0000 0.0001
vn 0.0000 -0.9239 0.3826
usemtl main
s 1
f 3/1/1 4/2/1 5/3/1
f 3/1/1 16/4/1 4/2/1
s 2
f 50/5/2 69/6/2 49/7/2
f 50/5/2 39/8/2 69/6/2
s 3
f 41/9/3 59/10/3 8/11/3
f 8/11/3 57/12/3 7/13/3
f 7/13/3 60/14/3 6/15/3
f 11/16/3 82/17/3 2/18/3
f 3/19/3 61/20/3 58/21/3
f 2/18/3 42/22/3 41/9/3
f 11/16/3 58/21/3 81/23/3
f 6/15/3 61/20/3 5/24/3
f 41/9/3 42/22/3 59/10/3
f 8/11/3 59/10/3 57/12/3
f 7/13/3 57/12/3 60/14/3
f 11/16/3 81/23/3 82/17/3
f 3/19/3 5/24/3 61/20/3
f 2/18/3 82/17/3 42/22/3
f 11/16/3 3/19/3 58/21/3
f 6/15/3 60/14/3 61/20/3
s 4
f 34/25/4 5/3/4 4/2/4
f 34/25/4 6/26/4 5/3/4
s 5
f 89/27/5 96/28/5 94/29/5
f 96/28/5 92/30/5 93/31/5
f 13/32/5 96/28/5 95/33/5
f 96/28/5 97/34/5 95/33/5
f 89/27/5 9/35/5 96/28/5
f 96/28/5 9/35/5 92/30/5
f 13/32/5 94/29/5 96/28/5
f 96/28/5 93/31/5 97/34/5
s 6
f 14/36/6 41/37/6 8/38/6
f 14/36/6 1/39/6 41/37/6
s 7
f 6/40/7 17/41/7 7/42/7
f 6/40/7 34/43/7 17/41/7
s 8
f 1/39/8 2/44/8 41/37/8
f 1/39/8 37/45/8 2/44/8
s 9
f 90/46/1 89/47/1 32/48/1
f 90/46/1 9/49/1 89/47/1
s 10
f 47/50/8 95/51/8 10/52/8
f 47/50/8 13/53/8 95/51/8
s 11
f 27/54/2 13/53/2 47/50/2
f 27/54/2 94/55/2 13/53/2
s 12
f 30/56/7 92/57/7 31/58/7
f 30/56/7 93/59/7 92/57/7
s 13
f 32/60/9 94/61/9 27/62/9
f 32/60/9 89/63/9 94/61/9
s 14
f 91/64/10 93/59/10 30/56/10
f 91/64/10 97/65/10 93/59/10
s 15
f 10/52/6 97/66/6 91/67/6
f 10/52/6 95/51/6 97/66/6
s 16
f 31/68/4 9/49/4 90/46/4
f 31/68/4 92/69/4 9/49/4
s 17
f 34/70/5 51/71/5 17/72/5
f 14/73/5 15/74/5 1/75/5
f 16/76/5 71/77/5 4/78/5
f 17/72/5 36/79/5 14/73/5
f 12/80/5 50/81/5 49/82/5
f 37/83/5 15/74/5 50/81/5
f 4/78/5 35/84/5 34/70/5
f 12/80/5 33/85/5 16/76/5
f 34/70/5 35/84/5 51/71/5
f 14/73/5 36/79/5 15/74/5
f 16/76/5 33/85/5 71/77/5
f 17/72/5 51/71/5 36/79/5
f 12/80/5 37/83/5 50/81/5
f 37/83/5 1/75/5 15/74/5
f 4/78/5 71/77/5 35/84/5
f 12/80/5 49/82/5 33/85/5
s 18
f 24/86/5 25/87/11 23/88/11
f 26/89/5 64/90/5 45/91/5
f 86/92/5 80/93/5 84/94/5
f 23/88/11 66/95/5 83/96/5
f 84/94/5 66/95/5 86/92/5
f 43/97/5 64/90/5 22/98/5
f 43/97/5 65/99/5 24/86/5
f 44/100/5 26/89/5 80/93/5
f 24/86/5 65/99/5 25/87/11
f 26/89/5 63/101/5 64/90/5
f 86/92/5 44/100/5 80/93/5
f 23/88/11 25/87/11 66/95/5
f 84/94/5 83/96/5 66/95/5
f 43/97/5 45/91/5 64/90/5
f 43/97/5 22/98/5 65/99/5
f 44/100/5 63/101/5 26/89/5
s 19
f 91/102/5 62/103/5 29/104/5
f 62/103/5 31/105/5 48/106/5
f 85/107/5 10/108/5 46/109/5
f 85/107/5 27/110/5 47/111/5
f 32/112/5 28/113/5 88/114/5
f 87/115/5 32/112/5 88/114/5
f 46/109/5 91/102/5 29/104/5
f 87/115/5 31/105/5 90/116/5
f 91/102/5 30/117/5 62/103/5
f 62/103/5 30/117/5 31/105/5
f 85/107/5 47/111/5 10/108/5
f 85/107/5 28/113/5 27/110/5
f 32/112/5 27/110/5 28/113/5
f 87/115/5 90/116/5 32/112/5
f 46/109/5 10/108/5 91/102/5
f 87/115/5 48/106/5 31/105/5
s 20
f 52/118/3 39/119/3 21/120/3
f 69/121/12 56/122/3 38/123/3
f 68/124/3 52/118/3 21/120/3
f 20/125/3 56/122/3 54/126/3
f 67/127/3 19/128/3 68/124/3
f 20/125/3 53/129/3 70/130/3
f 53/129/3 67/127/3 70/130/3
f 76/131/3 69/121/12 39/119/3
f 52/118/3 76/131/3 39/119/3
f 69/121/12 79/132/12 56/122/3
f 68/124/3 19/128/3 52/118/3
f 20/125/3 38/123/3 56/122/3
f 67/127/3 18/133/3 19/128/3
f 20/125/3 54/126/3 53/129/3
f 53/129/3 18/133/3 67/127/3
f 76/131/3 79/132/12 69/121/12
s 21
f 99/134/3 40/135/3 72/136/3
f 99/134/3 75/137/3 55/138/3
f 73/139/3 99/134/3 74/140/3
f 77/141/3 99/134/3 72/136/3
f 99/134/3 55/138/3 40/135/3
f 99/134/3 78/142/3 75/137/3
f 73/139/3 78/142/3 99/134/3
f 77/141/3 74/140/3 99/134/3
s 22
f 12/143/2 2/144/2 37/145/2
f 12/143/2 11/146/2 2/144/2
s 23
f 54/147/4 73/148/4 53/149/4
f 54/147/4 78/150/4 73/148/4
s 24
f 70/151/7 51/152/7 35/153/7
f 70/151/7 67/154/7 51/152/7
s 25
f 24/155/9 81/156/9 58/157/9
f 24/155/9 23/158/9 81/156/9
s 26
f 48/159/4 86/160/4 66/161/4
f 48/159/4 87/162/4 86/160/4
s 27
f 77/163/6 52/164/6 19/165/6
f 77/163/6 72/166/6 52/164/6
s 28
f 43/167/1 58/168/1 61/169/1
f 43/167/1 24/170/1 58/168/1
s 29
f 67/154/10 36/171/10 51/152/10
f 67/154/10 68/172/10 36/171/10
s 30
f 81/156/2 83/173/2 82/174/2
f 81/156/2 23/158/2 83/173/2
s 31
f 88/175/9 63/176/9 44/177/9
f 88/175/9 28/178/9 63/176/9
s 32
f 46/179/6 65/180/6 22/181/6
f 46/179/6 29/182/6 65/180/6
s 33
f 74/183/10 19/165/10 18/184/10
f 74/183/10 77/163/10 19/165/10
s 34
f 55/185/9 56/186/9 79/187/9
f 55/185/9 75/188/9 56/186/9
s 35
f 45/189/4 61/169/4 60/190/4
f 45/189/4 43/167/4 61/169/4
s 36
f 68/172/6 15/191/6 36/171/6
f 68/172/6 21/192/6 15/191/6
s 37
f 73/193/7 18/184/7 53/194/7
f 73/193/7 74/183/7 18/184/7
s 38
f 85/195/8 22/181/8 64/196/8
f 85/195/8 46/179/8 22/181/8
s 39
f 52/197/8 40/198/8 76/199/8
f 52/197/8 72/200/8 40/198/8
s 40
f 76/201/2 55/185/2 79/187/2
f 76/201/2 40/202/2 55/185/2
s 41
f 33/203/1 20/204/1 71/205/1
f 33/203/1 38/206/1 20/204/1
s 42
f 69/207/9 33/208/9 49/209/9
f 69/207/9 38/210/9 33/208/9
s 43
f 29/211/10 25/212/10 65/213/10
f 29/211/10 62/214/10 25/212/10
s 44
f 80/215/10 57/216/10 59/217/10
f 80/215/10 26/218/10 57/216/10
s 45
f 12/143/9 3/219/9 11/146/9
f 12/143/9 16/220/9 3/219/9
s 46
f 42/221/8 83/222/8 84/223/8
f 42/221/8 82/224/8 83/222/8
s 47
f 62/214/7 66/225/7 25/212/7
f 62/214/7 48/226/7 66/225/7
s 48
f 21/227/8 50/5/8 15/228/8
f 21/227/8 39/8/8 50/5/8
s 49
f 17/41/10 8/229/10 7/42/10
f 17/41/10 14/230/10 8/229/10
s 50
f 26/231/7 60/190/7 57/232/7
f 26/231/7 45/189/7 60/190/7
s 51
f 28/178/2 64/233/2 63/176/2
f 28/178/2 85/234/2 64/233/2
s 52
f 20/204/4 35/235/4 71/205/4
f 20/204/4 70/236/4 35/235/4
s 53
f 44/237/1 87/162/1 88/238/1
f 44/237/1 86/160/1 87/162/1
s 54
f 75/239/13 54/147/13 56/240/13
f 75/239/13 78/150/13 54/147/13
s 55
f 84/241/6 59/217/6 42/242/6
f 84/241/6 80/215/6 59/217/6
l 90 98
